%TF.GenerationSoftware,KiCad,Pcbnew,9.0.7+1*%
%TF.CreationDate,2026-04-07T16:13:12+02:00*%
%TF.ProjectId,PCB,5043422e-6b69-4636-9164-5f7063625858,rev?*%
%TF.SameCoordinates,Original*%
%TF.FileFunction,Copper,L2,Bot*%
%TF.FilePolarity,Positive*%
%FSLAX46Y46*%
G04 Gerber Fmt 4.6, Leading zero omitted, Abs format (unit mm)*
G04 Created by KiCad (PCBNEW 9.0.7+1) date 2026-04-07 16:13:12*
%MOMM*%
%LPD*%
G01*
G04 APERTURE LIST*
%TA.AperFunction,ComponentPad*%
%ADD10C,1.400000*%
%TD*%
%TA.AperFunction,ComponentPad*%
%ADD11C,1.800000*%
%TD*%
%TA.AperFunction,ComponentPad*%
%ADD12R,1.800000X1.800000*%
%TD*%
%TA.AperFunction,ComponentPad*%
%ADD13C,1.600000*%
%TD*%
G04 APERTURE END LIST*
D10*
%TO.P,SW2,1,A*%
%TO.N,VCC*%
X-366150000Y212800000D03*
%TO.P,SW2,2,B*%
%TO.N,Net-(SW2A-B)*%
X-366150000Y209800000D03*
%TO.P,SW2,3,C*%
%TO.N,unconnected-(SW2A-C-Pad3)*%
X-366150000Y206800000D03*
%TD*%
D11*
%TO.P,J1,1,Pin_1*%
%TO.N,GND*%
X-397290000Y240750000D03*
%TO.P,J1,2,Pin_2*%
%TO.N,Net-(J1-Pin_2)*%
X-394750000Y240750000D03*
%TD*%
%TO.P,U3,1,IN+*%
%TO.N,unconnected-(U3-IN+-Pad1)*%
X-396000000Y205500000D03*
%TO.P,U3,2,IN-*%
%TO.N,unconnected-(U3-IN--Pad2)*%
X-396000000Y191500000D03*
%TO.P,U3,3,OUT+*%
%TO.N,Net-(SW2A-B)*%
X-373000000Y205500000D03*
%TO.P,U3,4,OUT-*%
%TO.N,GND*%
X-373000000Y191500000D03*
%TO.P,U3,5,B+*%
%TO.N,Net-(J2-Pin_2)*%
X-373000000Y202960000D03*
%TO.P,U3,6,B-*%
%TO.N,Net-(J2-Pin_1)*%
X-373000000Y194040000D03*
%TD*%
D12*
%TO.P,D1,1,K*%
%TO.N,GND*%
X-373720000Y213000000D03*
D11*
%TO.P,D1,2,A*%
%TO.N,Net-(D1-A)*%
X-371180000Y213000000D03*
%TD*%
D13*
%TO.P,R2,1*%
%TO.N,Net-(R1-Pad2)*%
X-377500000Y210500000D03*
%TO.P,R2,2*%
%TO.N,GND*%
X-385120000Y210500000D03*
%TD*%
D11*
%TO.P,J2,1,Pin_1*%
%TO.N,Net-(J2-Pin_1)*%
X-364710000Y201000000D03*
%TO.P,J2,2,Pin_2*%
%TO.N,Net-(J2-Pin_2)*%
X-367250000Y201000000D03*
%TD*%
%TO.P,U2,1,VCC*%
%TO.N,VCC*%
X-383500000Y219750000D03*
%TO.P,U2,2,GND*%
%TO.N,GND*%
X-383500000Y222290000D03*
%TO.P,U2,3,SCL*%
%TO.N,Net-(U1-SCL)*%
X-383500000Y224830000D03*
%TO.P,U2,4,SDA*%
%TO.N,Net-(U1-SDA)*%
X-383500000Y227370000D03*
%TO.P,U2,5,XDA*%
%TO.N,unconnected-(U2-XDA-Pad5)*%
X-383500000Y229910000D03*
%TO.P,U2,6,XCL*%
%TO.N,unconnected-(U2-XCL-Pad6)*%
X-383500000Y232450000D03*
%TO.P,U2,7,ADO*%
%TO.N,unconnected-(U2-ADO-Pad7)*%
X-383500000Y234990000D03*
%TO.P,U2,8,INT*%
%TO.N,Net-(U2-INT)*%
X-383500000Y237530000D03*
%TD*%
%TO.P,SW1,1,1*%
%TO.N,Net-(SW1-Pad1)*%
X-393000000Y210500000D03*
%TO.P,SW1,2,2*%
%TO.N,unconnected-(SW1-Pad2)*%
X-393000000Y217000000D03*
%TO.P,SW1,3,K*%
%TO.N,unconnected-(SW1-K-Pad3)*%
X-397500000Y217000000D03*
%TO.P,SW1,4,A*%
%TO.N,GND*%
X-397500000Y210500000D03*
%TD*%
%TO.P,U1,0*%
%TO.N,Net-(J1-Pin_2)*%
X-364885000Y219245000D03*
%TO.P,U1,1*%
%TO.N,Net-(D1-A)*%
X-364885000Y221785000D03*
%TO.P,U1,2*%
%TO.N,unconnected-(U1-Pad2)*%
X-364885000Y224325000D03*
%TO.P,U1,3*%
%TO.N,unconnected-(U1-Pad3)*%
X-364885000Y226865000D03*
%TO.P,U1,3V3,3V3*%
%TO.N,unconnected-(U1-Pad3V3)*%
X-364885000Y231945000D03*
%TO.P,U1,4*%
%TO.N,unconnected-(U1-Pad4)*%
X-364885000Y229405000D03*
%TO.P,U1,5*%
%TO.N,Net-(R1-Pad2)*%
X-380125000Y237025000D03*
%TO.P,U1,5V,5V*%
%TO.N,VCC*%
X-364885000Y237025000D03*
%TO.P,U1,6*%
%TO.N,Net-(R1-Pad1)*%
X-380125000Y234485000D03*
%TO.P,U1,7*%
%TO.N,Net-(U2-INT)*%
X-380125000Y231945000D03*
%TO.P,U1,8,SDA*%
%TO.N,Net-(U1-SDA)*%
X-380125000Y229405000D03*
%TO.P,U1,9,SCL*%
%TO.N,Net-(U1-SCL)*%
X-380125000Y226865000D03*
%TO.P,U1,10*%
%TO.N,unconnected-(U1-Pad10)*%
X-380125000Y224325000D03*
%TO.P,U1,20*%
%TO.N,unconnected-(U1-Pad20)*%
X-380125000Y221785000D03*
%TO.P,U1,21*%
%TO.N,Net-(SW1-Pad1)*%
X-380125000Y219245000D03*
%TO.P,U1,GND,GND*%
%TO.N,GND*%
X-364885000Y234485000D03*
%TD*%
D13*
%TO.P,R1,1*%
%TO.N,Net-(R1-Pad1)*%
X-385120000Y214000000D03*
%TO.P,R1,2*%
%TO.N,Net-(R1-Pad2)*%
X-377500000Y214000000D03*
%TD*%
%TA.AperFunction,Conductor*%
%TO.N,GND*%
G36*
X-398146871Y241979815D02*
G01*
X-398101116Y241927011D01*
X-398098465Y241912017D01*
X-397378585Y241192138D01*
X-397463694Y241169333D01*
X-397566306Y241110090D01*
X-397650090Y241026306D01*
X-397709333Y240923694D01*
X-397732137Y240838585D01*
X-398441066Y241547514D01*
X-398441066Y241547513D01*
X-398487386Y241483760D01*
X-398587432Y241287410D01*
X-398655526Y241077835D01*
X-398690000Y240860181D01*
X-398690000Y240639818D01*
X-398655526Y240422164D01*
X-398587432Y240212589D01*
X-398487388Y240016243D01*
X-398441066Y239952485D01*
X-398441065Y239952485D01*
X-397732137Y240661413D01*
X-397709333Y240576306D01*
X-397650090Y240473694D01*
X-397566306Y240389910D01*
X-397463694Y240330667D01*
X-397378584Y240307861D01*
X-398087513Y239598932D01*
X-398023756Y239552611D01*
X-397827410Y239452567D01*
X-397617835Y239384473D01*
X-397400181Y239350000D01*
X-397179819Y239350000D01*
X-396962164Y239384473D01*
X-396752589Y239452567D01*
X-396556233Y239552616D01*
X-396492485Y239598931D01*
X-396492485Y239598932D01*
X-397201415Y240307861D01*
X-397116306Y240330667D01*
X-397013694Y240389910D01*
X-396929910Y240473694D01*
X-396870667Y240576306D01*
X-396847861Y240661414D01*
X-396138932Y239952485D01*
X-396138930Y239952485D01*
X-396120626Y239977679D01*
X-396065296Y240020345D01*
X-395995683Y240026324D01*
X-395933888Y239993718D01*
X-395919990Y239977679D01*
X-395818247Y239837640D01*
X-395662363Y239681756D01*
X-395662358Y239681752D01*
X-395484025Y239552187D01*
X-395484022Y239552185D01*
X-395421096Y239520122D01*
X-395287606Y239452104D01*
X-395287603Y239452103D01*
X-395077952Y239383985D01*
X-394969086Y239366742D01*
X-394860222Y239349500D01*
X-394860221Y239349500D01*
X-394639779Y239349500D01*
X-394639778Y239349500D01*
X-394567201Y239360995D01*
X-394422047Y239383985D01*
X-394212396Y239452103D01*
X-394212393Y239452104D01*
X-394015974Y239552187D01*
X-393837641Y239681752D01*
X-393837636Y239681756D01*
X-393681756Y239837636D01*
X-393681752Y239837641D01*
X-393552187Y240015974D01*
X-393452104Y240212393D01*
X-393452103Y240212396D01*
X-393383985Y240422047D01*
X-393349500Y240639778D01*
X-393349500Y240860221D01*
X-393383985Y241077952D01*
X-393452103Y241287603D01*
X-393452104Y241287606D01*
X-393520122Y241421096D01*
X-393552185Y241484022D01*
X-393552187Y241484025D01*
X-393681752Y241662358D01*
X-393681756Y241662363D01*
X-393807212Y241787819D01*
X-393840697Y241849142D01*
X-393835713Y241918834D01*
X-393793841Y241974767D01*
X-393728377Y241999184D01*
X-393719531Y241999500D01*
X-362874500Y241999500D01*
X-362807461Y241979815D01*
X-362761706Y241927011D01*
X-362750500Y241875500D01*
X-362750500Y189624500D01*
X-362770185Y189557461D01*
X-362822989Y189511706D01*
X-362874500Y189500500D01*
X-399125500Y189500500D01*
X-399192539Y189520185D01*
X-399238294Y189572989D01*
X-399249500Y189624500D01*
X-399249500Y191610222D01*
X-397400500Y191610222D01*
X-397400500Y191389778D01*
X-397366015Y191172049D01*
X-397336324Y191080667D01*
X-397297896Y190962396D01*
X-397297895Y190962393D01*
X-397263237Y190894375D01*
X-397197815Y190765978D01*
X-397197812Y190765974D01*
X-397068247Y190587641D01*
X-397068243Y190587636D01*
X-396912363Y190431756D01*
X-396912358Y190431752D01*
X-396734025Y190302187D01*
X-396734022Y190302185D01*
X-396671096Y190270122D01*
X-396537606Y190202104D01*
X-396537603Y190202103D01*
X-396327952Y190133985D01*
X-396219086Y190116742D01*
X-396110222Y190099500D01*
X-396110221Y190099500D01*
X-395889779Y190099500D01*
X-395889778Y190099500D01*
X-395817201Y190110995D01*
X-395672047Y190133985D01*
X-395462396Y190202103D01*
X-395462393Y190202104D01*
X-395265974Y190302187D01*
X-395087641Y190431752D01*
X-395087636Y190431756D01*
X-395035521Y190483872D01*
X-394931756Y190587636D01*
X-394931752Y190587641D01*
X-394802187Y190765974D01*
X-394702104Y190962393D01*
X-394702103Y190962396D01*
X-394633985Y191172047D01*
X-394599500Y191389778D01*
X-394599500Y191610221D01*
X-394633985Y191827952D01*
X-394702103Y192037603D01*
X-394702104Y192037606D01*
X-394770122Y192171096D01*
X-394802185Y192234022D01*
X-394802187Y192234025D01*
X-394931752Y192412358D01*
X-394931756Y192412363D01*
X-395087636Y192568243D01*
X-395087641Y192568247D01*
X-395265974Y192697812D01*
X-395265978Y192697815D01*
X-395394375Y192763237D01*
X-395462393Y192797895D01*
X-395462396Y192797896D01*
X-395598707Y192842185D01*
X-395672049Y192866015D01*
X-395889778Y192900500D01*
X-396110222Y192900500D01*
X-396327951Y192866015D01*
X-396537606Y192797895D01*
X-396734022Y192697815D01*
X-396912365Y192568242D01*
X-397068242Y192412365D01*
X-397197815Y192234022D01*
X-397297895Y192037606D01*
X-397366015Y191827951D01*
X-397400500Y191610222D01*
X-399249500Y191610222D01*
X-399249500Y194150222D01*
X-374400500Y194150222D01*
X-374400500Y193929778D01*
X-374366015Y193712049D01*
X-374366014Y193712047D01*
X-374297896Y193502396D01*
X-374297895Y193502393D01*
X-374263237Y193434375D01*
X-374197815Y193305978D01*
X-374197812Y193305974D01*
X-374068247Y193127641D01*
X-374068243Y193127636D01*
X-373912363Y192971756D01*
X-373912358Y192971752D01*
X-373772319Y192870008D01*
X-373729653Y192814678D01*
X-373723674Y192745065D01*
X-373756279Y192683270D01*
X-373772319Y192669372D01*
X-373797513Y192651066D01*
X-373797514Y192651066D01*
X-373088585Y191942138D01*
X-373173694Y191919333D01*
X-373276306Y191860090D01*
X-373360090Y191776306D01*
X-373419333Y191673694D01*
X-373442137Y191588585D01*
X-374151066Y192297514D01*
X-374151066Y192297513D01*
X-374197386Y192233760D01*
X-374297432Y192037410D01*
X-374365526Y191827835D01*
X-374400000Y191610181D01*
X-374400000Y191389818D01*
X-374365526Y191172164D01*
X-374297432Y190962589D01*
X-374197388Y190766243D01*
X-374151066Y190702485D01*
X-374151065Y190702485D01*
X-373442137Y191411413D01*
X-373419333Y191326306D01*
X-373360090Y191223694D01*
X-373276306Y191139910D01*
X-373173694Y191080667D01*
X-373088584Y191057861D01*
X-373797513Y190348932D01*
X-373733756Y190302611D01*
X-373537410Y190202567D01*
X-373327835Y190134473D01*
X-373110181Y190100000D01*
X-372889819Y190100000D01*
X-372672164Y190134473D01*
X-372462589Y190202567D01*
X-372266233Y190302616D01*
X-372202485Y190348931D01*
X-372202485Y190348932D01*
X-372911415Y191057861D01*
X-372826306Y191080667D01*
X-372723694Y191139910D01*
X-372639910Y191223694D01*
X-372580667Y191326306D01*
X-372557861Y191411414D01*
X-371848932Y190702485D01*
X-371848931Y190702485D01*
X-371802616Y190766233D01*
X-371702567Y190962589D01*
X-371634473Y191172164D01*
X-371600000Y191389818D01*
X-371600000Y191610181D01*
X-371634473Y191827835D01*
X-371702567Y192037410D01*
X-371802611Y192233756D01*
X-371848932Y192297513D01*
X-372557861Y191588584D01*
X-372580667Y191673694D01*
X-372639910Y191776306D01*
X-372723694Y191860090D01*
X-372826306Y191919333D01*
X-372911414Y191942137D01*
X-372202485Y192651065D01*
X-372202485Y192651066D01*
X-372227680Y192669371D01*
X-372270346Y192724701D01*
X-372276325Y192794314D01*
X-372243720Y192856110D01*
X-372227681Y192870008D01*
X-372087636Y192971756D01*
X-371931756Y193127636D01*
X-371931752Y193127641D01*
X-371802187Y193305974D01*
X-371702104Y193502393D01*
X-371702103Y193502396D01*
X-371633985Y193712047D01*
X-371599500Y193929778D01*
X-371599500Y194150221D01*
X-371633985Y194367952D01*
X-371702103Y194577603D01*
X-371702104Y194577606D01*
X-371802187Y194774025D01*
X-371931752Y194952358D01*
X-371931756Y194952363D01*
X-372087636Y195108243D01*
X-372087641Y195108247D01*
X-372265974Y195237812D01*
X-372265978Y195237815D01*
X-372394375Y195303237D01*
X-372462393Y195337895D01*
X-372462396Y195337896D01*
X-372567221Y195371955D01*
X-372672049Y195406015D01*
X-372889778Y195440500D01*
X-373110222Y195440500D01*
X-373327951Y195406015D01*
X-373537606Y195337895D01*
X-373734022Y195237815D01*
X-373912365Y195108242D01*
X-374068242Y194952365D01*
X-374197815Y194774022D01*
X-374297895Y194577606D01*
X-374366015Y194367951D01*
X-374400500Y194150222D01*
X-399249500Y194150222D01*
X-399249500Y201110222D01*
X-368650500Y201110222D01*
X-368650500Y200889778D01*
X-368616015Y200672049D01*
X-368616014Y200672047D01*
X-368547896Y200462396D01*
X-368547895Y200462393D01*
X-368520000Y200407647D01*
X-368447815Y200265978D01*
X-368447812Y200265974D01*
X-368318247Y200087641D01*
X-368318243Y200087636D01*
X-368162363Y199931756D01*
X-368162358Y199931752D01*
X-367984025Y199802187D01*
X-367984022Y199802185D01*
X-367921096Y199770122D01*
X-367787606Y199702104D01*
X-367787603Y199702103D01*
X-367577952Y199633985D01*
X-367469086Y199616742D01*
X-367360222Y199599500D01*
X-367360221Y199599500D01*
X-367139779Y199599500D01*
X-367139778Y199599500D01*
X-367067201Y199610995D01*
X-366922047Y199633985D01*
X-366712396Y199702103D01*
X-366712393Y199702104D01*
X-366515974Y199802187D01*
X-366337641Y199931752D01*
X-366337636Y199931756D01*
X-366181756Y200087636D01*
X-366181752Y200087641D01*
X-366080318Y200227254D01*
X-366024988Y200269920D01*
X-365955375Y200275899D01*
X-365893580Y200243293D01*
X-365879682Y200227254D01*
X-365778247Y200087641D01*
X-365778243Y200087636D01*
X-365622363Y199931756D01*
X-365622358Y199931752D01*
X-365444025Y199802187D01*
X-365444022Y199802185D01*
X-365381096Y199770122D01*
X-365247606Y199702104D01*
X-365247603Y199702103D01*
X-365037952Y199633985D01*
X-364929086Y199616742D01*
X-364820222Y199599500D01*
X-364820221Y199599500D01*
X-364599779Y199599500D01*
X-364599778Y199599500D01*
X-364527201Y199610995D01*
X-364382047Y199633985D01*
X-364172396Y199702103D01*
X-364172393Y199702104D01*
X-363975974Y199802187D01*
X-363797641Y199931752D01*
X-363797636Y199931756D01*
X-363641756Y200087636D01*
X-363641752Y200087641D01*
X-363512187Y200265974D01*
X-363412104Y200462393D01*
X-363412103Y200462396D01*
X-363343985Y200672047D01*
X-363309500Y200889778D01*
X-363309500Y201110221D01*
X-363343985Y201327952D01*
X-363412103Y201537603D01*
X-363412104Y201537606D01*
X-363480122Y201671096D01*
X-363512185Y201734022D01*
X-363532648Y201762187D01*
X-363641752Y201912358D01*
X-363641756Y201912363D01*
X-363797636Y202068243D01*
X-363797641Y202068247D01*
X-363975974Y202197812D01*
X-363975978Y202197815D01*
X-364104375Y202263237D01*
X-364172393Y202297895D01*
X-364172396Y202297896D01*
X-364277221Y202331955D01*
X-364382049Y202366015D01*
X-364599778Y202400500D01*
X-364820222Y202400500D01*
X-365037951Y202366015D01*
X-365247606Y202297895D01*
X-365444022Y202197815D01*
X-365622365Y202068242D01*
X-365778242Y201912365D01*
X-365778243Y201912363D01*
X-365778247Y201912358D01*
X-365879682Y201772745D01*
X-365935011Y201730079D01*
X-366004625Y201724100D01*
X-366066420Y201756705D01*
X-366080318Y201772745D01*
X-366181752Y201912358D01*
X-366181756Y201912363D01*
X-366337636Y202068243D01*
X-366337641Y202068247D01*
X-366515974Y202197812D01*
X-366515978Y202197815D01*
X-366644375Y202263237D01*
X-366712393Y202297895D01*
X-366712396Y202297896D01*
X-366817221Y202331955D01*
X-366922049Y202366015D01*
X-367139778Y202400500D01*
X-367360222Y202400500D01*
X-367577951Y202366015D01*
X-367787606Y202297895D01*
X-367984022Y202197815D01*
X-368162365Y202068242D01*
X-368318242Y201912365D01*
X-368447815Y201734022D01*
X-368547895Y201537606D01*
X-368616015Y201327951D01*
X-368650500Y201110222D01*
X-399249500Y201110222D01*
X-399249500Y205610222D01*
X-397400500Y205610222D01*
X-397400500Y205389778D01*
X-397366015Y205172049D01*
X-397366014Y205172047D01*
X-397297896Y204962396D01*
X-397297895Y204962393D01*
X-397263237Y204894375D01*
X-397197815Y204765978D01*
X-397197812Y204765974D01*
X-397068247Y204587641D01*
X-397068243Y204587636D01*
X-396912363Y204431756D01*
X-396912358Y204431752D01*
X-396772744Y204330318D01*
X-396734022Y204302185D01*
X-396680647Y204274989D01*
X-396537606Y204202104D01*
X-396537603Y204202103D01*
X-396327952Y204133985D01*
X-396219086Y204116742D01*
X-396110222Y204099500D01*
X-396110221Y204099500D01*
X-395889779Y204099500D01*
X-395889778Y204099500D01*
X-395817201Y204110995D01*
X-395672047Y204133985D01*
X-395462396Y204202103D01*
X-395462393Y204202104D01*
X-395265974Y204302187D01*
X-395087641Y204431752D01*
X-395087636Y204431756D01*
X-394931756Y204587636D01*
X-394931752Y204587641D01*
X-394802187Y204765974D01*
X-394702104Y204962393D01*
X-394702103Y204962396D01*
X-394633985Y205172047D01*
X-394599500Y205389778D01*
X-394599500Y205610221D01*
X-394599500Y205610222D01*
X-374400500Y205610222D01*
X-374400500Y205389778D01*
X-374366015Y205172049D01*
X-374366014Y205172047D01*
X-374297896Y204962396D01*
X-374297895Y204962393D01*
X-374263237Y204894375D01*
X-374197815Y204765978D01*
X-374197812Y204765974D01*
X-374068247Y204587641D01*
X-374068243Y204587636D01*
X-373912363Y204431756D01*
X-373912358Y204431752D01*
X-373772745Y204330318D01*
X-373730079Y204274989D01*
X-373724100Y204205375D01*
X-373756705Y204143580D01*
X-373772745Y204129682D01*
X-373897826Y204038804D01*
X-373912365Y204028242D01*
X-374068242Y203872365D01*
X-374197815Y203694022D01*
X-374297895Y203497606D01*
X-374366015Y203287951D01*
X-374400500Y203070222D01*
X-374400500Y202849778D01*
X-374366015Y202632049D01*
X-374366014Y202632047D01*
X-374297896Y202422396D01*
X-374297895Y202422393D01*
X-374269168Y202366015D01*
X-374197815Y202225978D01*
X-374197812Y202225974D01*
X-374068247Y202047641D01*
X-374068243Y202047636D01*
X-373912363Y201891756D01*
X-373912358Y201891752D01*
X-373748557Y201772745D01*
X-373734022Y201762185D01*
X-373671096Y201730122D01*
X-373537606Y201662104D01*
X-373537603Y201662103D01*
X-373327952Y201593985D01*
X-373219086Y201576742D01*
X-373110222Y201559500D01*
X-373110221Y201559500D01*
X-372889779Y201559500D01*
X-372889778Y201559500D01*
X-372817201Y201570995D01*
X-372672047Y201593985D01*
X-372462396Y201662103D01*
X-372462393Y201662104D01*
X-372265974Y201762187D01*
X-372087641Y201891752D01*
X-372087636Y201891756D01*
X-371931756Y202047636D01*
X-371931752Y202047641D01*
X-371802187Y202225974D01*
X-371702104Y202422393D01*
X-371702103Y202422396D01*
X-371633985Y202632047D01*
X-371599500Y202849778D01*
X-371599500Y203070221D01*
X-371633985Y203287952D01*
X-371702103Y203497603D01*
X-371702104Y203497606D01*
X-371802187Y203694025D01*
X-371931752Y203872358D01*
X-371931756Y203872363D01*
X-372087636Y204028243D01*
X-372087641Y204028247D01*
X-372227254Y204129682D01*
X-372269920Y204185012D01*
X-372275899Y204254625D01*
X-372243293Y204316420D01*
X-372227254Y204330318D01*
X-372087641Y204431752D01*
X-372087636Y204431756D01*
X-371931756Y204587636D01*
X-371931752Y204587641D01*
X-371802187Y204765974D01*
X-371702104Y204962393D01*
X-371702103Y204962396D01*
X-371633985Y205172047D01*
X-371599500Y205389778D01*
X-371599500Y205610221D01*
X-371602484Y205629059D01*
X-371633985Y205827951D01*
X-371633985Y205827952D01*
X-371702103Y206037603D01*
X-371702104Y206037606D01*
X-371802187Y206234025D01*
X-371931752Y206412358D01*
X-371931756Y206412363D01*
X-372087636Y206568243D01*
X-372087641Y206568247D01*
X-372265974Y206697812D01*
X-372265978Y206697815D01*
X-372444678Y206788868D01*
X-372444679Y206788869D01*
X-372462389Y206797893D01*
X-372462396Y206797896D01*
X-372567221Y206831955D01*
X-372672049Y206866015D01*
X-372851807Y206894486D01*
X-367350500Y206894486D01*
X-367350500Y206705513D01*
X-367320940Y206518881D01*
X-367262545Y206339163D01*
X-367217290Y206250347D01*
X-367176760Y206170801D01*
X-367065690Y206017927D01*
X-366932073Y205884310D01*
X-366779199Y205773240D01*
X-366610836Y205687454D01*
X-366431118Y205629059D01*
X-366244486Y205599500D01*
X-366244481Y205599500D01*
X-366055514Y205599500D01*
X-365868881Y205629059D01*
X-365689163Y205687454D01*
X-365520800Y205773240D01*
X-365433579Y205836610D01*
X-365367927Y205884310D01*
X-365367925Y205884312D01*
X-365367924Y205884312D01*
X-365234312Y206017924D01*
X-365234312Y206017925D01*
X-365234310Y206017927D01*
X-365186610Y206083579D01*
X-365123240Y206170800D01*
X-365037454Y206339163D01*
X-364979059Y206518881D01*
X-364949500Y206705513D01*
X-364949500Y206894486D01*
X-364979059Y207081118D01*
X-365037454Y207260836D01*
X-365123240Y207429199D01*
X-365234310Y207582073D01*
X-365367927Y207715690D01*
X-365520801Y207826760D01*
X-365600347Y207867290D01*
X-365689163Y207912545D01*
X-365689165Y207912545D01*
X-365689168Y207912547D01*
X-365785497Y207943846D01*
X-365868881Y207970940D01*
X-366055514Y208000500D01*
X-366055519Y208000500D01*
X-366244481Y208000500D01*
X-366244486Y208000500D01*
X-366431118Y207970940D01*
X-366610832Y207912547D01*
X-366779199Y207826760D01*
X-366932073Y207715690D01*
X-367065690Y207582073D01*
X-367176760Y207429199D01*
X-367262547Y207260832D01*
X-367320940Y207081118D01*
X-367350500Y206894486D01*
X-372851807Y206894486D01*
X-372889778Y206900500D01*
X-373110222Y206900500D01*
X-373327951Y206866015D01*
X-373537606Y206797895D01*
X-373734022Y206697815D01*
X-373912365Y206568242D01*
X-374068242Y206412365D01*
X-374197815Y206234022D01*
X-374297895Y206037606D01*
X-374366015Y205827951D01*
X-374400500Y205610222D01*
X-394599500Y205610222D01*
X-394602484Y205629059D01*
X-394633985Y205827951D01*
X-394633985Y205827952D01*
X-394702103Y206037603D01*
X-394702104Y206037606D01*
X-394802187Y206234025D01*
X-394931752Y206412358D01*
X-394931756Y206412363D01*
X-395087636Y206568243D01*
X-395087641Y206568247D01*
X-395265974Y206697812D01*
X-395265978Y206697815D01*
X-395394375Y206763237D01*
X-395462393Y206797895D01*
X-395462396Y206797896D01*
X-395567221Y206831955D01*
X-395672049Y206866015D01*
X-395889778Y206900500D01*
X-396110222Y206900500D01*
X-396327951Y206866015D01*
X-396537606Y206797895D01*
X-396734022Y206697815D01*
X-396912365Y206568242D01*
X-397068242Y206412365D01*
X-397197815Y206234022D01*
X-397297895Y206037606D01*
X-397366015Y205827951D01*
X-397400500Y205610222D01*
X-399249500Y205610222D01*
X-399249500Y210610181D01*
X-398900000Y210610181D01*
X-398900000Y210389818D01*
X-398865526Y210172164D01*
X-398797432Y209962589D01*
X-398697388Y209766243D01*
X-398651066Y209702485D01*
X-398651065Y209702485D01*
X-397942137Y210411413D01*
X-397919333Y210326306D01*
X-397860090Y210223694D01*
X-397776306Y210139910D01*
X-397673694Y210080667D01*
X-397588584Y210057861D01*
X-398297513Y209348932D01*
X-398233756Y209302611D01*
X-398037410Y209202567D01*
X-397827835Y209134473D01*
X-397610181Y209100000D01*
X-397389819Y209100000D01*
X-397172164Y209134473D01*
X-396962589Y209202567D01*
X-396766233Y209302616D01*
X-396702485Y209348931D01*
X-396702485Y209348932D01*
X-397411415Y210057861D01*
X-397326306Y210080667D01*
X-397223694Y210139910D01*
X-397139910Y210223694D01*
X-397080667Y210326306D01*
X-397057861Y210411414D01*
X-396348932Y209702485D01*
X-396348931Y209702485D01*
X-396302616Y209766233D01*
X-396202567Y209962589D01*
X-396134473Y210172164D01*
X-396100000Y210389818D01*
X-396100000Y210610181D01*
X-396100006Y210610222D01*
X-394400500Y210610222D01*
X-394400500Y210389778D01*
X-394366015Y210172049D01*
X-394351462Y210127259D01*
X-394297896Y209962396D01*
X-394297895Y209962393D01*
X-394294458Y209955648D01*
X-394197815Y209765978D01*
X-394197812Y209765974D01*
X-394068247Y209587641D01*
X-394068243Y209587636D01*
X-393912363Y209431756D01*
X-393912358Y209431752D01*
X-393734025Y209302187D01*
X-393734022Y209302185D01*
X-393671096Y209270122D01*
X-393537606Y209202104D01*
X-393537603Y209202103D01*
X-393327952Y209133985D01*
X-393219086Y209116742D01*
X-393110222Y209099500D01*
X-393110221Y209099500D01*
X-392889779Y209099500D01*
X-392889778Y209099500D01*
X-392817201Y209110995D01*
X-392672047Y209133985D01*
X-392462396Y209202103D01*
X-392462393Y209202104D01*
X-392265974Y209302187D01*
X-392087641Y209431752D01*
X-392087636Y209431756D01*
X-391963928Y209555465D01*
X-391931756Y209587636D01*
X-391931752Y209587641D01*
X-391802187Y209765974D01*
X-391702104Y209962393D01*
X-391702103Y209962396D01*
X-391633985Y210172047D01*
X-391599500Y210389778D01*
X-391599500Y210602317D01*
X-386420000Y210602317D01*
X-386420000Y210397682D01*
X-386387990Y210195582D01*
X-386324755Y210000968D01*
X-386231859Y209818650D01*
X-386199474Y209774077D01*
X-386199474Y209774076D01*
X-385520000Y210453551D01*
X-385520000Y210447339D01*
X-385492741Y210345606D01*
X-385440080Y210254394D01*
X-385365606Y210179920D01*
X-385274394Y210127259D01*
X-385172661Y210100000D01*
X-385166446Y210100000D01*
X-385845922Y209420524D01*
X-385845921Y209420523D01*
X-385801359Y209388147D01*
X-385801350Y209388141D01*
X-385619031Y209295244D01*
X-385424417Y209232009D01*
X-385222317Y209200000D01*
X-385017683Y209200000D01*
X-384815582Y209232009D01*
X-384620968Y209295244D01*
X-384438644Y209388143D01*
X-384394077Y209420523D01*
X-384394077Y209420524D01*
X-385073554Y210100000D01*
X-385067339Y210100000D01*
X-384965606Y210127259D01*
X-384874394Y210179920D01*
X-384799920Y210254394D01*
X-384747259Y210345606D01*
X-384720000Y210447339D01*
X-384720000Y210453553D01*
X-384040524Y209774077D01*
X-384040523Y209774077D01*
X-384008143Y209818644D01*
X-383915244Y210000968D01*
X-383852009Y210195582D01*
X-383820000Y210397682D01*
X-383820000Y210602317D01*
X-383820005Y210602351D01*
X-378800500Y210602351D01*
X-378800500Y210397648D01*
X-378768477Y210195465D01*
X-378750426Y210139910D01*
X-378705281Y210000968D01*
X-378705218Y210000776D01*
X-378682224Y209955649D01*
X-378612287Y209818390D01*
X-378612284Y209818386D01*
X-378491971Y209652786D01*
X-378347213Y209508028D01*
X-378182202Y209388143D01*
X-378181610Y209387713D01*
X-378124653Y209358691D01*
X-377999223Y209294781D01*
X-377804534Y209231522D01*
X-377629995Y209203878D01*
X-377602352Y209199500D01*
X-377602351Y209199500D01*
X-377397649Y209199500D01*
X-377397648Y209199500D01*
X-377373329Y209203351D01*
X-377195465Y209231522D01*
X-377000776Y209294781D01*
X-376818386Y209387715D01*
X-376652786Y209508028D01*
X-376508028Y209652786D01*
X-376387715Y209818386D01*
X-376348940Y209894486D01*
X-367350500Y209894486D01*
X-367350500Y209705513D01*
X-367320940Y209518881D01*
X-367293846Y209435497D01*
X-367265720Y209348932D01*
X-367262545Y209339163D01*
X-367217290Y209250347D01*
X-367176760Y209170801D01*
X-367065690Y209017927D01*
X-366932073Y208884310D01*
X-366779199Y208773240D01*
X-366610836Y208687454D01*
X-366431118Y208629059D01*
X-366244486Y208599500D01*
X-366244481Y208599500D01*
X-366055514Y208599500D01*
X-365868881Y208629059D01*
X-365689163Y208687454D01*
X-365520800Y208773240D01*
X-365433579Y208836610D01*
X-365367927Y208884310D01*
X-365367925Y208884312D01*
X-365367924Y208884312D01*
X-365234312Y209017924D01*
X-365234312Y209017925D01*
X-365234310Y209017927D01*
X-365174680Y209100000D01*
X-365123240Y209170800D01*
X-365037454Y209339163D01*
X-364979059Y209518881D01*
X-364949500Y209705513D01*
X-364949500Y209894486D01*
X-364979059Y210081118D01*
X-365037454Y210260836D01*
X-365123240Y210429199D01*
X-365136420Y210447339D01*
X-365234310Y210582073D01*
X-365367927Y210715690D01*
X-365520801Y210826760D01*
X-365611044Y210872741D01*
X-365689163Y210912545D01*
X-365689165Y210912545D01*
X-365689168Y210912547D01*
X-365804436Y210950000D01*
X-365868881Y210970940D01*
X-366055514Y211000500D01*
X-366055519Y211000500D01*
X-366244481Y211000500D01*
X-366244486Y211000500D01*
X-366431118Y210970940D01*
X-366610832Y210912547D01*
X-366779199Y210826760D01*
X-366932073Y210715690D01*
X-367065690Y210582073D01*
X-367176760Y210429199D01*
X-367262547Y210260832D01*
X-367301837Y210139910D01*
X-367320940Y210081118D01*
X-367350500Y209894486D01*
X-376348940Y209894486D01*
X-376317776Y209955648D01*
X-376317774Y209955649D01*
X-376294782Y210000773D01*
X-376231522Y210195465D01*
X-376199500Y210397648D01*
X-376199500Y210602351D01*
X-376231522Y210804534D01*
X-376294781Y210999223D01*
X-376387581Y211181350D01*
X-376387713Y211181610D01*
X-376387715Y211181613D01*
X-376508028Y211347213D01*
X-376652786Y211491971D01*
X-376818386Y211612284D01*
X-376818390Y211612287D01*
X-376965913Y211687454D01*
X-377000776Y211705218D01*
X-377000778Y211705218D01*
X-377000781Y211705220D01*
X-377116477Y211742812D01*
X-377195465Y211768477D01*
X-377296557Y211784488D01*
X-377397648Y211800500D01*
X-377602352Y211800500D01*
X-377804534Y211768477D01*
X-377999219Y211705220D01*
X-378181610Y211612287D01*
X-378242233Y211568242D01*
X-378347213Y211491971D01*
X-378347215Y211491968D01*
X-378347219Y211491966D01*
X-378491966Y211347219D01*
X-378491968Y211347215D01*
X-378491971Y211347213D01*
X-378528079Y211297514D01*
X-378612287Y211181610D01*
X-378705220Y210999219D01*
X-378733381Y210912547D01*
X-378768477Y210804534D01*
X-378800500Y210602351D01*
X-383820005Y210602351D01*
X-383852009Y210804417D01*
X-383915244Y210999031D01*
X-384008141Y211181350D01*
X-384008147Y211181359D01*
X-384040523Y211225921D01*
X-384040524Y211225922D01*
X-384720000Y210546446D01*
X-384720000Y210552661D01*
X-384747259Y210654394D01*
X-384799920Y210745606D01*
X-384874394Y210820080D01*
X-384965606Y210872741D01*
X-385067339Y210900000D01*
X-385073553Y210900000D01*
X-384394076Y211579474D01*
X-384438650Y211611859D01*
X-384620968Y211704755D01*
X-384815582Y211767990D01*
X-385017683Y211800000D01*
X-385222317Y211800000D01*
X-385424417Y211767990D01*
X-385619031Y211704755D01*
X-385801349Y211611859D01*
X-385845921Y211579474D01*
X-385166447Y210900000D01*
X-385172661Y210900000D01*
X-385274394Y210872741D01*
X-385365606Y210820080D01*
X-385440080Y210745606D01*
X-385492741Y210654394D01*
X-385520000Y210552661D01*
X-385520000Y210546448D01*
X-386199474Y211225922D01*
X-386199474Y211225921D01*
X-386231859Y211181349D01*
X-386324755Y210999031D01*
X-386387990Y210804417D01*
X-386420000Y210602317D01*
X-391599500Y210602317D01*
X-391599500Y210610221D01*
X-391633985Y210827952D01*
X-391702103Y211037603D01*
X-391702104Y211037606D01*
X-391770122Y211171096D01*
X-391802185Y211234022D01*
X-391802187Y211234025D01*
X-391931752Y211412358D01*
X-391931756Y211412363D01*
X-392087636Y211568243D01*
X-392087641Y211568247D01*
X-392265974Y211697812D01*
X-392265978Y211697815D01*
X-392403703Y211767990D01*
X-392462393Y211797895D01*
X-392462396Y211797896D01*
X-392567221Y211831955D01*
X-392672049Y211866015D01*
X-392889778Y211900500D01*
X-393110222Y211900500D01*
X-393327951Y211866015D01*
X-393537606Y211797895D01*
X-393734022Y211697815D01*
X-393912365Y211568242D01*
X-394068242Y211412365D01*
X-394197815Y211234022D01*
X-394297895Y211037606D01*
X-394366015Y210827951D01*
X-394400500Y210610222D01*
X-396100006Y210610222D01*
X-396134473Y210827835D01*
X-396202567Y211037410D01*
X-396302611Y211233756D01*
X-396348932Y211297513D01*
X-397057861Y210588584D01*
X-397080667Y210673694D01*
X-397139910Y210776306D01*
X-397223694Y210860090D01*
X-397326306Y210919333D01*
X-397411414Y210942137D01*
X-396702485Y211651065D01*
X-396702485Y211651066D01*
X-396766243Y211697388D01*
X-396962589Y211797432D01*
X-397172164Y211865526D01*
X-397389819Y211900000D01*
X-397610181Y211900000D01*
X-397827835Y211865526D01*
X-398037410Y211797432D01*
X-398233760Y211697386D01*
X-398297513Y211651066D01*
X-398297514Y211651066D01*
X-397588585Y210942138D01*
X-397673694Y210919333D01*
X-397776306Y210860090D01*
X-397860090Y210776306D01*
X-397919333Y210673694D01*
X-397942137Y210588585D01*
X-398651066Y211297514D01*
X-398651066Y211297513D01*
X-398697386Y211233760D01*
X-398797432Y211037410D01*
X-398865526Y210827835D01*
X-398900000Y210610181D01*
X-399249500Y210610181D01*
X-399249500Y214102351D01*
X-386420500Y214102351D01*
X-386420500Y213897648D01*
X-386388477Y213695465D01*
X-386325218Y213500776D01*
X-386299346Y213450000D01*
X-386232287Y213318390D01*
X-386232284Y213318386D01*
X-386111971Y213152786D01*
X-385967213Y213008028D01*
X-385801613Y212887715D01*
X-385801610Y212887713D01*
X-385744653Y212858691D01*
X-385619223Y212794781D01*
X-385424534Y212731522D01*
X-385260354Y212705519D01*
X-385222352Y212699500D01*
X-385222351Y212699500D01*
X-385017649Y212699500D01*
X-385017648Y212699500D01*
X-384993329Y212703351D01*
X-384815465Y212731522D01*
X-384620776Y212794781D01*
X-384438386Y212887715D01*
X-384272786Y213008028D01*
X-384128028Y213152786D01*
X-384007715Y213318386D01*
X-383914781Y213500776D01*
X-383851522Y213695465D01*
X-383819500Y213897648D01*
X-383819500Y214102351D01*
X-378800500Y214102351D01*
X-378800500Y213897648D01*
X-378768477Y213695465D01*
X-378705218Y213500776D01*
X-378679346Y213450000D01*
X-378612287Y213318390D01*
X-378612284Y213318386D01*
X-378491971Y213152786D01*
X-378347213Y213008028D01*
X-378181613Y212887715D01*
X-378181610Y212887713D01*
X-378124653Y212858691D01*
X-377999223Y212794781D01*
X-377804534Y212731522D01*
X-377640354Y212705519D01*
X-377602352Y212699500D01*
X-377602351Y212699500D01*
X-377397649Y212699500D01*
X-377397648Y212699500D01*
X-377373329Y212703351D01*
X-377195465Y212731522D01*
X-377000776Y212794781D01*
X-376818386Y212887715D01*
X-376799165Y212901680D01*
X-376652786Y213008028D01*
X-376508028Y213152786D01*
X-376387715Y213318386D01*
X-376294781Y213500776D01*
X-376231522Y213695465D01*
X-376199500Y213897648D01*
X-376199500Y213947827D01*
X-375120000Y213947827D01*
X-375120000Y213250000D01*
X-374095278Y213250000D01*
X-374139333Y213173694D01*
X-374170000Y213059244D01*
X-374170000Y212940756D01*
X-374139333Y212826306D01*
X-374095278Y212750000D01*
X-375120000Y212750000D01*
X-375120000Y212052172D01*
X-375119999Y212052155D01*
X-375113598Y211992627D01*
X-375113596Y211992620D01*
X-375063354Y211857913D01*
X-375063350Y211857906D01*
X-374977190Y211742812D01*
X-374977187Y211742809D01*
X-374862093Y211656649D01*
X-374862086Y211656645D01*
X-374727379Y211606403D01*
X-374727372Y211606401D01*
X-374667844Y211600000D01*
X-373970000Y211600000D01*
X-373970000Y212624722D01*
X-373893694Y212580667D01*
X-373779244Y212550000D01*
X-373660756Y212550000D01*
X-373546306Y212580667D01*
X-373470000Y212624722D01*
X-373470000Y211600000D01*
X-372772155Y211600000D01*
X-372712627Y211606401D01*
X-372712620Y211606403D01*
X-372577913Y211656645D01*
X-372577906Y211656649D01*
X-372462812Y211742809D01*
X-372462809Y211742812D01*
X-372376649Y211857906D01*
X-372376643Y211857918D01*
X-372346785Y211937969D01*
X-372304914Y211993903D01*
X-372239449Y212018319D01*
X-372171176Y212003467D01*
X-372142923Y211982316D01*
X-372092363Y211931756D01*
X-372092358Y211931752D01*
X-371914025Y211802187D01*
X-371914022Y211802185D01*
X-371857215Y211773240D01*
X-371717606Y211702104D01*
X-371717603Y211702103D01*
X-371507952Y211633985D01*
X-371476850Y211629059D01*
X-371290222Y211599500D01*
X-371290221Y211599500D01*
X-371069779Y211599500D01*
X-371069778Y211599500D01*
X-370989044Y211612287D01*
X-370852047Y211633985D01*
X-370642396Y211702103D01*
X-370642393Y211702104D01*
X-370445974Y211802187D01*
X-370267641Y211931752D01*
X-370267636Y211931756D01*
X-370111756Y212087636D01*
X-370111752Y212087641D01*
X-369982187Y212265974D01*
X-369882104Y212462393D01*
X-369882103Y212462396D01*
X-369813985Y212672047D01*
X-369779500Y212889778D01*
X-369779500Y212894486D01*
X-367350500Y212894486D01*
X-367350500Y212705513D01*
X-367320940Y212518881D01*
X-367262545Y212339163D01*
X-367225255Y212265978D01*
X-367176760Y212170801D01*
X-367065690Y212017927D01*
X-366932073Y211884310D01*
X-366812496Y211797432D01*
X-366779199Y211773240D01*
X-366610836Y211687454D01*
X-366431118Y211629059D01*
X-366244486Y211599500D01*
X-366244481Y211599500D01*
X-366055514Y211599500D01*
X-365868881Y211629059D01*
X-365689163Y211687454D01*
X-365520800Y211773240D01*
X-365404269Y211857906D01*
X-365367927Y211884310D01*
X-365367925Y211884312D01*
X-365367924Y211884312D01*
X-365234312Y212017924D01*
X-365234312Y212017925D01*
X-365234310Y212017927D01*
X-365183660Y212087641D01*
X-365123240Y212170800D01*
X-365037454Y212339163D01*
X-364979059Y212518881D01*
X-364949500Y212705513D01*
X-364949500Y212894486D01*
X-364979059Y213081118D01*
X-365037454Y213260836D01*
X-365123240Y213429199D01*
X-365138353Y213450000D01*
X-365234310Y213582073D01*
X-365367927Y213715690D01*
X-365520801Y213826760D01*
X-365600347Y213867290D01*
X-365689163Y213912545D01*
X-365689165Y213912545D01*
X-365689168Y213912547D01*
X-365797800Y213947844D01*
X-365868881Y213970940D01*
X-366055514Y214000500D01*
X-366055519Y214000500D01*
X-366244481Y214000500D01*
X-366244486Y214000500D01*
X-366431118Y213970940D01*
X-366610832Y213912547D01*
X-366779199Y213826760D01*
X-366932073Y213715690D01*
X-367065690Y213582073D01*
X-367176760Y213429199D01*
X-367262547Y213260832D01*
X-367297655Y213152781D01*
X-367320940Y213081118D01*
X-367350500Y212894486D01*
X-369779500Y212894486D01*
X-369779500Y213110221D01*
X-369786242Y213152786D01*
X-369813985Y213327951D01*
X-369843676Y213419333D01*
X-369882103Y213537603D01*
X-369882104Y213537606D01*
X-369972843Y213715687D01*
X-369982185Y213734022D01*
X-369982187Y213734025D01*
X-370111752Y213912358D01*
X-370111756Y213912363D01*
X-370267636Y214068243D01*
X-370267641Y214068247D01*
X-370445974Y214197812D01*
X-370445978Y214197815D01*
X-370574375Y214263237D01*
X-370642393Y214297895D01*
X-370642396Y214297896D01*
X-370747221Y214331955D01*
X-370852049Y214366015D01*
X-371069778Y214400500D01*
X-371290222Y214400500D01*
X-371507951Y214366015D01*
X-371717606Y214297895D01*
X-371914022Y214197815D01*
X-372092365Y214068242D01*
X-372142924Y214017682D01*
X-372204245Y213984198D01*
X-372273936Y213989182D01*
X-372329870Y214031053D01*
X-372346786Y214062030D01*
X-372376646Y214142087D01*
X-372376649Y214142093D01*
X-372462809Y214257187D01*
X-372462812Y214257190D01*
X-372577906Y214343350D01*
X-372577913Y214343354D01*
X-372712620Y214393596D01*
X-372712627Y214393598D01*
X-372772155Y214399999D01*
X-372772172Y214400000D01*
X-373470000Y214400000D01*
X-373470000Y213375277D01*
X-373546306Y213419333D01*
X-373660756Y213450000D01*
X-373779244Y213450000D01*
X-373893694Y213419333D01*
X-373970000Y213375277D01*
X-373970000Y214400000D01*
X-374667828Y214400000D01*
X-374667844Y214399999D01*
X-374727372Y214393598D01*
X-374727379Y214393596D01*
X-374862086Y214343354D01*
X-374862093Y214343350D01*
X-374977187Y214257190D01*
X-374977190Y214257187D01*
X-375063350Y214142093D01*
X-375063354Y214142086D01*
X-375113596Y214007379D01*
X-375113598Y214007372D01*
X-375119999Y213947844D01*
X-375120000Y213947827D01*
X-376199500Y213947827D01*
X-376199500Y214102351D01*
X-376231522Y214304534D01*
X-376294781Y214499223D01*
X-376387715Y214681613D01*
X-376508028Y214847213D01*
X-376652786Y214991971D01*
X-376818386Y215112284D01*
X-376818390Y215112287D01*
X-376934607Y215171503D01*
X-377000776Y215205218D01*
X-377000778Y215205218D01*
X-377000781Y215205220D01*
X-377105137Y215239127D01*
X-377195465Y215268477D01*
X-377296557Y215284488D01*
X-377397648Y215300500D01*
X-377602352Y215300500D01*
X-377804534Y215268477D01*
X-377999219Y215205220D01*
X-378181610Y215112287D01*
X-378274590Y215044732D01*
X-378347213Y214991971D01*
X-378347215Y214991968D01*
X-378347219Y214991966D01*
X-378491966Y214847219D01*
X-378491968Y214847215D01*
X-378491971Y214847213D01*
X-378544732Y214774590D01*
X-378612287Y214681610D01*
X-378705220Y214499219D01*
X-378768477Y214304534D01*
X-378794205Y214142093D01*
X-378800500Y214102351D01*
X-383819500Y214102351D01*
X-383851522Y214304534D01*
X-383914781Y214499223D01*
X-384007715Y214681613D01*
X-384128028Y214847213D01*
X-384272786Y214991971D01*
X-384438386Y215112284D01*
X-384438390Y215112287D01*
X-384554607Y215171503D01*
X-384620776Y215205218D01*
X-384620778Y215205218D01*
X-384620781Y215205220D01*
X-384725137Y215239127D01*
X-384815465Y215268477D01*
X-384916557Y215284488D01*
X-385017648Y215300500D01*
X-385222352Y215300500D01*
X-385424534Y215268477D01*
X-385619219Y215205220D01*
X-385801610Y215112287D01*
X-385894590Y215044732D01*
X-385967213Y214991971D01*
X-385967215Y214991968D01*
X-385967219Y214991966D01*
X-386111966Y214847219D01*
X-386111968Y214847215D01*
X-386111971Y214847213D01*
X-386164732Y214774590D01*
X-386232287Y214681610D01*
X-386325220Y214499219D01*
X-386388477Y214304534D01*
X-386414205Y214142093D01*
X-386420500Y214102351D01*
X-399249500Y214102351D01*
X-399249500Y217110222D01*
X-398900500Y217110222D01*
X-398900500Y216889778D01*
X-398866015Y216672049D01*
X-398866014Y216672047D01*
X-398797896Y216462396D01*
X-398797895Y216462393D01*
X-398763237Y216394375D01*
X-398697815Y216265978D01*
X-398697812Y216265974D01*
X-398568247Y216087641D01*
X-398568243Y216087636D01*
X-398412363Y215931756D01*
X-398412358Y215931752D01*
X-398234025Y215802187D01*
X-398234022Y215802185D01*
X-398171096Y215770122D01*
X-398037606Y215702104D01*
X-398037603Y215702103D01*
X-397827952Y215633985D01*
X-397719086Y215616742D01*
X-397610222Y215599500D01*
X-397610221Y215599500D01*
X-397389779Y215599500D01*
X-397389778Y215599500D01*
X-397317201Y215610995D01*
X-397172047Y215633985D01*
X-396962396Y215702103D01*
X-396962393Y215702104D01*
X-396765974Y215802187D01*
X-396587641Y215931752D01*
X-396587636Y215931756D01*
X-396431756Y216087636D01*
X-396431752Y216087641D01*
X-396302187Y216265974D01*
X-396202104Y216462393D01*
X-396202103Y216462396D01*
X-396133985Y216672047D01*
X-396099500Y216889778D01*
X-396099500Y217110221D01*
X-396099500Y217110222D01*
X-394400500Y217110222D01*
X-394400500Y216889778D01*
X-394366015Y216672049D01*
X-394366014Y216672047D01*
X-394297896Y216462396D01*
X-394297895Y216462393D01*
X-394263237Y216394375D01*
X-394197815Y216265978D01*
X-394197812Y216265974D01*
X-394068247Y216087641D01*
X-394068243Y216087636D01*
X-393912363Y215931756D01*
X-393912358Y215931752D01*
X-393734025Y215802187D01*
X-393734022Y215802185D01*
X-393671096Y215770122D01*
X-393537606Y215702104D01*
X-393537603Y215702103D01*
X-393327952Y215633985D01*
X-393219086Y215616742D01*
X-393110222Y215599500D01*
X-393110221Y215599500D01*
X-392889779Y215599500D01*
X-392889778Y215599500D01*
X-392817201Y215610995D01*
X-392672047Y215633985D01*
X-392462396Y215702103D01*
X-392462393Y215702104D01*
X-392265974Y215802187D01*
X-392087641Y215931752D01*
X-392087636Y215931756D01*
X-391931756Y216087636D01*
X-391931752Y216087641D01*
X-391802187Y216265974D01*
X-391702104Y216462393D01*
X-391702103Y216462396D01*
X-391633985Y216672047D01*
X-391599500Y216889778D01*
X-391599500Y217110221D01*
X-391633985Y217327952D01*
X-391702103Y217537603D01*
X-391702104Y217537606D01*
X-391802187Y217734025D01*
X-391931752Y217912358D01*
X-391931756Y217912363D01*
X-392087636Y218068243D01*
X-392087641Y218068247D01*
X-392265974Y218197812D01*
X-392265978Y218197815D01*
X-392394375Y218263237D01*
X-392462393Y218297895D01*
X-392462396Y218297896D01*
X-392569333Y218332641D01*
X-392672049Y218366015D01*
X-392889778Y218400500D01*
X-393110222Y218400500D01*
X-393327951Y218366015D01*
X-393537606Y218297895D01*
X-393734022Y218197815D01*
X-393912365Y218068242D01*
X-394068242Y217912365D01*
X-394197815Y217734022D01*
X-394297895Y217537606D01*
X-394366015Y217327951D01*
X-394400500Y217110222D01*
X-396099500Y217110222D01*
X-396133985Y217327952D01*
X-396202103Y217537603D01*
X-396202104Y217537606D01*
X-396302187Y217734025D01*
X-396431752Y217912358D01*
X-396431756Y217912363D01*
X-396587636Y218068243D01*
X-396587641Y218068247D01*
X-396765974Y218197812D01*
X-396765978Y218197815D01*
X-396894375Y218263237D01*
X-396962393Y218297895D01*
X-396962396Y218297896D01*
X-397069333Y218332641D01*
X-397172049Y218366015D01*
X-397389778Y218400500D01*
X-397610222Y218400500D01*
X-397827951Y218366015D01*
X-398037606Y218297895D01*
X-398234022Y218197815D01*
X-398412365Y218068242D01*
X-398568242Y217912365D01*
X-398697815Y217734022D01*
X-398797895Y217537606D01*
X-398866015Y217327951D01*
X-398900500Y217110222D01*
X-399249500Y217110222D01*
X-399249500Y237640222D01*
X-384900500Y237640222D01*
X-384900500Y237419778D01*
X-384866015Y237202049D01*
X-384831955Y237097221D01*
X-384797896Y236992396D01*
X-384797895Y236992393D01*
X-384763237Y236924375D01*
X-384697815Y236795978D01*
X-384697812Y236795974D01*
X-384568247Y236617641D01*
X-384568243Y236617636D01*
X-384412363Y236461756D01*
X-384412358Y236461752D01*
X-384272745Y236360318D01*
X-384230079Y236304989D01*
X-384224100Y236235375D01*
X-384256705Y236173580D01*
X-384272745Y236159682D01*
X-384397826Y236068804D01*
X-384412365Y236058242D01*
X-384568242Y235902365D01*
X-384697815Y235724022D01*
X-384797895Y235527606D01*
X-384866015Y235317951D01*
X-384900500Y235100222D01*
X-384900500Y234879778D01*
X-384866015Y234662049D01*
X-384831955Y234557221D01*
X-384797896Y234452396D01*
X-384797895Y234452393D01*
X-384784322Y234425756D01*
X-384697815Y234255978D01*
X-384697812Y234255974D01*
X-384568247Y234077641D01*
X-384568243Y234077636D01*
X-384412363Y233921756D01*
X-384412358Y233921752D01*
X-384272745Y233820318D01*
X-384230079Y233764989D01*
X-384224100Y233695375D01*
X-384256705Y233633580D01*
X-384272745Y233619682D01*
X-384397826Y233528804D01*
X-384412365Y233518242D01*
X-384568242Y233362365D01*
X-384697815Y233184022D01*
X-384797895Y232987606D01*
X-384866015Y232777951D01*
X-384900500Y232560222D01*
X-384900500Y232339778D01*
X-384866015Y232122049D01*
X-384831955Y232017221D01*
X-384797896Y231912396D01*
X-384797895Y231912393D01*
X-384763237Y231844375D01*
X-384697815Y231715978D01*
X-384697812Y231715974D01*
X-384568247Y231537641D01*
X-384568243Y231537636D01*
X-384412363Y231381756D01*
X-384412358Y231381752D01*
X-384272745Y231280318D01*
X-384230079Y231224989D01*
X-384224100Y231155375D01*
X-384256705Y231093580D01*
X-384272745Y231079682D01*
X-384397826Y230988804D01*
X-384412365Y230978242D01*
X-384568242Y230822365D01*
X-384697815Y230644022D01*
X-384797895Y230447606D01*
X-384866015Y230237951D01*
X-384900500Y230020222D01*
X-384900500Y229799778D01*
X-384866015Y229582049D01*
X-384831955Y229477221D01*
X-384797896Y229372396D01*
X-384797895Y229372393D01*
X-384763237Y229304375D01*
X-384697815Y229175978D01*
X-384697812Y229175974D01*
X-384568247Y228997641D01*
X-384568243Y228997636D01*
X-384412363Y228841756D01*
X-384412358Y228841752D01*
X-384272745Y228740318D01*
X-384230079Y228684989D01*
X-384224100Y228615375D01*
X-384256705Y228553580D01*
X-384272745Y228539682D01*
X-384397826Y228448804D01*
X-384412365Y228438242D01*
X-384568242Y228282365D01*
X-384697815Y228104022D01*
X-384797895Y227907606D01*
X-384866015Y227697951D01*
X-384900500Y227480222D01*
X-384900500Y227259778D01*
X-384866015Y227042049D01*
X-384831955Y226937221D01*
X-384797896Y226832396D01*
X-384797895Y226832393D01*
X-384763237Y226764375D01*
X-384697815Y226635978D01*
X-384697812Y226635974D01*
X-384568247Y226457641D01*
X-384568243Y226457636D01*
X-384412363Y226301756D01*
X-384412358Y226301752D01*
X-384272745Y226200318D01*
X-384230079Y226144989D01*
X-384224100Y226075375D01*
X-384256705Y226013580D01*
X-384272745Y225999682D01*
X-384397826Y225908804D01*
X-384412365Y225898242D01*
X-384568242Y225742365D01*
X-384697815Y225564022D01*
X-384797895Y225367606D01*
X-384866015Y225157951D01*
X-384900500Y224940222D01*
X-384900500Y224719778D01*
X-384866015Y224502049D01*
X-384831955Y224397221D01*
X-384797896Y224292396D01*
X-384797895Y224292393D01*
X-384763237Y224224375D01*
X-384697815Y224095978D01*
X-384697812Y224095974D01*
X-384568247Y223917641D01*
X-384568243Y223917636D01*
X-384412363Y223761756D01*
X-384412358Y223761752D01*
X-384272319Y223660008D01*
X-384229653Y223604678D01*
X-384223674Y223535065D01*
X-384256279Y223473270D01*
X-384272319Y223459372D01*
X-384297513Y223441066D01*
X-384297514Y223441066D01*
X-383588585Y222732138D01*
X-383673694Y222709333D01*
X-383776306Y222650090D01*
X-383860090Y222566306D01*
X-383919333Y222463694D01*
X-383942137Y222378585D01*
X-384651066Y223087514D01*
X-384651066Y223087513D01*
X-384697386Y223023760D01*
X-384797432Y222827410D01*
X-384865526Y222617835D01*
X-384900000Y222400181D01*
X-384900000Y222179818D01*
X-384865526Y221962164D01*
X-384797432Y221752589D01*
X-384697388Y221556243D01*
X-384651066Y221492485D01*
X-384651065Y221492485D01*
X-383942137Y222201413D01*
X-383919333Y222116306D01*
X-383860090Y222013694D01*
X-383776306Y221929910D01*
X-383673694Y221870667D01*
X-383588584Y221847861D01*
X-384297513Y221138932D01*
X-384272319Y221120628D01*
X-384229653Y221065298D01*
X-384223674Y220995685D01*
X-384256279Y220933889D01*
X-384272313Y220919994D01*
X-384412365Y220818242D01*
X-384568242Y220662365D01*
X-384697815Y220484022D01*
X-384797895Y220287606D01*
X-384866015Y220077951D01*
X-384900500Y219860222D01*
X-384900500Y219639778D01*
X-384866015Y219422049D01*
X-384831955Y219317221D01*
X-384797896Y219212396D01*
X-384797895Y219212393D01*
X-384763237Y219144375D01*
X-384697815Y219015978D01*
X-384697812Y219015974D01*
X-384568247Y218837641D01*
X-384568243Y218837636D01*
X-384412363Y218681756D01*
X-384412358Y218681752D01*
X-384234025Y218552187D01*
X-384234022Y218552185D01*
X-384171096Y218520122D01*
X-384037606Y218452104D01*
X-384037603Y218452103D01*
X-383827952Y218383985D01*
X-383719086Y218366742D01*
X-383610222Y218349500D01*
X-383610221Y218349500D01*
X-383389779Y218349500D01*
X-383389778Y218349500D01*
X-383285513Y218366014D01*
X-383172047Y218383985D01*
X-382962396Y218452103D01*
X-382962393Y218452104D01*
X-382765974Y218552187D01*
X-382587641Y218681752D01*
X-382587636Y218681756D01*
X-382431756Y218837636D01*
X-382431752Y218837641D01*
X-382302187Y219015974D01*
X-382202104Y219212393D01*
X-382202103Y219212396D01*
X-382133985Y219422047D01*
X-382099500Y219639778D01*
X-382099500Y219860221D01*
X-382133985Y220077952D01*
X-382202103Y220287603D01*
X-382202104Y220287606D01*
X-382281189Y220442815D01*
X-382302185Y220484022D01*
X-382302187Y220484025D01*
X-382431752Y220662358D01*
X-382431756Y220662363D01*
X-382587640Y220818247D01*
X-382727679Y220919990D01*
X-382770345Y220975319D01*
X-382776324Y221044933D01*
X-382743719Y221106728D01*
X-382727679Y221120626D01*
X-382702485Y221138930D01*
X-382702485Y221138932D01*
X-383411415Y221847861D01*
X-383326306Y221870667D01*
X-383223694Y221929910D01*
X-383139910Y222013694D01*
X-383080667Y222116306D01*
X-383057861Y222201414D01*
X-382348932Y221492485D01*
X-382348931Y221492485D01*
X-382302616Y221556233D01*
X-382202567Y221752589D01*
X-382134473Y221962164D01*
X-382100000Y222179818D01*
X-382100000Y222400181D01*
X-382134473Y222617835D01*
X-382202567Y222827410D01*
X-382302611Y223023756D01*
X-382348932Y223087513D01*
X-383057861Y222378584D01*
X-383080667Y222463694D01*
X-383139910Y222566306D01*
X-383223694Y222650090D01*
X-383326306Y222709333D01*
X-383411414Y222732137D01*
X-382702485Y223441065D01*
X-382702485Y223441066D01*
X-382727680Y223459371D01*
X-382770346Y223514701D01*
X-382776325Y223584314D01*
X-382743720Y223646110D01*
X-382727681Y223660008D01*
X-382587636Y223761756D01*
X-382431756Y223917636D01*
X-382431752Y223917641D01*
X-382302187Y224095974D01*
X-382202104Y224292393D01*
X-382202103Y224292396D01*
X-382133985Y224502047D01*
X-382099500Y224719778D01*
X-382099500Y224940221D01*
X-382133985Y225157952D01*
X-382202103Y225367603D01*
X-382202104Y225367606D01*
X-382281189Y225522815D01*
X-382302185Y225564022D01*
X-382302187Y225564025D01*
X-382431752Y225742358D01*
X-382431756Y225742363D01*
X-382587636Y225898243D01*
X-382587641Y225898247D01*
X-382727254Y225999682D01*
X-382769920Y226055012D01*
X-382775899Y226124625D01*
X-382743293Y226186420D01*
X-382727254Y226200318D01*
X-382587641Y226301752D01*
X-382587636Y226301756D01*
X-382431756Y226457636D01*
X-382431752Y226457641D01*
X-382302187Y226635974D01*
X-382202104Y226832393D01*
X-382202103Y226832396D01*
X-382133985Y227042047D01*
X-382099500Y227259778D01*
X-382099500Y227480221D01*
X-382133985Y227697952D01*
X-382202103Y227907603D01*
X-382202104Y227907606D01*
X-382281189Y228062815D01*
X-382302185Y228104022D01*
X-382302187Y228104025D01*
X-382431752Y228282358D01*
X-382431756Y228282363D01*
X-382587636Y228438243D01*
X-382587641Y228438247D01*
X-382727254Y228539682D01*
X-382769920Y228595012D01*
X-382775899Y228664625D01*
X-382743293Y228726420D01*
X-382727254Y228740318D01*
X-382587641Y228841752D01*
X-382587636Y228841756D01*
X-382431756Y228997636D01*
X-382431752Y228997641D01*
X-382302187Y229175974D01*
X-382202104Y229372393D01*
X-382202103Y229372396D01*
X-382133985Y229582047D01*
X-382099500Y229799778D01*
X-382099500Y230020221D01*
X-382133985Y230237952D01*
X-382202103Y230447603D01*
X-382202104Y230447606D01*
X-382281189Y230602815D01*
X-382302185Y230644022D01*
X-382302187Y230644025D01*
X-382431752Y230822358D01*
X-382431756Y230822363D01*
X-382587636Y230978243D01*
X-382587641Y230978247D01*
X-382727254Y231079682D01*
X-382769920Y231135012D01*
X-382775899Y231204625D01*
X-382743293Y231266420D01*
X-382727254Y231280318D01*
X-382587641Y231381752D01*
X-382587636Y231381756D01*
X-382431756Y231537636D01*
X-382431752Y231537641D01*
X-382302187Y231715974D01*
X-382202104Y231912393D01*
X-382202103Y231912396D01*
X-382133985Y232122047D01*
X-382099500Y232339778D01*
X-382099500Y232560221D01*
X-382133985Y232777952D01*
X-382202103Y232987603D01*
X-382202104Y232987606D01*
X-382281189Y233142815D01*
X-382302185Y233184022D01*
X-382302187Y233184025D01*
X-382431752Y233362358D01*
X-382431756Y233362363D01*
X-382587636Y233518243D01*
X-382587641Y233518247D01*
X-382727254Y233619682D01*
X-382769920Y233675012D01*
X-382775899Y233744625D01*
X-382743293Y233806420D01*
X-382727254Y233820318D01*
X-382587641Y233921752D01*
X-382587636Y233921756D01*
X-382431756Y234077636D01*
X-382431752Y234077641D01*
X-382302187Y234255974D01*
X-382202104Y234452393D01*
X-382202103Y234452396D01*
X-382133985Y234662047D01*
X-382099500Y234879778D01*
X-382099500Y235100221D01*
X-382133985Y235317952D01*
X-382202103Y235527603D01*
X-382202104Y235527606D01*
X-382294888Y235709701D01*
X-382302185Y235724022D01*
X-382306575Y235730065D01*
X-382431752Y235902358D01*
X-382431756Y235902363D01*
X-382587636Y236058243D01*
X-382587641Y236058247D01*
X-382727254Y236159682D01*
X-382769920Y236215012D01*
X-382775899Y236284625D01*
X-382743293Y236346420D01*
X-382727254Y236360318D01*
X-382587641Y236461752D01*
X-382587636Y236461756D01*
X-382431756Y236617636D01*
X-382431752Y236617641D01*
X-382302187Y236795974D01*
X-382202104Y236992393D01*
X-382202102Y236992399D01*
X-382155698Y237135222D01*
X-381525500Y237135222D01*
X-381525500Y236914778D01*
X-381491015Y236697049D01*
X-381465212Y236617635D01*
X-381422896Y236487396D01*
X-381422895Y236487393D01*
X-381409833Y236461758D01*
X-381322815Y236290978D01*
X-381322812Y236290974D01*
X-381193247Y236112641D01*
X-381193243Y236112636D01*
X-381037363Y235956756D01*
X-381037358Y235956752D01*
X-380897745Y235855318D01*
X-380855079Y235799989D01*
X-380849100Y235730375D01*
X-380881705Y235668580D01*
X-380897745Y235654682D01*
X-381022826Y235563804D01*
X-381037365Y235553242D01*
X-381193242Y235397365D01*
X-381322815Y235219022D01*
X-381422895Y235022606D01*
X-381491015Y234812951D01*
X-381525500Y234595222D01*
X-381525500Y234374778D01*
X-381491015Y234157049D01*
X-381465212Y234077635D01*
X-381422896Y233947396D01*
X-381422895Y233947393D01*
X-381409833Y233921758D01*
X-381322815Y233750978D01*
X-381322812Y233750974D01*
X-381193247Y233572641D01*
X-381193243Y233572636D01*
X-381037363Y233416756D01*
X-381037358Y233416752D01*
X-380897745Y233315318D01*
X-380855079Y233259989D01*
X-380849100Y233190375D01*
X-380881705Y233128580D01*
X-380897745Y233114682D01*
X-381022826Y233023804D01*
X-381037365Y233013242D01*
X-381193242Y232857365D01*
X-381322815Y232679022D01*
X-381422895Y232482606D01*
X-381491015Y232272951D01*
X-381525500Y232055222D01*
X-381525500Y231834778D01*
X-381491015Y231617049D01*
X-381465212Y231537635D01*
X-381422896Y231407396D01*
X-381422895Y231407393D01*
X-381409833Y231381758D01*
X-381322815Y231210978D01*
X-381322812Y231210974D01*
X-381193247Y231032641D01*
X-381193243Y231032636D01*
X-381037363Y230876756D01*
X-381037358Y230876752D01*
X-380897745Y230775318D01*
X-380855079Y230719989D01*
X-380849100Y230650375D01*
X-380881705Y230588580D01*
X-380897745Y230574682D01*
X-381022826Y230483804D01*
X-381037365Y230473242D01*
X-381193242Y230317365D01*
X-381322815Y230139022D01*
X-381422895Y229942606D01*
X-381491015Y229732951D01*
X-381525500Y229515222D01*
X-381525500Y229294778D01*
X-381491015Y229077049D01*
X-381465212Y228997635D01*
X-381422896Y228867396D01*
X-381422895Y228867393D01*
X-381409833Y228841758D01*
X-381322815Y228670978D01*
X-381322812Y228670974D01*
X-381193247Y228492641D01*
X-381193243Y228492636D01*
X-381037363Y228336756D01*
X-381037358Y228336752D01*
X-380897745Y228235318D01*
X-380855079Y228179989D01*
X-380849100Y228110375D01*
X-380881705Y228048580D01*
X-380897745Y228034682D01*
X-381022826Y227943804D01*
X-381037365Y227933242D01*
X-381193242Y227777365D01*
X-381322815Y227599022D01*
X-381422895Y227402606D01*
X-381491015Y227192951D01*
X-381525500Y226975222D01*
X-381525500Y226754778D01*
X-381491015Y226537049D01*
X-381465212Y226457635D01*
X-381422896Y226327396D01*
X-381422895Y226327393D01*
X-381409833Y226301758D01*
X-381322815Y226130978D01*
X-381322812Y226130974D01*
X-381193247Y225952641D01*
X-381193243Y225952636D01*
X-381037363Y225796756D01*
X-381037358Y225796752D01*
X-380897745Y225695318D01*
X-380855079Y225639989D01*
X-380849100Y225570375D01*
X-380881705Y225508580D01*
X-380897745Y225494682D01*
X-381022826Y225403804D01*
X-381037365Y225393242D01*
X-381193242Y225237365D01*
X-381322815Y225059022D01*
X-381422895Y224862606D01*
X-381491015Y224652951D01*
X-381525500Y224435222D01*
X-381525500Y224214778D01*
X-381491015Y223997049D01*
X-381465212Y223917635D01*
X-381422896Y223787396D01*
X-381422895Y223787393D01*
X-381409833Y223761758D01*
X-381322815Y223590978D01*
X-381322812Y223590974D01*
X-381193247Y223412641D01*
X-381193243Y223412636D01*
X-381037363Y223256756D01*
X-381037358Y223256752D01*
X-380897745Y223155318D01*
X-380855079Y223099989D01*
X-380849100Y223030375D01*
X-380881705Y222968580D01*
X-380897745Y222954682D01*
X-381022826Y222863804D01*
X-381037365Y222853242D01*
X-381193242Y222697365D01*
X-381322815Y222519022D01*
X-381422895Y222322606D01*
X-381491015Y222112951D01*
X-381525500Y221895222D01*
X-381525500Y221674778D01*
X-381491015Y221457049D01*
X-381491014Y221457047D01*
X-381422896Y221247396D01*
X-381422895Y221247393D01*
X-381388237Y221179375D01*
X-381322815Y221050978D01*
X-381322812Y221050974D01*
X-381193247Y220872641D01*
X-381193243Y220872636D01*
X-381037363Y220716756D01*
X-381037358Y220716752D01*
X-380897745Y220615318D01*
X-380855079Y220559989D01*
X-380849100Y220490375D01*
X-380881705Y220428580D01*
X-380897745Y220414682D01*
X-381022826Y220323804D01*
X-381037365Y220313242D01*
X-381193242Y220157365D01*
X-381322815Y219979022D01*
X-381422895Y219782606D01*
X-381491015Y219572951D01*
X-381525500Y219355222D01*
X-381525500Y219134778D01*
X-381491015Y218917049D01*
X-381465212Y218837635D01*
X-381422896Y218707396D01*
X-381422895Y218707393D01*
X-381409833Y218681758D01*
X-381322815Y218510978D01*
X-381322812Y218510974D01*
X-381193247Y218332641D01*
X-381193243Y218332636D01*
X-381037363Y218176756D01*
X-381037358Y218176752D01*
X-380888012Y218068247D01*
X-380859022Y218047185D01*
X-380796096Y218015122D01*
X-380662606Y217947104D01*
X-380662603Y217947103D01*
X-380452952Y217878985D01*
X-380344086Y217861742D01*
X-380235222Y217844500D01*
X-380235221Y217844500D01*
X-380014779Y217844500D01*
X-380014778Y217844500D01*
X-379942201Y217855995D01*
X-379797047Y217878985D01*
X-379587396Y217947103D01*
X-379587393Y217947104D01*
X-379390974Y218047187D01*
X-379212641Y218176752D01*
X-379212636Y218176756D01*
X-379056756Y218332636D01*
X-379056752Y218332641D01*
X-378927187Y218510974D01*
X-378827104Y218707393D01*
X-378827103Y218707396D01*
X-378758985Y218917047D01*
X-378724500Y219134778D01*
X-378724500Y219355221D01*
X-378758985Y219572952D01*
X-378827103Y219782603D01*
X-378827104Y219782606D01*
X-378927187Y219979025D01*
X-379056752Y220157358D01*
X-379056756Y220157363D01*
X-379212636Y220313243D01*
X-379212641Y220313247D01*
X-379352254Y220414682D01*
X-379394920Y220470012D01*
X-379400899Y220539625D01*
X-379368293Y220601420D01*
X-379352254Y220615318D01*
X-379212641Y220716752D01*
X-379212636Y220716756D01*
X-379056756Y220872636D01*
X-379056752Y220872641D01*
X-378927187Y221050974D01*
X-378827104Y221247393D01*
X-378827103Y221247396D01*
X-378758985Y221457047D01*
X-378724500Y221674778D01*
X-378724500Y221895221D01*
X-378758985Y222112952D01*
X-378827103Y222322603D01*
X-378827104Y222322606D01*
X-378927187Y222519025D01*
X-379056752Y222697358D01*
X-379056756Y222697363D01*
X-379212636Y222853243D01*
X-379212641Y222853247D01*
X-379352254Y222954682D01*
X-379394920Y223010012D01*
X-379400899Y223079625D01*
X-379368293Y223141420D01*
X-379352254Y223155318D01*
X-379212641Y223256752D01*
X-379212636Y223256756D01*
X-379056756Y223412636D01*
X-379056752Y223412641D01*
X-378927187Y223590974D01*
X-378827104Y223787393D01*
X-378827103Y223787396D01*
X-378758985Y223997047D01*
X-378724500Y224214778D01*
X-378724500Y224435221D01*
X-378758985Y224652952D01*
X-378827103Y224862603D01*
X-378827104Y224862606D01*
X-378927187Y225059025D01*
X-379056752Y225237358D01*
X-379056756Y225237363D01*
X-379212636Y225393243D01*
X-379212641Y225393247D01*
X-379352254Y225494682D01*
X-379394920Y225550012D01*
X-379400899Y225619625D01*
X-379368293Y225681420D01*
X-379352254Y225695318D01*
X-379212641Y225796752D01*
X-379212636Y225796756D01*
X-379056756Y225952636D01*
X-379056752Y225952641D01*
X-378927187Y226130974D01*
X-378827104Y226327393D01*
X-378827103Y226327396D01*
X-378758985Y226537047D01*
X-378724500Y226754778D01*
X-378724500Y226975221D01*
X-378758985Y227192952D01*
X-378827103Y227402603D01*
X-378827104Y227402606D01*
X-378927187Y227599025D01*
X-379056752Y227777358D01*
X-379056756Y227777363D01*
X-379212636Y227933243D01*
X-379212641Y227933247D01*
X-379352254Y228034682D01*
X-379394920Y228090012D01*
X-379400899Y228159625D01*
X-379368293Y228221420D01*
X-379352254Y228235318D01*
X-379212641Y228336752D01*
X-379212636Y228336756D01*
X-379056756Y228492636D01*
X-379056752Y228492641D01*
X-378927187Y228670974D01*
X-378827104Y228867393D01*
X-378827103Y228867396D01*
X-378758985Y229077047D01*
X-378724500Y229294778D01*
X-378724500Y229515221D01*
X-378758985Y229732952D01*
X-378827103Y229942603D01*
X-378827104Y229942606D01*
X-378927187Y230139025D01*
X-379056752Y230317358D01*
X-379056756Y230317363D01*
X-379212636Y230473243D01*
X-379212641Y230473247D01*
X-379352254Y230574682D01*
X-379394920Y230630012D01*
X-379400899Y230699625D01*
X-379368293Y230761420D01*
X-379352254Y230775318D01*
X-379212641Y230876752D01*
X-379212636Y230876756D01*
X-379056756Y231032636D01*
X-379056752Y231032641D01*
X-378927187Y231210974D01*
X-378827104Y231407393D01*
X-378827103Y231407396D01*
X-378758985Y231617047D01*
X-378724500Y231834778D01*
X-378724500Y232055221D01*
X-378758985Y232272952D01*
X-378827103Y232482603D01*
X-378827104Y232482606D01*
X-378927187Y232679025D01*
X-379056752Y232857358D01*
X-379056756Y232857363D01*
X-379212636Y233013243D01*
X-379212641Y233013247D01*
X-379352254Y233114682D01*
X-379394920Y233170012D01*
X-379400899Y233239625D01*
X-379368293Y233301420D01*
X-379352254Y233315318D01*
X-379212641Y233416752D01*
X-379212636Y233416756D01*
X-379056756Y233572636D01*
X-379056752Y233572641D01*
X-378927187Y233750974D01*
X-378827104Y233947393D01*
X-378827103Y233947396D01*
X-378758985Y234157047D01*
X-378724500Y234374778D01*
X-378724500Y234595221D01*
X-378758985Y234812952D01*
X-378827103Y235022603D01*
X-378827104Y235022606D01*
X-378895122Y235156096D01*
X-378927185Y235219022D01*
X-378927187Y235219025D01*
X-379056752Y235397358D01*
X-379056756Y235397363D01*
X-379212636Y235553243D01*
X-379212641Y235553247D01*
X-379352254Y235654682D01*
X-379394920Y235710012D01*
X-379400899Y235779625D01*
X-379368293Y235841420D01*
X-379352254Y235855318D01*
X-379212641Y235956752D01*
X-379212636Y235956756D01*
X-379056756Y236112636D01*
X-379056752Y236112641D01*
X-378927187Y236290974D01*
X-378827104Y236487393D01*
X-378827103Y236487396D01*
X-378758985Y236697047D01*
X-378724500Y236914778D01*
X-378724500Y237135221D01*
X-378724500Y237135222D01*
X-366285500Y237135222D01*
X-366285500Y236914778D01*
X-366251015Y236697049D01*
X-366225212Y236617635D01*
X-366182896Y236487396D01*
X-366182895Y236487393D01*
X-366169833Y236461758D01*
X-366082815Y236290978D01*
X-366082812Y236290974D01*
X-365953247Y236112641D01*
X-365953243Y236112636D01*
X-365797363Y235956756D01*
X-365797358Y235956752D01*
X-365657319Y235855008D01*
X-365614653Y235799678D01*
X-365608674Y235730065D01*
X-365641279Y235668270D01*
X-365657319Y235654372D01*
X-365682513Y235636066D01*
X-365682514Y235636066D01*
X-364973585Y234927138D01*
X-365058694Y234904333D01*
X-365161306Y234845090D01*
X-365245090Y234761306D01*
X-365304333Y234658694D01*
X-365327138Y234573585D01*
X-366036066Y235282514D01*
X-366036066Y235282513D01*
X-366082386Y235218760D01*
X-366182432Y235022410D01*
X-366250526Y234812835D01*
X-366285000Y234595181D01*
X-366285000Y234374818D01*
X-366250526Y234157164D01*
X-366182432Y233947589D01*
X-366082388Y233751243D01*
X-366036066Y233687485D01*
X-366036065Y233687485D01*
X-365327137Y234396413D01*
X-365304333Y234311306D01*
X-365245090Y234208694D01*
X-365161306Y234124910D01*
X-365058694Y234065667D01*
X-364973584Y234042861D01*
X-365682513Y233333932D01*
X-365657319Y233315628D01*
X-365614653Y233260298D01*
X-365608674Y233190685D01*
X-365641279Y233128889D01*
X-365657313Y233114994D01*
X-365797365Y233013242D01*
X-365953242Y232857365D01*
X-366082815Y232679022D01*
X-366182895Y232482606D01*
X-366251015Y232272951D01*
X-366285500Y232055222D01*
X-366285500Y231834778D01*
X-366251015Y231617049D01*
X-366225212Y231537635D01*
X-366182896Y231407396D01*
X-366182895Y231407393D01*
X-366169833Y231381758D01*
X-366082815Y231210978D01*
X-366082812Y231210974D01*
X-365953247Y231032641D01*
X-365953243Y231032636D01*
X-365797363Y230876756D01*
X-365797358Y230876752D01*
X-365657745Y230775318D01*
X-365615079Y230719989D01*
X-365609100Y230650375D01*
X-365641705Y230588580D01*
X-365657745Y230574682D01*
X-365782826Y230483804D01*
X-365797365Y230473242D01*
X-365953242Y230317365D01*
X-366082815Y230139022D01*
X-366182895Y229942606D01*
X-366251015Y229732951D01*
X-366285500Y229515222D01*
X-366285500Y229294778D01*
X-366251015Y229077049D01*
X-366225212Y228997635D01*
X-366182896Y228867396D01*
X-366182895Y228867393D01*
X-366169833Y228841758D01*
X-366082815Y228670978D01*
X-366082812Y228670974D01*
X-365953247Y228492641D01*
X-365953243Y228492636D01*
X-365797363Y228336756D01*
X-365797358Y228336752D01*
X-365657745Y228235318D01*
X-365615079Y228179989D01*
X-365609100Y228110375D01*
X-365641705Y228048580D01*
X-365657745Y228034682D01*
X-365782826Y227943804D01*
X-365797365Y227933242D01*
X-365953242Y227777365D01*
X-366082815Y227599022D01*
X-366182895Y227402606D01*
X-366251015Y227192951D01*
X-366285500Y226975222D01*
X-366285500Y226754778D01*
X-366251015Y226537049D01*
X-366225212Y226457635D01*
X-366182896Y226327396D01*
X-366182895Y226327393D01*
X-366169833Y226301758D01*
X-366082815Y226130978D01*
X-366082812Y226130974D01*
X-365953247Y225952641D01*
X-365953243Y225952636D01*
X-365797363Y225796756D01*
X-365797358Y225796752D01*
X-365657745Y225695318D01*
X-365615079Y225639989D01*
X-365609100Y225570375D01*
X-365641705Y225508580D01*
X-365657745Y225494682D01*
X-365782826Y225403804D01*
X-365797365Y225393242D01*
X-365953242Y225237365D01*
X-366082815Y225059022D01*
X-366182895Y224862606D01*
X-366251015Y224652951D01*
X-366285500Y224435222D01*
X-366285500Y224214778D01*
X-366251015Y223997049D01*
X-366225212Y223917635D01*
X-366182896Y223787396D01*
X-366182895Y223787393D01*
X-366169833Y223761758D01*
X-366082815Y223590978D01*
X-366082812Y223590974D01*
X-365953247Y223412641D01*
X-365953243Y223412636D01*
X-365797363Y223256756D01*
X-365797358Y223256752D01*
X-365657745Y223155318D01*
X-365615079Y223099989D01*
X-365609100Y223030375D01*
X-365641705Y222968580D01*
X-365657745Y222954682D01*
X-365782826Y222863804D01*
X-365797365Y222853242D01*
X-365953242Y222697365D01*
X-366082815Y222519022D01*
X-366182895Y222322606D01*
X-366251015Y222112951D01*
X-366285500Y221895222D01*
X-366285500Y221674778D01*
X-366251015Y221457049D01*
X-366251014Y221457047D01*
X-366182896Y221247396D01*
X-366182895Y221247393D01*
X-366148237Y221179375D01*
X-366082815Y221050978D01*
X-366082812Y221050974D01*
X-365953247Y220872641D01*
X-365953243Y220872636D01*
X-365797363Y220716756D01*
X-365797358Y220716752D01*
X-365657745Y220615318D01*
X-365615079Y220559989D01*
X-365609100Y220490375D01*
X-365641705Y220428580D01*
X-365657745Y220414682D01*
X-365782826Y220323804D01*
X-365797365Y220313242D01*
X-365953242Y220157365D01*
X-366082815Y219979022D01*
X-366182895Y219782606D01*
X-366251015Y219572951D01*
X-366285500Y219355222D01*
X-366285500Y219134778D01*
X-366251015Y218917049D01*
X-366225212Y218837635D01*
X-366182896Y218707396D01*
X-366182895Y218707393D01*
X-366169833Y218681758D01*
X-366082815Y218510978D01*
X-366082812Y218510974D01*
X-365953247Y218332641D01*
X-365953243Y218332636D01*
X-365797363Y218176756D01*
X-365797358Y218176752D01*
X-365648012Y218068247D01*
X-365619022Y218047185D01*
X-365556096Y218015122D01*
X-365422606Y217947104D01*
X-365422603Y217947103D01*
X-365212952Y217878985D01*
X-365104086Y217861742D01*
X-364995222Y217844500D01*
X-364995221Y217844500D01*
X-364774779Y217844500D01*
X-364774778Y217844500D01*
X-364702201Y217855995D01*
X-364557047Y217878985D01*
X-364347396Y217947103D01*
X-364347393Y217947104D01*
X-364150974Y218047187D01*
X-363972641Y218176752D01*
X-363972636Y218176756D01*
X-363816756Y218332636D01*
X-363816752Y218332641D01*
X-363687187Y218510974D01*
X-363587104Y218707393D01*
X-363587103Y218707396D01*
X-363518985Y218917047D01*
X-363484500Y219134778D01*
X-363484500Y219355221D01*
X-363518985Y219572952D01*
X-363587103Y219782603D01*
X-363587104Y219782606D01*
X-363687187Y219979025D01*
X-363816752Y220157358D01*
X-363816756Y220157363D01*
X-363972636Y220313243D01*
X-363972641Y220313247D01*
X-364112254Y220414682D01*
X-364154920Y220470012D01*
X-364160899Y220539625D01*
X-364128293Y220601420D01*
X-364112254Y220615318D01*
X-363972641Y220716752D01*
X-363972636Y220716756D01*
X-363816756Y220872636D01*
X-363816752Y220872641D01*
X-363687187Y221050974D01*
X-363587104Y221247393D01*
X-363587103Y221247396D01*
X-363518985Y221457047D01*
X-363484500Y221674778D01*
X-363484500Y221895221D01*
X-363518985Y222112952D01*
X-363587103Y222322603D01*
X-363587104Y222322606D01*
X-363687187Y222519025D01*
X-363816752Y222697358D01*
X-363816756Y222697363D01*
X-363972636Y222853243D01*
X-363972641Y222853247D01*
X-364112254Y222954682D01*
X-364154920Y223010012D01*
X-364160899Y223079625D01*
X-364128293Y223141420D01*
X-364112254Y223155318D01*
X-363972641Y223256752D01*
X-363972636Y223256756D01*
X-363816756Y223412636D01*
X-363816752Y223412641D01*
X-363687187Y223590974D01*
X-363587104Y223787393D01*
X-363587103Y223787396D01*
X-363518985Y223997047D01*
X-363484500Y224214778D01*
X-363484500Y224435221D01*
X-363518985Y224652952D01*
X-363587103Y224862603D01*
X-363587104Y224862606D01*
X-363687187Y225059025D01*
X-363816752Y225237358D01*
X-363816756Y225237363D01*
X-363972636Y225393243D01*
X-363972641Y225393247D01*
X-364112254Y225494682D01*
X-364154920Y225550012D01*
X-364160899Y225619625D01*
X-364128293Y225681420D01*
X-364112254Y225695318D01*
X-363972641Y225796752D01*
X-363972636Y225796756D01*
X-363816756Y225952636D01*
X-363816752Y225952641D01*
X-363687187Y226130974D01*
X-363587104Y226327393D01*
X-363587103Y226327396D01*
X-363518985Y226537047D01*
X-363484500Y226754778D01*
X-363484500Y226975221D01*
X-363518985Y227192952D01*
X-363587103Y227402603D01*
X-363587104Y227402606D01*
X-363687187Y227599025D01*
X-363816752Y227777358D01*
X-363816756Y227777363D01*
X-363972636Y227933243D01*
X-363972641Y227933247D01*
X-364112254Y228034682D01*
X-364154920Y228090012D01*
X-364160899Y228159625D01*
X-364128293Y228221420D01*
X-364112254Y228235318D01*
X-363972641Y228336752D01*
X-363972636Y228336756D01*
X-363816756Y228492636D01*
X-363816752Y228492641D01*
X-363687187Y228670974D01*
X-363587104Y228867393D01*
X-363587103Y228867396D01*
X-363518985Y229077047D01*
X-363484500Y229294778D01*
X-363484500Y229515221D01*
X-363518985Y229732952D01*
X-363587103Y229942603D01*
X-363587104Y229942606D01*
X-363687187Y230139025D01*
X-363816752Y230317358D01*
X-363816756Y230317363D01*
X-363972636Y230473243D01*
X-363972641Y230473247D01*
X-364112254Y230574682D01*
X-364154920Y230630012D01*
X-364160899Y230699625D01*
X-364128293Y230761420D01*
X-364112254Y230775318D01*
X-363972641Y230876752D01*
X-363972636Y230876756D01*
X-363816756Y231032636D01*
X-363816752Y231032641D01*
X-363687187Y231210974D01*
X-363587104Y231407393D01*
X-363587103Y231407396D01*
X-363518985Y231617047D01*
X-363484500Y231834778D01*
X-363484500Y232055221D01*
X-363518985Y232272952D01*
X-363587103Y232482603D01*
X-363587104Y232482606D01*
X-363687187Y232679025D01*
X-363816752Y232857358D01*
X-363816756Y232857363D01*
X-363972640Y233013247D01*
X-364112679Y233114990D01*
X-364155345Y233170319D01*
X-364161324Y233239933D01*
X-364128719Y233301728D01*
X-364112679Y233315626D01*
X-364087485Y233333930D01*
X-364087485Y233333932D01*
X-364796415Y234042861D01*
X-364711306Y234065667D01*
X-364608694Y234124910D01*
X-364524910Y234208694D01*
X-364465667Y234311306D01*
X-364442861Y234396414D01*
X-363733932Y233687485D01*
X-363733931Y233687485D01*
X-363687616Y233751233D01*
X-363587567Y233947589D01*
X-363519473Y234157164D01*
X-363485000Y234374818D01*
X-363485000Y234595181D01*
X-363519473Y234812835D01*
X-363587567Y235022410D01*
X-363687611Y235218756D01*
X-363733932Y235282513D01*
X-364442861Y234573584D01*
X-364465667Y234658694D01*
X-364524910Y234761306D01*
X-364608694Y234845090D01*
X-364711306Y234904333D01*
X-364796414Y234927137D01*
X-364087485Y235636065D01*
X-364087485Y235636066D01*
X-364112680Y235654371D01*
X-364155346Y235709701D01*
X-364161325Y235779314D01*
X-364128720Y235841110D01*
X-364112681Y235855008D01*
X-363972636Y235956756D01*
X-363816756Y236112636D01*
X-363816752Y236112641D01*
X-363687187Y236290974D01*
X-363587104Y236487393D01*
X-363587103Y236487396D01*
X-363518985Y236697047D01*
X-363484500Y236914778D01*
X-363484500Y237135221D01*
X-363491341Y237178411D01*
X-363518985Y237352951D01*
X-363540698Y237419778D01*
X-363587103Y237562603D01*
X-363587104Y237562606D01*
X-363687187Y237759025D01*
X-363816752Y237937358D01*
X-363816756Y237937363D01*
X-363972636Y238093243D01*
X-363972641Y238093247D01*
X-364150974Y238222812D01*
X-364150978Y238222815D01*
X-364279375Y238288237D01*
X-364347393Y238322895D01*
X-364347396Y238322896D01*
X-364452221Y238356955D01*
X-364557049Y238391015D01*
X-364774778Y238425500D01*
X-364995222Y238425500D01*
X-365212951Y238391015D01*
X-365422606Y238322895D01*
X-365619022Y238222815D01*
X-365797365Y238093242D01*
X-365953242Y237937365D01*
X-366082815Y237759022D01*
X-366182895Y237562606D01*
X-366251015Y237352951D01*
X-366285500Y237135222D01*
X-378724500Y237135222D01*
X-378731341Y237178411D01*
X-378758985Y237352951D01*
X-378780698Y237419778D01*
X-378827103Y237562603D01*
X-378827104Y237562606D01*
X-378927187Y237759025D01*
X-379056752Y237937358D01*
X-379056756Y237937363D01*
X-379212636Y238093243D01*
X-379212641Y238093247D01*
X-379390974Y238222812D01*
X-379390978Y238222815D01*
X-379519375Y238288237D01*
X-379587393Y238322895D01*
X-379587396Y238322896D01*
X-379692221Y238356955D01*
X-379797049Y238391015D01*
X-380014778Y238425500D01*
X-380235222Y238425500D01*
X-380452951Y238391015D01*
X-380662606Y238322895D01*
X-380859022Y238222815D01*
X-381037365Y238093242D01*
X-381193242Y237937365D01*
X-381322815Y237759022D01*
X-381422895Y237562606D01*
X-381491015Y237352951D01*
X-381525500Y237135222D01*
X-382155698Y237135222D01*
X-382141665Y237178411D01*
X-382141665Y237178413D01*
X-382133984Y237202050D01*
X-382099500Y237419778D01*
X-382099500Y237640221D01*
X-382133985Y237857952D01*
X-382202103Y238067603D01*
X-382202104Y238067606D01*
X-382302187Y238264025D01*
X-382431752Y238442358D01*
X-382431756Y238442363D01*
X-382587636Y238598243D01*
X-382587641Y238598247D01*
X-382765974Y238727812D01*
X-382765978Y238727815D01*
X-382894375Y238793237D01*
X-382962393Y238827895D01*
X-382962396Y238827896D01*
X-383067221Y238861955D01*
X-383172049Y238896015D01*
X-383389778Y238930500D01*
X-383610222Y238930500D01*
X-383827951Y238896015D01*
X-384037606Y238827895D01*
X-384234022Y238727815D01*
X-384412365Y238598242D01*
X-384568242Y238442365D01*
X-384697815Y238264022D01*
X-384797895Y238067606D01*
X-384866015Y237857951D01*
X-384900500Y237640222D01*
X-399249500Y237640222D01*
X-399249500Y241875500D01*
X-399229815Y241942539D01*
X-399177011Y241988294D01*
X-399125500Y241999500D01*
X-398213910Y241999500D01*
X-398146871Y241979815D01*
G37*
%TD.AperFunction*%
%TA.AperFunction,Conductor*%
G36*
X-395713430Y241979815D02*
G01*
X-395667675Y241927011D01*
X-395657731Y241857853D01*
X-395686756Y241794297D01*
X-395692788Y241787819D01*
X-395818242Y241662365D01*
X-395919991Y241522317D01*
X-395975320Y241479653D01*
X-396044933Y241473674D01*
X-396106729Y241506279D01*
X-396120628Y241522319D01*
X-396138932Y241547513D01*
X-396847861Y240838584D01*
X-396870667Y240923694D01*
X-396929910Y241026306D01*
X-397013694Y241110090D01*
X-397116306Y241169333D01*
X-397201414Y241192137D01*
X-396479581Y241913969D01*
X-396475342Y241934150D01*
X-396426290Y241983906D01*
X-396366089Y241999500D01*
X-395780469Y241999500D01*
X-395713430Y241979815D01*
G37*
%TD.AperFunction*%
%TD*%
M02*
