%TF.GenerationSoftware,KiCad,Pcbnew,9.0.7+1*%
%TF.CreationDate,2026-04-07T16:13:12+02:00*%
%TF.ProjectId,PCB,5043422e-6b69-4636-9164-5f7063625858,rev?*%
%TF.SameCoordinates,Original*%
%TF.FileFunction,Legend,Bot*%
%TF.FilePolarity,Positive*%
%FSLAX46Y46*%
G04 Gerber Fmt 4.6, Leading zero omitted, Abs format (unit mm)*
G04 Created by KiCad (PCBNEW 9.0.7+1) date 2026-04-07 16:13:12*
%MOMM*%
%LPD*%
G01*
G04 APERTURE LIST*
%ADD10C,0.100000*%
G04 APERTURE END LIST*
D10*
G36*
X-387351840Y192549036D02*
G01*
X-387358610Y192380692D01*
X-387377799Y192224837D01*
X-387405042Y192095405D01*
X-387414334Y192061648D01*
X-387416259Y192054811D01*
X-387448621Y191965711D01*
X-387481119Y191903905D01*
X-387542317Y191838187D01*
X-387633331Y191770655D01*
X-387640230Y191765750D01*
X-387738232Y191694492D01*
X-387762746Y191661428D01*
X-387785136Y191618275D01*
X-387804183Y191567552D01*
X-387819989Y191508826D01*
X-387831210Y191447892D01*
X-387838636Y191381291D01*
X-387841852Y191296620D01*
X-387834348Y191171374D01*
X-387811798Y191053142D01*
X-387794994Y191000311D01*
X-387775051Y190954670D01*
X-387752284Y190917520D01*
X-387726969Y190890089D01*
X-387675218Y190869256D01*
X-387642416Y190875144D01*
X-387612108Y190892914D01*
X-387586423Y190920065D01*
X-387563117Y190957643D01*
X-387543241Y191003234D01*
X-387525732Y191058502D01*
X-387498400Y191197200D01*
X-387481257Y191380928D01*
X-387480617Y191392974D01*
X-387480607Y191393172D01*
X-387477154Y191447558D01*
X-387470664Y191489799D01*
X-387457607Y191517153D01*
X-387434455Y191526880D01*
X-387415521Y191521297D01*
X-387402626Y191505663D01*
X-387391040Y191458596D01*
X-387388232Y191367695D01*
X-387388232Y190785359D01*
X-387388845Y190732039D01*
X-387393132Y190680281D01*
X-387404770Y190641129D01*
X-387427433Y190625624D01*
X-387444621Y190633007D01*
X-387455943Y190661242D01*
X-387468705Y190755751D01*
X-387475679Y190827506D01*
X-387476465Y190835734D01*
X-387527175Y190730156D01*
X-387584062Y190661602D01*
X-387645420Y190629004D01*
X-387673813Y190625624D01*
X-387740168Y190648038D01*
X-387800090Y190712996D01*
X-387851331Y190816253D01*
X-387872898Y190880438D01*
X-387891267Y190951469D01*
X-387906171Y191028137D01*
X-387917472Y191109797D01*
X-387924853Y191193956D01*
X-387928350Y191281209D01*
X-387928620Y191313290D01*
X-387921902Y191470250D01*
X-387902955Y191615057D01*
X-387877257Y191729125D01*
X-387871222Y191748897D01*
X-387835074Y191846268D01*
X-387798755Y191912185D01*
X-387732543Y191979411D01*
X-387642641Y192045667D01*
X-387641634Y192046385D01*
X-387576658Y192092020D01*
X-387533480Y192131748D01*
X-387503423Y192180131D01*
X-387477808Y192251732D01*
X-387461606Y192320480D01*
X-387449518Y192393594D01*
X-387442226Y192464936D01*
X-387438837Y192540044D01*
X-387438607Y192565889D01*
X-387446335Y192707840D01*
X-387456048Y192777485D01*
X-387469570Y192843028D01*
X-387486143Y192900507D01*
X-387506130Y192950633D01*
X-387528012Y192989549D01*
X-387552814Y193018955D01*
X-387579018Y193036752D01*
X-387607765Y193043425D01*
X-387609455Y193043445D01*
X-387649152Y193037500D01*
X-387686741Y193019332D01*
X-387718522Y192991820D01*
X-387747570Y192953440D01*
X-387771012Y192909241D01*
X-387791507Y192855642D01*
X-387807475Y192797737D01*
X-387820381Y192731416D01*
X-387829632Y192659700D01*
X-387835581Y192579856D01*
X-387837639Y192519727D01*
X-387837658Y192518890D01*
X-387839367Y192471649D01*
X-387844899Y192428779D01*
X-387858010Y192397652D01*
X-387882458Y192385638D01*
X-387900925Y192391209D01*
X-387913664Y192406761D01*
X-387925540Y192454220D01*
X-387928620Y192549036D01*
X-387928620Y193127342D01*
X-387928007Y193180634D01*
X-387923719Y193232329D01*
X-387912082Y193271418D01*
X-387889419Y193286894D01*
X-387872220Y193279493D01*
X-387860888Y193251135D01*
X-387848116Y193156251D01*
X-387841087Y193083678D01*
X-387840448Y193076967D01*
X-387786353Y193177028D01*
X-387722690Y193245838D01*
X-387651255Y193281636D01*
X-387609455Y193286894D01*
X-387575684Y193281172D01*
X-387543898Y193264565D01*
X-387485468Y193200225D01*
X-387435165Y193097388D01*
X-387394737Y192960319D01*
X-387366550Y192796114D01*
X-387357798Y192707217D01*
X-387352901Y192615889D01*
X-387351840Y192549036D01*
G37*
G36*
X-386580460Y193118367D02*
G01*
X-386582287Y193075726D01*
X-386587257Y193044416D01*
X-386603851Y193008484D01*
X-386629978Y192996680D01*
X-386636453Y192996550D01*
X-386693850Y192996550D01*
X-386693850Y192005718D01*
X-386695790Y191887700D01*
X-386701552Y191782867D01*
X-386710147Y191698007D01*
X-386721832Y191624022D01*
X-386735595Y191564211D01*
X-386751982Y191513815D01*
X-386791727Y191441679D01*
X-386843086Y191404153D01*
X-386873002Y191399385D01*
X-386931222Y191420237D01*
X-386984176Y191479759D01*
X-387030117Y191571186D01*
X-387053620Y191638804D01*
X-387054494Y191545530D01*
X-387060619Y191482138D01*
X-387077241Y191446017D01*
X-387109612Y191434556D01*
X-387201997Y191434556D01*
X-387219024Y191436460D01*
X-387237374Y191449783D01*
X-387252049Y191485948D01*
X-387258051Y191556372D01*
X-387256224Y191598983D01*
X-387251253Y191630279D01*
X-387234653Y191666225D01*
X-387208511Y191678057D01*
X-387201997Y191678189D01*
X-387144600Y191678189D01*
X-387144600Y192996550D01*
X-387201997Y192996550D01*
X-387219024Y192998454D01*
X-387237374Y193011777D01*
X-387252049Y193047942D01*
X-387258051Y193118367D01*
X-387256224Y193160913D01*
X-387251253Y193192162D01*
X-387234648Y193228060D01*
X-387208488Y193239869D01*
X-387201997Y193240000D01*
X-386996222Y193240000D01*
X-386979205Y193238099D01*
X-386960876Y193224795D01*
X-386946222Y193188686D01*
X-386940230Y193118367D01*
X-386942056Y193075726D01*
X-386947027Y193044416D01*
X-386963620Y193008484D01*
X-386989747Y192996680D01*
X-386996222Y192996550D01*
X-387053620Y192996550D01*
X-387053620Y192239092D01*
X-387051731Y192140940D01*
X-387046323Y192052191D01*
X-387037624Y191971442D01*
X-387026103Y191900039D01*
X-386994885Y191780664D01*
X-386954372Y191695342D01*
X-386907530Y191649260D01*
X-386882833Y191643018D01*
X-386856603Y191648816D01*
X-386835323Y191665958D01*
X-386820320Y191690109D01*
X-386808456Y191722482D01*
X-386792788Y191811439D01*
X-386785372Y191954102D01*
X-386784830Y192022571D01*
X-386784830Y192996550D01*
X-386842227Y192996550D01*
X-386859245Y192998454D01*
X-386877574Y193011777D01*
X-386892227Y193047942D01*
X-386898220Y193118367D01*
X-386896393Y193160943D01*
X-386891423Y193192206D01*
X-386874825Y193228089D01*
X-386848679Y193239871D01*
X-386842227Y193240000D01*
X-386636453Y193240000D01*
X-386619435Y193238099D01*
X-386601106Y193224795D01*
X-386586453Y193188686D01*
X-386580460Y193118367D01*
G37*
G36*
X-385940605Y193118367D02*
G01*
X-385942431Y193075726D01*
X-385947402Y193044416D01*
X-385963995Y193008484D01*
X-385990122Y192996680D01*
X-385996598Y192996550D01*
X-386135205Y192996550D01*
X-386135205Y191606931D01*
X-386137819Y191517744D01*
X-386148301Y191463493D01*
X-386171252Y191437978D01*
X-386191198Y191434556D01*
X-386376029Y191434556D01*
X-386393047Y191436460D01*
X-386411375Y191449783D01*
X-386426029Y191485948D01*
X-386432021Y191556372D01*
X-386430195Y191599013D01*
X-386425224Y191630323D01*
X-386408631Y191666255D01*
X-386382504Y191678059D01*
X-386376029Y191678189D01*
X-386226247Y191678189D01*
X-386226247Y192996550D01*
X-386385799Y192996550D01*
X-386403036Y192998454D01*
X-386421847Y193011777D01*
X-386436984Y193047942D01*
X-386443196Y193118367D01*
X-386441368Y193160254D01*
X-386436393Y193191217D01*
X-386419635Y193227422D01*
X-386393141Y193239818D01*
X-386385799Y193240000D01*
X-385996598Y193240000D01*
X-385979580Y193238099D01*
X-385961251Y193224795D01*
X-385946597Y193188686D01*
X-385940605Y193118367D01*
G37*
G36*
X-386051247Y190766125D02*
G01*
X-386054166Y190714076D01*
X-386066780Y190659789D01*
X-386078614Y190639267D01*
X-386095102Y190627375D01*
X-386105835Y190625624D01*
X-386314419Y190927875D01*
X-386316161Y190930508D01*
X-386334933Y190967860D01*
X-386342253Y191000471D01*
X-386345193Y191046943D01*
X-386344056Y191075110D01*
X-386338053Y191125428D01*
X-386323293Y191174717D01*
X-386311413Y191191732D01*
X-386295886Y191199798D01*
X-386292009Y191200083D01*
X-386087639Y190906625D01*
X-386071649Y190878835D01*
X-386060424Y190846079D01*
X-386053962Y190811510D01*
X-386051332Y190774440D01*
X-386051247Y190766125D01*
G37*
G36*
X-385127215Y193118367D02*
G01*
X-385129109Y193073421D01*
X-385134548Y193041164D01*
X-385152435Y193008081D01*
X-385187282Y192996780D01*
X-385202808Y192996550D01*
X-385202808Y191963586D01*
X-385204734Y191836249D01*
X-385209306Y191744256D01*
X-385218211Y191646658D01*
X-385232891Y191553414D01*
X-385254792Y191474481D01*
X-385285356Y191419819D01*
X-385326029Y191399385D01*
X-385350916Y191405352D01*
X-385375316Y191423668D01*
X-385397811Y191453071D01*
X-385419424Y191494717D01*
X-385439562Y191547996D01*
X-385458439Y191614086D01*
X-385460423Y191622135D01*
X-385472608Y191554113D01*
X-385496503Y191474148D01*
X-385514772Y191437196D01*
X-385537181Y191410688D01*
X-385566791Y191399385D01*
X-385610698Y191419490D01*
X-385651252Y191476430D01*
X-385684394Y191559120D01*
X-385686776Y191511377D01*
X-385692244Y191477721D01*
X-385708970Y191443644D01*
X-385740387Y191434556D01*
X-385782397Y191434556D01*
X-385799414Y191436460D01*
X-385817743Y191449783D01*
X-385832397Y191485948D01*
X-385838389Y191556372D01*
X-385836496Y191601318D01*
X-385831056Y191633575D01*
X-385813169Y191666658D01*
X-385778322Y191677959D01*
X-385762796Y191678189D01*
X-385762796Y192996550D01*
X-385793515Y192998454D01*
X-385817400Y193011777D01*
X-385832880Y193047942D01*
X-385838389Y193118367D01*
X-385836563Y193160943D01*
X-385831592Y193192206D01*
X-385814994Y193228089D01*
X-385788848Y193239871D01*
X-385782397Y193240000D01*
X-385664794Y193240000D01*
X-385647776Y193238099D01*
X-385629447Y193224795D01*
X-385614794Y193188686D01*
X-385608801Y193118367D01*
X-385610694Y193073457D01*
X-385616131Y193041214D01*
X-385634017Y193008106D01*
X-385668838Y192996782D01*
X-385684394Y192996550D01*
X-385684394Y192226453D01*
X-385682498Y192109087D01*
X-385677039Y192003075D01*
X-385668468Y191910096D01*
X-385657081Y191829732D01*
X-385643820Y191765181D01*
X-385628571Y191713582D01*
X-385612789Y191677658D01*
X-385595770Y191654147D01*
X-385572409Y191643018D01*
X-385559967Y191648732D01*
X-385549596Y191665282D01*
X-385534287Y191728495D01*
X-385524434Y191850170D01*
X-385522034Y191988866D01*
X-385522034Y192996550D01*
X-385541707Y192998454D01*
X-385561769Y193011777D01*
X-385577366Y193047942D01*
X-385581973Y193078158D01*
X-385583644Y193118367D01*
X-385581817Y193160254D01*
X-385576841Y193191217D01*
X-385560083Y193227422D01*
X-385533589Y193239818D01*
X-385526247Y193240000D01*
X-385424031Y193240000D01*
X-385407013Y193238099D01*
X-385388685Y193224795D01*
X-385374031Y193188686D01*
X-385368039Y193118367D01*
X-385369932Y193073421D01*
X-385375372Y193041164D01*
X-385393258Y193008081D01*
X-385428106Y192996780D01*
X-385443632Y192996550D01*
X-385443632Y192220774D01*
X-385441736Y192105200D01*
X-385436278Y192000576D01*
X-385427686Y191908414D01*
X-385416268Y191828628D01*
X-385402951Y191764368D01*
X-385387636Y191712973D01*
X-385371792Y191677210D01*
X-385354711Y191653863D01*
X-385331646Y191643018D01*
X-385319202Y191648732D01*
X-385308826Y191665282D01*
X-385293495Y191728510D01*
X-385283620Y191850173D01*
X-385281210Y191988866D01*
X-385281210Y192996550D01*
X-385300883Y192998454D01*
X-385320946Y193011777D01*
X-385336543Y193047942D01*
X-385341150Y193078158D01*
X-385342821Y193118367D01*
X-385340993Y193160254D01*
X-385336018Y193191217D01*
X-385319259Y193227422D01*
X-385292766Y193239818D01*
X-385285423Y193240000D01*
X-385183208Y193240000D01*
X-385166190Y193238099D01*
X-385147861Y193224795D01*
X-385133208Y193188686D01*
X-385127215Y193118367D01*
G37*
G36*
X-384774910Y193254450D02*
G01*
X-384709652Y193214918D01*
X-384673511Y193176202D01*
X-384637545Y193121612D01*
X-384621816Y193091256D01*
X-384599051Y193163636D01*
X-384564016Y193211740D01*
X-384512841Y193236497D01*
X-384470629Y193240000D01*
X-384445957Y193238099D01*
X-384424422Y193224795D01*
X-384409183Y193188686D01*
X-384403401Y193118367D01*
X-384405228Y193075726D01*
X-384410199Y193044416D01*
X-384426792Y193008484D01*
X-384452919Y192996680D01*
X-384459394Y192996550D01*
X-384506165Y192989748D01*
X-384541209Y192965576D01*
X-384543414Y192962845D01*
X-384543414Y192044187D01*
X-384545389Y191957271D01*
X-384551403Y191871126D01*
X-384561121Y191790418D01*
X-384574814Y191713256D01*
X-384591593Y191644555D01*
X-384612156Y191581487D01*
X-384635438Y191527564D01*
X-384662354Y191480910D01*
X-384692102Y191443490D01*
X-384725449Y191414881D01*
X-384762086Y191396175D01*
X-384802406Y191387967D01*
X-384812203Y191387662D01*
X-384867416Y191392193D01*
X-384931554Y191423909D01*
X-384960735Y191458457D01*
X-384984666Y191509996D01*
X-385000853Y191581924D01*
X-385006803Y191677639D01*
X-385004935Y191727311D01*
X-384999672Y191769254D01*
X-384980699Y191829370D01*
X-384952534Y191854375D01*
X-384949406Y191854593D01*
X-384937934Y191850893D01*
X-384920218Y191830854D01*
X-384903181Y191781068D01*
X-384897081Y191740830D01*
X-384893748Y191688128D01*
X-384893414Y191669213D01*
X-384892735Y191656244D01*
X-384889040Y191647620D01*
X-384862639Y191635507D01*
X-384810799Y191631294D01*
X-384784032Y191632940D01*
X-384753058Y191644460D01*
X-384719462Y191675730D01*
X-384684830Y191736624D01*
X-384665927Y191787926D01*
X-384652458Y191839304D01*
X-384638052Y191943775D01*
X-384634394Y192094745D01*
X-384752572Y192119034D01*
X-384812363Y192147593D01*
X-384873379Y192193542D01*
X-384884987Y192204471D01*
X-384925257Y192252907D01*
X-384965386Y192319943D01*
X-384990922Y192378432D01*
X-385012996Y192447562D01*
X-385027185Y192510760D01*
X-385037587Y192581516D01*
X-385044561Y192713534D01*
X-384953620Y192713534D01*
X-384946102Y192621100D01*
X-384923228Y192536078D01*
X-384881211Y192455676D01*
X-384814833Y192385050D01*
X-384721795Y192336206D01*
X-384634394Y192322990D01*
X-384634394Y192685690D01*
X-384635291Y192756542D01*
X-384641569Y192824268D01*
X-384658609Y192888834D01*
X-384691791Y192950205D01*
X-384738948Y192996467D01*
X-384795508Y193018631D01*
X-384810799Y193019998D01*
X-384839633Y193014306D01*
X-384866116Y192997909D01*
X-384890000Y192971620D01*
X-384910693Y192936553D01*
X-384927316Y192895187D01*
X-384940194Y192847501D01*
X-384948553Y192797783D01*
X-384952976Y192744106D01*
X-384953620Y192713534D01*
X-385044561Y192713534D01*
X-385044600Y192714267D01*
X-385037018Y192862506D01*
X-385014620Y192998966D01*
X-384978106Y193115705D01*
X-384954927Y193163853D01*
X-384928829Y193203571D01*
X-384900098Y193233882D01*
X-384868868Y193254002D01*
X-384826186Y193263447D01*
X-384774910Y193254450D01*
G37*
G36*
X-383756585Y192780029D02*
G01*
X-383758390Y192741125D01*
X-383763207Y192712752D01*
X-383779317Y192679878D01*
X-383802808Y192670669D01*
X-383821823Y192676411D01*
X-383833940Y192693155D01*
X-383845269Y192744287D01*
X-383847627Y192763176D01*
X-383858335Y192828726D01*
X-383870996Y192882189D01*
X-383902169Y192961205D01*
X-383940226Y193006463D01*
X-383980617Y193019998D01*
X-384036584Y192997422D01*
X-384089082Y192930576D01*
X-384134972Y192822243D01*
X-384154296Y192754346D01*
X-384170670Y192678550D01*
X-384183638Y192596711D01*
X-384193117Y192508690D01*
X-384200436Y192329767D01*
X-384198274Y192236830D01*
X-384190959Y192127143D01*
X-384179903Y192028662D01*
X-384163581Y191930293D01*
X-384146240Y191855379D01*
X-384124679Y191786822D01*
X-384102612Y191735358D01*
X-384076946Y191692328D01*
X-384050175Y191661892D01*
X-384020028Y191641265D01*
X-383976404Y191631294D01*
X-383896598Y191643934D01*
X-383887347Y191656046D01*
X-383885423Y191677639D01*
X-383882236Y191733895D01*
X-383876326Y191776744D01*
X-383858773Y191831116D01*
X-383836780Y191853095D01*
X-383829431Y191854410D01*
X-383813682Y191848618D01*
X-383799454Y191831520D01*
X-383787930Y191804952D01*
X-383779102Y191768776D01*
X-383773885Y191727024D01*
X-383772034Y191677639D01*
X-383773918Y191622506D01*
X-383779296Y191574846D01*
X-383799314Y191498645D01*
X-383833100Y191441089D01*
X-383884195Y191402733D01*
X-383953325Y191387993D01*
X-383975000Y191387662D01*
X-384014777Y191393366D01*
X-384051418Y191409849D01*
X-384085387Y191436517D01*
X-384116349Y191472265D01*
X-384171263Y191570760D01*
X-384216947Y191703471D01*
X-384253185Y191869092D01*
X-384278570Y192062975D01*
X-384290709Y192269711D01*
X-384291416Y192329767D01*
X-384283862Y192541154D01*
X-384261588Y192740063D01*
X-384225586Y192918161D01*
X-384202972Y192996493D01*
X-384177627Y193066333D01*
X-384150050Y193126357D01*
X-384120230Y193176504D01*
X-384089073Y193215287D01*
X-384056178Y193243144D01*
X-383993196Y193263447D01*
X-383956565Y193258189D01*
X-383923663Y193242647D01*
X-383866474Y193183901D01*
X-383820270Y193093315D01*
X-383784876Y192977088D01*
X-383762201Y192850595D01*
X-383756585Y192782227D01*
X-383756585Y192780029D01*
G37*
G36*
X-383811235Y190854602D02*
G01*
X-383800908Y190828338D01*
X-383794522Y190798177D01*
X-383792267Y190730081D01*
X-383804110Y190662523D01*
X-383814584Y190638558D01*
X-383827169Y190625955D01*
X-383839554Y190626768D01*
X-383852617Y190641082D01*
X-383854588Y190644492D01*
X-383998813Y190904977D01*
X-384143039Y190644492D01*
X-384155408Y190628456D01*
X-384167259Y190624613D01*
X-384188826Y190648564D01*
X-384203770Y190709898D01*
X-384206128Y190747854D01*
X-384204124Y190786505D01*
X-384198187Y190818916D01*
X-384187869Y190847467D01*
X-384186392Y190850389D01*
X-384018414Y191169492D01*
X-383996216Y191188396D01*
X-383976404Y191169492D01*
X-383811235Y190854602D01*
G37*
G36*
X-382547869Y194196319D02*
G01*
X-382504593Y194179492D01*
X-382463466Y194151988D01*
X-382425259Y194114562D01*
X-382391081Y194068946D01*
X-382360496Y194015083D01*
X-382335133Y193956859D01*
X-382313702Y193892296D01*
X-382297567Y193826888D01*
X-382285413Y193756872D01*
X-382277886Y193687553D01*
X-382274309Y193614932D01*
X-382274031Y193587862D01*
X-382275925Y193499383D01*
X-382281363Y193419968D01*
X-382301643Y193285334D01*
X-382333879Y193176445D01*
X-382378783Y193089745D01*
X-382437418Y193026175D01*
X-382507887Y192989934D01*
X-382567978Y192982079D01*
X-382686985Y192982079D01*
X-382706758Y192978510D01*
X-382733887Y192953526D01*
X-382746928Y192926310D01*
X-382757868Y192885711D01*
X-382765395Y192829050D01*
X-382768196Y192753651D01*
X-382766416Y192683814D01*
X-382761775Y192643299D01*
X-382759922Y192632154D01*
X-382758426Y192623225D01*
X-382735601Y192663680D01*
X-382707760Y192698680D01*
X-382677416Y192723371D01*
X-382644486Y192735804D01*
X-382633801Y192736615D01*
X-382575305Y192714193D01*
X-382521469Y192648475D01*
X-382474841Y192542684D01*
X-382438619Y192402922D01*
X-382425433Y192323521D01*
X-382415835Y192238929D01*
X-382408426Y192068916D01*
X-382410656Y191974787D01*
X-382418449Y191871354D01*
X-382429661Y191784215D01*
X-382446222Y191693576D01*
X-382398756Y191638023D01*
X-382355181Y191617922D01*
X-382343651Y191694457D01*
X-382324129Y191737986D01*
X-382304806Y191752561D01*
X-382290255Y191745878D01*
X-382273829Y191722547D01*
X-382263237Y191692269D01*
X-382255732Y191648653D01*
X-382253026Y191592643D01*
X-382255179Y191546140D01*
X-382262432Y191495139D01*
X-382273105Y191454250D01*
X-382288736Y191418349D01*
X-382306576Y191394316D01*
X-382328967Y191378904D01*
X-382352433Y191374289D01*
X-382389638Y191384288D01*
X-382443214Y191430829D01*
X-382471119Y191472221D01*
X-382499406Y191529628D01*
X-382552274Y191445052D01*
X-382607218Y191403921D01*
X-382632397Y191399385D01*
X-382690876Y191421807D01*
X-382744702Y191487526D01*
X-382791330Y191593330D01*
X-382827559Y191733118D01*
X-382840751Y191812536D01*
X-382850354Y191897144D01*
X-382857772Y192067267D01*
X-382857748Y192068183D01*
X-382766791Y192068183D01*
X-382759466Y191926984D01*
X-382738243Y191802053D01*
X-382705030Y191704206D01*
X-382685168Y191669699D01*
X-382663861Y191646431D01*
X-382633801Y191634591D01*
X-382590779Y191658992D01*
X-382552088Y191726484D01*
X-382521471Y191832836D01*
X-382510590Y191897486D01*
X-382503198Y191968146D01*
X-382499461Y192069248D01*
X-382506806Y192210484D01*
X-382528311Y192336808D01*
X-382543765Y192389962D01*
X-382561783Y192434117D01*
X-382581657Y192467646D01*
X-382603311Y192490231D01*
X-382633801Y192501409D01*
X-382675579Y192479020D01*
X-382714199Y192412364D01*
X-382730907Y192363441D01*
X-382744951Y192305778D01*
X-382755772Y192241186D01*
X-382763125Y192169951D01*
X-382766791Y192068183D01*
X-382857748Y192068183D01*
X-382855094Y192168736D01*
X-382844168Y192294995D01*
X-382831567Y192378777D01*
X-382813272Y192463962D01*
X-382811610Y192470451D01*
X-382832462Y192596893D01*
X-382841834Y192729178D01*
X-382842384Y192764459D01*
X-382835888Y192898794D01*
X-382818032Y193022054D01*
X-382807397Y193066892D01*
X-382851834Y193166341D01*
X-382884785Y193292958D01*
X-382905573Y193440880D01*
X-382912421Y193587862D01*
X-382832615Y193587862D01*
X-382829595Y193510604D01*
X-382816271Y193409230D01*
X-382803015Y193354129D01*
X-382784245Y193301988D01*
X-382773813Y193280483D01*
X-382747746Y193239731D01*
X-382715968Y193221847D01*
X-382630992Y193217285D01*
X-382535694Y193223075D01*
X-382489130Y193236827D01*
X-382446177Y193263607D01*
X-382409000Y193307758D01*
X-382379764Y193373622D01*
X-382360634Y193465543D01*
X-382353777Y193587862D01*
X-382361319Y193679309D01*
X-382385175Y193771749D01*
X-382428346Y193860095D01*
X-382491580Y193930256D01*
X-382529534Y193953026D01*
X-382570601Y193965172D01*
X-382593196Y193966866D01*
X-382672741Y193944950D01*
X-382709193Y193918296D01*
X-382741870Y193882855D01*
X-382770045Y193840325D01*
X-382793577Y193791642D01*
X-382810915Y193741808D01*
X-382823434Y193688692D01*
X-382830222Y193639405D01*
X-382832613Y193589004D01*
X-382832615Y193587862D01*
X-382912421Y193587862D01*
X-382904868Y193725098D01*
X-382882283Y193854291D01*
X-382843806Y193973914D01*
X-382788455Y194077934D01*
X-382716796Y194156293D01*
X-382675581Y194182363D01*
X-382631967Y194197813D01*
X-382593196Y194202072D01*
X-382547869Y194196319D01*
G37*
G36*
X-381802630Y193257826D02*
G01*
X-381768735Y193241929D01*
X-381708688Y193181921D01*
X-381659356Y193089370D01*
X-381621551Y192971667D01*
X-381598339Y192846282D01*
X-381593571Y192780029D01*
X-381594587Y192752307D01*
X-381599745Y192714579D01*
X-381612211Y192680222D01*
X-381635150Y192662613D01*
X-381639794Y192662243D01*
X-381657079Y192668184D01*
X-381668954Y192686321D01*
X-381683208Y192754750D01*
X-381706773Y192865870D01*
X-381740098Y192946425D01*
X-381782420Y192998398D01*
X-381827914Y193019448D01*
X-381835799Y193019998D01*
X-381893263Y192997597D01*
X-381946603Y192931682D01*
X-381993354Y192824948D01*
X-382030200Y192683164D01*
X-382043805Y192602382D01*
X-382053823Y192516452D01*
X-382059769Y192431067D01*
X-381649624Y192431067D01*
X-381628450Y192428634D01*
X-381610561Y192411604D01*
X-381598190Y192365379D01*
X-381593571Y192275362D01*
X-381595519Y192153601D01*
X-381601340Y192037002D01*
X-381610624Y191930107D01*
X-381623468Y191829992D01*
X-381639039Y191741541D01*
X-381657804Y191660993D01*
X-381678662Y191592270D01*
X-381702379Y191532229D01*
X-381727924Y191483251D01*
X-381756080Y191443667D01*
X-381786212Y191414594D01*
X-381818816Y191395795D01*
X-381861017Y191387662D01*
X-381925376Y191410279D01*
X-381986284Y191477245D01*
X-382041681Y191586851D01*
X-382088821Y191735509D01*
X-382108354Y191822552D01*
X-382124712Y191916588D01*
X-382137572Y192016072D01*
X-382146823Y192120850D01*
X-382149504Y192200075D01*
X-382058365Y192200075D01*
X-382041756Y192020314D01*
X-382012538Y191868020D01*
X-381972561Y191748184D01*
X-381924603Y191667585D01*
X-381898926Y191644122D01*
X-381872776Y191632535D01*
X-381861017Y191631294D01*
X-381831766Y191636952D01*
X-381805925Y191653111D01*
X-381763412Y191712499D01*
X-381730626Y191805263D01*
X-381706234Y191932343D01*
X-381690594Y192094184D01*
X-381686032Y192199708D01*
X-382058365Y192200075D01*
X-382149504Y192200075D01*
X-382153620Y192321707D01*
X-382146080Y192530231D01*
X-382123888Y192725671D01*
X-382087855Y192901798D01*
X-382039360Y193050881D01*
X-382011109Y193112701D01*
X-381980599Y193164866D01*
X-381948372Y193206387D01*
X-381914425Y193237093D01*
X-381879702Y193256066D01*
X-381843797Y193263380D01*
X-381840012Y193263447D01*
X-381802630Y193257826D01*
G37*
G36*
X-380882397Y192715000D02*
G01*
X-380884286Y192638576D01*
X-380889698Y192569605D01*
X-380910217Y192449635D01*
X-380943737Y192348644D01*
X-380991690Y192264601D01*
X-381054914Y192199900D01*
X-381123220Y192160507D01*
X-381125373Y192159406D01*
X-381208870Y192113948D01*
X-381273630Y192061635D01*
X-381297691Y192028431D01*
X-381315518Y191988141D01*
X-381326593Y191938974D01*
X-381330399Y191879139D01*
X-381328363Y191836812D01*
X-381321925Y191794303D01*
X-381311411Y191755684D01*
X-381296155Y191719849D01*
X-381275878Y191688392D01*
X-381250104Y191662501D01*
X-381217699Y191643266D01*
X-381178714Y191632787D01*
X-381155399Y191631294D01*
X-381118656Y191636873D01*
X-381089027Y191652481D01*
X-381066567Y191675297D01*
X-381049235Y191704281D01*
X-381027014Y191775620D01*
X-381016449Y191865179D01*
X-381013982Y191929515D01*
X-381010969Y191965130D01*
X-381005199Y191990920D01*
X-380987035Y192020317D01*
X-380969164Y192026235D01*
X-380950293Y192020652D01*
X-380937426Y192005020D01*
X-380925830Y191957892D01*
X-380923002Y191866500D01*
X-380923002Y191547397D01*
X-380923614Y191494076D01*
X-380927902Y191442319D01*
X-380939540Y191403166D01*
X-380962203Y191387662D01*
X-380984755Y191406759D01*
X-380999377Y191454523D01*
X-381004213Y191488595D01*
X-381052293Y191425280D01*
X-381108075Y191392989D01*
X-381152590Y191387662D01*
X-381200581Y191393291D01*
X-381242356Y191409248D01*
X-381278185Y191434004D01*
X-381308683Y191466234D01*
X-381334632Y191505207D01*
X-381355941Y191549027D01*
X-381387632Y191650926D01*
X-381405916Y191766383D01*
X-381411610Y191879139D01*
X-381409709Y191947888D01*
X-381404219Y192010569D01*
X-381383133Y192121081D01*
X-381347695Y192216743D01*
X-381330399Y192248801D01*
X-381300928Y192291251D01*
X-381267806Y192323678D01*
X-381130181Y192399926D01*
X-381122930Y192404143D01*
X-381074138Y192435846D01*
X-381022027Y192490207D01*
X-380999082Y192529842D01*
X-380980536Y192579891D01*
X-380968130Y192641938D01*
X-380963607Y192717564D01*
X-380965618Y192771534D01*
X-380971873Y192823492D01*
X-380981697Y192868475D01*
X-380995684Y192909565D01*
X-381013726Y192945111D01*
X-381036289Y192974901D01*
X-381097744Y193013794D01*
X-381141416Y193019998D01*
X-381176337Y193013903D01*
X-381207847Y192994687D01*
X-381231572Y192967559D01*
X-381252942Y192929480D01*
X-381270654Y192883709D01*
X-381286364Y192827185D01*
X-381312043Y192677443D01*
X-381319164Y192612601D01*
X-381319889Y192606499D01*
X-381325046Y192567485D01*
X-381332460Y192536120D01*
X-381344964Y192515229D01*
X-381365387Y192507637D01*
X-381383878Y192513210D01*
X-381396634Y192528772D01*
X-381408522Y192576251D01*
X-381411610Y192671402D01*
X-381411610Y193103895D01*
X-381410997Y193157187D01*
X-381406710Y193208881D01*
X-381395072Y193247971D01*
X-381372409Y193263447D01*
X-381360398Y193260756D01*
X-381348771Y193241923D01*
X-381336353Y193190804D01*
X-381321973Y193091256D01*
X-381273606Y193184258D01*
X-381219552Y193240252D01*
X-381160797Y193262399D01*
X-381141416Y193263447D01*
X-381095980Y193257818D01*
X-381056195Y193241865D01*
X-381021602Y193216912D01*
X-380991935Y193184398D01*
X-380944809Y193099800D01*
X-380911860Y192994041D01*
X-380891407Y192872739D01*
X-380882900Y192752960D01*
X-380882397Y192717564D01*
X-380882397Y192715000D01*
G37*
G36*
X-380173970Y192723243D02*
G01*
X-380174692Y192660477D01*
X-380179748Y192604014D01*
X-380193471Y192563247D01*
X-380220193Y192547571D01*
X-380237074Y192553135D01*
X-380249075Y192568635D01*
X-380261266Y192617805D01*
X-380264969Y192701388D01*
X-380265012Y192727273D01*
X-380267225Y192790401D01*
X-380272730Y192843990D01*
X-380292125Y192927707D01*
X-380322038Y192985589D01*
X-380360863Y193016520D01*
X-380378401Y193019998D01*
X-380407106Y193014423D01*
X-380430279Y192998847D01*
X-380448046Y192975790D01*
X-380461698Y192946506D01*
X-380479388Y192871747D01*
X-380486911Y192774607D01*
X-380487578Y192710603D01*
X-380487578Y191678189D01*
X-380260799Y191678189D01*
X-380243781Y191676285D01*
X-380225452Y191662962D01*
X-380210798Y191626797D01*
X-380204806Y191556372D01*
X-380206632Y191513732D01*
X-380211603Y191482422D01*
X-380228196Y191446490D01*
X-380254323Y191434686D01*
X-380260799Y191434556D01*
X-380487578Y191434556D01*
X-380487578Y191090724D01*
X-380488278Y191032008D01*
X-380493180Y190976418D01*
X-380506486Y190934979D01*
X-380532397Y190918715D01*
X-380549429Y190924239D01*
X-380561652Y190939454D01*
X-380574501Y190987896D01*
X-380578501Y191065844D01*
X-380578558Y191090724D01*
X-380578558Y191434556D01*
X-380697566Y191434556D01*
X-380714803Y191436460D01*
X-380733615Y191449783D01*
X-380748751Y191485948D01*
X-380754963Y191556372D01*
X-380753136Y191599013D01*
X-380748166Y191630323D01*
X-380731572Y191666255D01*
X-380705445Y191678059D01*
X-380698970Y191678189D01*
X-380578558Y191678189D01*
X-380578558Y192731486D01*
X-380576653Y192825750D01*
X-380571131Y192909643D01*
X-380562517Y192982005D01*
X-380550997Y193045185D01*
X-380519907Y193146447D01*
X-380477760Y193217588D01*
X-380423567Y193257204D01*
X-380388171Y193263447D01*
X-380355600Y193257132D01*
X-380319250Y193236380D01*
X-380287031Y193204887D01*
X-380255785Y193158960D01*
X-380232504Y193110281D01*
X-380211899Y193050203D01*
X-380197152Y192989413D01*
X-380185566Y192919152D01*
X-380178225Y192846247D01*
X-380174417Y192764556D01*
X-380173970Y192723243D01*
G37*
G36*
X-378652154Y193118367D02*
G01*
X-378654023Y193075031D01*
X-378659287Y193043427D01*
X-378676896Y193008981D01*
X-378709253Y192996835D01*
X-378723595Y192996550D01*
X-378723595Y190916151D01*
X-378697079Y190914248D01*
X-378674228Y190900924D01*
X-378658199Y190864760D01*
X-378652154Y190794335D01*
X-378653981Y190752384D01*
X-378658957Y190721375D01*
X-378675710Y190685121D01*
X-378702185Y190672702D01*
X-378709551Y190672519D01*
X-378783801Y190672519D01*
X-378811009Y190678442D01*
X-378829737Y190696456D01*
X-378847157Y190748698D01*
X-378857990Y190832254D01*
X-378939200Y191584399D01*
X-378946461Y191652815D01*
X-378970780Y191887945D01*
X-378988171Y192097126D01*
X-378989576Y192097126D01*
X-379008307Y191873786D01*
X-379079472Y191184411D01*
X-379125375Y190769239D01*
X-379133689Y190729749D01*
X-379143538Y190702805D01*
X-379167799Y190676193D01*
X-379192602Y190672519D01*
X-379266791Y190672519D01*
X-379284028Y190674422D01*
X-379302840Y190687746D01*
X-379317976Y190723910D01*
X-379324188Y190794335D01*
X-379322319Y190837702D01*
X-379317054Y190869320D01*
X-379299445Y190903744D01*
X-379267069Y190915868D01*
X-379252747Y190916151D01*
X-379252747Y192996550D01*
X-379279289Y192998454D01*
X-379302138Y193011777D01*
X-379318152Y193047942D01*
X-379324188Y193118367D01*
X-379322361Y193160254D01*
X-379317386Y193191217D01*
X-379300627Y193227422D01*
X-379274134Y193239818D01*
X-379266791Y193240000D01*
X-379160362Y193240000D01*
X-379143125Y193238099D01*
X-379124314Y193224795D01*
X-379109177Y193188686D01*
X-379102965Y193118367D01*
X-379104834Y193074999D01*
X-379110099Y193043381D01*
X-379127703Y193008953D01*
X-379160058Y192996832D01*
X-379174345Y192996550D01*
X-379174345Y190966709D01*
X-379173002Y190966709D01*
X-379161423Y191122666D01*
X-379143571Y191294422D01*
X-379044164Y192231582D01*
X-379040051Y192268648D01*
X-379030770Y192318173D01*
X-379014695Y192362205D01*
X-378990200Y192382791D01*
X-378988171Y192382890D01*
X-378975058Y192376907D01*
X-378961149Y192358474D01*
X-378948543Y192328247D01*
X-378938227Y192285130D01*
X-378936392Y192273714D01*
X-378821260Y191180626D01*
X-378801997Y190974952D01*
X-378801997Y192996550D01*
X-378828503Y192998454D01*
X-378851334Y193011777D01*
X-378867342Y193047942D01*
X-378873377Y193118367D01*
X-378871550Y193160254D01*
X-378866575Y193191217D01*
X-378849816Y193227422D01*
X-378823322Y193239818D01*
X-378815980Y193240000D01*
X-378709551Y193240000D01*
X-378692314Y193238099D01*
X-378673502Y193224795D01*
X-378658366Y193188686D01*
X-378652154Y193118367D01*
G37*
G36*
X-377978777Y193067808D02*
G01*
X-377978777Y192979698D01*
X-377979477Y192920982D01*
X-377984379Y192865392D01*
X-377997684Y192823953D01*
X-378023595Y192807690D01*
X-378041299Y192813302D01*
X-378053776Y192829143D01*
X-378065984Y192878689D01*
X-378069706Y192965715D01*
X-378069757Y192996550D01*
X-378407178Y192996550D01*
X-378139794Y192316762D01*
X-378139448Y192315874D01*
X-378105545Y192221528D01*
X-378051292Y192031473D01*
X-378024115Y191906463D01*
X-378000949Y191764617D01*
X-377984825Y191608297D01*
X-377978777Y191439869D01*
X-377980700Y191341101D01*
X-377986347Y191246964D01*
X-378008338Y191072703D01*
X-378043916Y190920016D01*
X-378092327Y190793226D01*
X-378152519Y190697996D01*
X-378186627Y190664103D01*
X-378222854Y190640545D01*
X-378285362Y190625624D01*
X-378352965Y190647888D01*
X-378414257Y190712423D01*
X-378467620Y190815616D01*
X-378510612Y190951924D01*
X-378527332Y191029850D01*
X-378540342Y191111895D01*
X-378549415Y191196192D01*
X-378554483Y191282080D01*
X-378555556Y191343332D01*
X-378553739Y191397554D01*
X-378548839Y191440215D01*
X-378532142Y191498357D01*
X-378509047Y191527067D01*
X-378498159Y191530727D01*
X-378470707Y191510097D01*
X-378458543Y191483055D01*
X-378448990Y191445151D01*
X-378442166Y191360734D01*
X-378443904Y191309154D01*
X-378448249Y191274586D01*
X-378458958Y191238918D01*
X-378450509Y191165556D01*
X-378438791Y191098772D01*
X-378406205Y190986635D01*
X-378385818Y190943031D01*
X-378363106Y190908891D01*
X-378338337Y190884894D01*
X-378311768Y190871709D01*
X-378293789Y190869256D01*
X-378259491Y190875075D01*
X-378226495Y190892360D01*
X-378195846Y190920242D01*
X-378167417Y190958689D01*
X-378142839Y191004915D01*
X-378121122Y191060294D01*
X-378103688Y191120507D01*
X-378089491Y191188445D01*
X-378079324Y191259908D01*
X-378072676Y191338021D01*
X-378069757Y191440418D01*
X-378077071Y191607964D01*
X-378099098Y191773892D01*
X-378137360Y191944779D01*
X-378195112Y192128702D01*
X-378227965Y192217477D01*
X-378535956Y193019631D01*
X-378551526Y193065358D01*
X-378555556Y193120565D01*
X-378553729Y193161696D01*
X-378548754Y193192099D01*
X-378531933Y193227716D01*
X-378505214Y193239840D01*
X-378498159Y193240000D01*
X-378009551Y193240000D01*
X-377997332Y193224354D01*
X-377988870Y193201980D01*
X-377980185Y193139852D01*
X-377978777Y193067808D01*
G37*
G36*
X-377301186Y193118367D02*
G01*
X-377303012Y193075726D01*
X-377307983Y193044416D01*
X-377324576Y193008484D01*
X-377350703Y192996680D01*
X-377357178Y192996550D01*
X-377499938Y192996550D01*
X-377499938Y190916151D01*
X-377357178Y190916151D01*
X-377340161Y190914248D01*
X-377321832Y190900924D01*
X-377307178Y190864760D01*
X-377301186Y190794335D01*
X-377303012Y190751694D01*
X-377307983Y190720384D01*
X-377324576Y190684453D01*
X-377350703Y190672649D01*
X-377357178Y190672519D01*
X-377733740Y190672519D01*
X-377750758Y190674422D01*
X-377769086Y190687746D01*
X-377783740Y190723910D01*
X-377789733Y190794335D01*
X-377787906Y190836976D01*
X-377782936Y190868286D01*
X-377766342Y190904217D01*
X-377740215Y190916021D01*
X-377733740Y190916151D01*
X-377590980Y190916151D01*
X-377590980Y192996550D01*
X-377733740Y192996550D01*
X-377750758Y192998454D01*
X-377769086Y193011777D01*
X-377783740Y193047942D01*
X-377789733Y193118367D01*
X-377787906Y193160943D01*
X-377782936Y193192206D01*
X-377766337Y193228089D01*
X-377740192Y193239871D01*
X-377733740Y193240000D01*
X-377357178Y193240000D01*
X-377340161Y193238099D01*
X-377321832Y193224795D01*
X-377307178Y193188686D01*
X-377301186Y193118367D01*
G37*
G36*
X-376578777Y193118367D02*
G01*
X-376580604Y193076416D01*
X-376585579Y193045406D01*
X-376602333Y193009153D01*
X-376628808Y192996733D01*
X-376636174Y192996550D01*
X-376759333Y192996550D01*
X-376759333Y190799098D01*
X-376759968Y190745253D01*
X-376764409Y190688593D01*
X-376776463Y190643816D01*
X-376799938Y190625624D01*
X-376813927Y190631239D01*
X-376824250Y190647097D01*
X-376838177Y190703690D01*
X-376840544Y190718681D01*
X-376862137Y190847905D01*
X-376890569Y190972289D01*
X-376911384Y191037601D01*
X-376935069Y191090389D01*
X-376955858Y191120521D01*
X-376978582Y191138359D01*
X-376987578Y191141465D01*
X-377004311Y191146923D01*
X-377020642Y191163012D01*
X-377033036Y191198781D01*
X-377037953Y191263281D01*
X-377035970Y191306298D01*
X-377029907Y191341661D01*
X-377021297Y191364599D01*
X-377009432Y191379446D01*
X-376993135Y191385097D01*
X-376946404Y191364862D01*
X-376899529Y191305520D01*
X-376858855Y191221594D01*
X-376853203Y191207295D01*
X-376850375Y191200266D01*
X-376850375Y192996550D01*
X-376973534Y192996550D01*
X-376990771Y192998454D01*
X-377009583Y193011777D01*
X-377024719Y193047942D01*
X-377030931Y193118367D01*
X-377029104Y193160254D01*
X-377024129Y193191217D01*
X-377007370Y193227422D01*
X-376980877Y193239818D01*
X-376973534Y193240000D01*
X-376636174Y193240000D01*
X-376618936Y193238099D01*
X-376600125Y193224795D01*
X-376584989Y193188686D01*
X-376578777Y193118367D01*
G37*
M02*
