%TF.GenerationSoftware,KiCad,Pcbnew,9.0.7+1*%
%TF.CreationDate,2026-04-07T16:13:12+02:00*%
%TF.ProjectId,PCB,5043422e-6b69-4636-9164-5f7063625858,rev?*%
%TF.SameCoordinates,Original*%
%TF.FileFunction,Legend,Top*%
%TF.FilePolarity,Positive*%
%FSLAX46Y46*%
G04 Gerber Fmt 4.6, Leading zero omitted, Abs format (unit mm)*
G04 Created by KiCad (PCBNEW 9.0.7+1) date 2026-04-07 16:13:12*
%MOMM*%
%LPD*%
G01*
G04 APERTURE LIST*
%ADD10C,0.100000*%
%ADD11C,0.150000*%
%ADD12C,0.120000*%
G04 APERTURE END LIST*
D10*
X-367483332Y210840200D02*
X-367340475Y210792580D01*
X-367340475Y210792580D02*
X-367102380Y210792580D01*
X-367102380Y210792580D02*
X-367007142Y210840200D01*
X-367007142Y210840200D02*
X-366959523Y210887819D01*
X-366959523Y210887819D02*
X-366911904Y210983057D01*
X-366911904Y210983057D02*
X-366911904Y211078295D01*
X-366911904Y211078295D02*
X-366959523Y211173533D01*
X-366959523Y211173533D02*
X-367007142Y211221152D01*
X-367007142Y211221152D02*
X-367102380Y211268771D01*
X-367102380Y211268771D02*
X-367292856Y211316390D01*
X-367292856Y211316390D02*
X-367388094Y211364009D01*
X-367388094Y211364009D02*
X-367435713Y211411628D01*
X-367435713Y211411628D02*
X-367483332Y211506866D01*
X-367483332Y211506866D02*
X-367483332Y211602104D01*
X-367483332Y211602104D02*
X-367435713Y211697342D01*
X-367435713Y211697342D02*
X-367388094Y211744961D01*
X-367388094Y211744961D02*
X-367292856Y211792580D01*
X-367292856Y211792580D02*
X-367054761Y211792580D01*
X-367054761Y211792580D02*
X-366911904Y211744961D01*
X-366578570Y211792580D02*
X-366340475Y210792580D01*
X-366340475Y210792580D02*
X-366149999Y211506866D01*
X-366149999Y211506866D02*
X-365959523Y210792580D01*
X-365959523Y210792580D02*
X-365721428Y211792580D01*
X-365388094Y211697342D02*
X-365340475Y211744961D01*
X-365340475Y211744961D02*
X-365245237Y211792580D01*
X-365245237Y211792580D02*
X-365007142Y211792580D01*
X-365007142Y211792580D02*
X-364911904Y211744961D01*
X-364911904Y211744961D02*
X-364864285Y211697342D01*
X-364864285Y211697342D02*
X-364816666Y211602104D01*
X-364816666Y211602104D02*
X-364816666Y211506866D01*
X-364816666Y211506866D02*
X-364864285Y211364009D01*
X-364864285Y211364009D02*
X-365435713Y210792580D01*
X-365435713Y210792580D02*
X-364816666Y210792580D01*
X-392583333Y241292580D02*
X-392583333Y240578295D01*
X-392583333Y240578295D02*
X-392630952Y240435438D01*
X-392630952Y240435438D02*
X-392726190Y240340200D01*
X-392726190Y240340200D02*
X-392869047Y240292580D01*
X-392869047Y240292580D02*
X-392964285Y240292580D01*
X-391583333Y240292580D02*
X-392154761Y240292580D01*
X-391869047Y240292580D02*
X-391869047Y241292580D01*
X-391869047Y241292580D02*
X-391964285Y241149723D01*
X-391964285Y241149723D02*
X-392059523Y241054485D01*
X-392059523Y241054485D02*
X-392154761Y241006866D01*
X-385261904Y199042580D02*
X-385261904Y198233057D01*
X-385261904Y198233057D02*
X-385214285Y198137819D01*
X-385214285Y198137819D02*
X-385166666Y198090200D01*
X-385166666Y198090200D02*
X-385071428Y198042580D01*
X-385071428Y198042580D02*
X-384880952Y198042580D01*
X-384880952Y198042580D02*
X-384785714Y198090200D01*
X-384785714Y198090200D02*
X-384738095Y198137819D01*
X-384738095Y198137819D02*
X-384690476Y198233057D01*
X-384690476Y198233057D02*
X-384690476Y199042580D01*
X-384309523Y199042580D02*
X-383690476Y199042580D01*
X-383690476Y199042580D02*
X-384023809Y198661628D01*
X-384023809Y198661628D02*
X-383880952Y198661628D01*
X-383880952Y198661628D02*
X-383785714Y198614009D01*
X-383785714Y198614009D02*
X-383738095Y198566390D01*
X-383738095Y198566390D02*
X-383690476Y198471152D01*
X-383690476Y198471152D02*
X-383690476Y198233057D01*
X-383690476Y198233057D02*
X-383738095Y198137819D01*
X-383738095Y198137819D02*
X-383785714Y198090200D01*
X-383785714Y198090200D02*
X-383880952Y198042580D01*
X-383880952Y198042580D02*
X-384166666Y198042580D01*
X-384166666Y198042580D02*
X-384261904Y198090200D01*
X-384261904Y198090200D02*
X-384309523Y198137819D01*
D11*
X-375238094Y209545180D02*
X-375238094Y210545180D01*
X-375238094Y210545180D02*
X-374999999Y210545180D01*
X-374999999Y210545180D02*
X-374857142Y210497561D01*
X-374857142Y210497561D02*
X-374761904Y210402323D01*
X-374761904Y210402323D02*
X-374714285Y210307085D01*
X-374714285Y210307085D02*
X-374666666Y210116609D01*
X-374666666Y210116609D02*
X-374666666Y209973752D01*
X-374666666Y209973752D02*
X-374714285Y209783276D01*
X-374714285Y209783276D02*
X-374761904Y209688038D01*
X-374761904Y209688038D02*
X-374857142Y209592800D01*
X-374857142Y209592800D02*
X-374999999Y209545180D01*
X-374999999Y209545180D02*
X-375238094Y209545180D01*
X-373714285Y209545180D02*
X-374285713Y209545180D01*
X-373999999Y209545180D02*
X-373999999Y210545180D01*
X-373999999Y210545180D02*
X-374095237Y210402323D01*
X-374095237Y210402323D02*
X-374190475Y210307085D01*
X-374190475Y210307085D02*
X-374285713Y210259466D01*
X-381476666Y210045180D02*
X-381809999Y210521371D01*
X-382048094Y210045180D02*
X-382048094Y211045180D01*
X-382048094Y211045180D02*
X-381667142Y211045180D01*
X-381667142Y211045180D02*
X-381571904Y210997561D01*
X-381571904Y210997561D02*
X-381524285Y210949942D01*
X-381524285Y210949942D02*
X-381476666Y210854704D01*
X-381476666Y210854704D02*
X-381476666Y210711847D01*
X-381476666Y210711847D02*
X-381524285Y210616609D01*
X-381524285Y210616609D02*
X-381571904Y210568990D01*
X-381571904Y210568990D02*
X-381667142Y210521371D01*
X-381667142Y210521371D02*
X-382048094Y210521371D01*
X-381095713Y210949942D02*
X-381048094Y210997561D01*
X-381048094Y210997561D02*
X-380952856Y211045180D01*
X-380952856Y211045180D02*
X-380714761Y211045180D01*
X-380714761Y211045180D02*
X-380619523Y210997561D01*
X-380619523Y210997561D02*
X-380571904Y210949942D01*
X-380571904Y210949942D02*
X-380524285Y210854704D01*
X-380524285Y210854704D02*
X-380524285Y210759466D01*
X-380524285Y210759466D02*
X-380571904Y210616609D01*
X-380571904Y210616609D02*
X-381143332Y210045180D01*
X-381143332Y210045180D02*
X-380524285Y210045180D01*
D10*
X-366583333Y204042580D02*
X-366583333Y203328295D01*
X-366583333Y203328295D02*
X-366630952Y203185438D01*
X-366630952Y203185438D02*
X-366726190Y203090200D01*
X-366726190Y203090200D02*
X-366869047Y203042580D01*
X-366869047Y203042580D02*
X-366964285Y203042580D01*
X-366154761Y203947342D02*
X-366107142Y203994961D01*
X-366107142Y203994961D02*
X-366011904Y204042580D01*
X-366011904Y204042580D02*
X-365773809Y204042580D01*
X-365773809Y204042580D02*
X-365678571Y203994961D01*
X-365678571Y203994961D02*
X-365630952Y203947342D01*
X-365630952Y203947342D02*
X-365583333Y203852104D01*
X-365583333Y203852104D02*
X-365583333Y203756866D01*
X-365583333Y203756866D02*
X-365630952Y203614009D01*
X-365630952Y203614009D02*
X-366202380Y203042580D01*
X-366202380Y203042580D02*
X-365583333Y203042580D01*
X-390238095Y228207419D02*
X-390238095Y229016942D01*
X-390238095Y229016942D02*
X-390285714Y229112180D01*
X-390285714Y229112180D02*
X-390333333Y229159800D01*
X-390333333Y229159800D02*
X-390428571Y229207419D01*
X-390428571Y229207419D02*
X-390619047Y229207419D01*
X-390619047Y229207419D02*
X-390714285Y229159800D01*
X-390714285Y229159800D02*
X-390761904Y229112180D01*
X-390761904Y229112180D02*
X-390809523Y229016942D01*
X-390809523Y229016942D02*
X-390809523Y228207419D01*
X-391238095Y228302657D02*
X-391285714Y228255038D01*
X-391285714Y228255038D02*
X-391380952Y228207419D01*
X-391380952Y228207419D02*
X-391619047Y228207419D01*
X-391619047Y228207419D02*
X-391714285Y228255038D01*
X-391714285Y228255038D02*
X-391761904Y228302657D01*
X-391761904Y228302657D02*
X-391809523Y228397895D01*
X-391809523Y228397895D02*
X-391809523Y228493133D01*
X-391809523Y228493133D02*
X-391761904Y228635990D01*
X-391761904Y228635990D02*
X-391190476Y229207419D01*
X-391190476Y229207419D02*
X-391809523Y229207419D01*
X-393916667Y208909800D02*
X-394059524Y208957419D01*
X-394059524Y208957419D02*
X-394297619Y208957419D01*
X-394297619Y208957419D02*
X-394392857Y208909800D01*
X-394392857Y208909800D02*
X-394440476Y208862180D01*
X-394440476Y208862180D02*
X-394488095Y208766942D01*
X-394488095Y208766942D02*
X-394488095Y208671704D01*
X-394488095Y208671704D02*
X-394440476Y208576466D01*
X-394440476Y208576466D02*
X-394392857Y208528847D01*
X-394392857Y208528847D02*
X-394297619Y208481228D01*
X-394297619Y208481228D02*
X-394107143Y208433609D01*
X-394107143Y208433609D02*
X-394011905Y208385990D01*
X-394011905Y208385990D02*
X-393964286Y208338371D01*
X-393964286Y208338371D02*
X-393916667Y208243133D01*
X-393916667Y208243133D02*
X-393916667Y208147895D01*
X-393916667Y208147895D02*
X-393964286Y208052657D01*
X-393964286Y208052657D02*
X-394011905Y208005038D01*
X-394011905Y208005038D02*
X-394107143Y207957419D01*
X-394107143Y207957419D02*
X-394345238Y207957419D01*
X-394345238Y207957419D02*
X-394488095Y208005038D01*
X-394821429Y207957419D02*
X-395059524Y208957419D01*
X-395059524Y208957419D02*
X-395250000Y208243133D01*
X-395250000Y208243133D02*
X-395440476Y208957419D01*
X-395440476Y208957419D02*
X-395678572Y207957419D01*
X-396583333Y208957419D02*
X-396011905Y208957419D01*
X-396297619Y208957419D02*
X-396297619Y207957419D01*
X-396297619Y207957419D02*
X-396202381Y208100276D01*
X-396202381Y208100276D02*
X-396107143Y208195514D01*
X-396107143Y208195514D02*
X-396011905Y208243133D01*
X-366761904Y241292580D02*
X-366761904Y240483057D01*
X-366761904Y240483057D02*
X-366714285Y240387819D01*
X-366714285Y240387819D02*
X-366666666Y240340200D01*
X-366666666Y240340200D02*
X-366571428Y240292580D01*
X-366571428Y240292580D02*
X-366380952Y240292580D01*
X-366380952Y240292580D02*
X-366285714Y240340200D01*
X-366285714Y240340200D02*
X-366238095Y240387819D01*
X-366238095Y240387819D02*
X-366190476Y240483057D01*
X-366190476Y240483057D02*
X-366190476Y241292580D01*
X-365190476Y240292580D02*
X-365761904Y240292580D01*
X-365476190Y240292580D02*
X-365476190Y241292580D01*
X-365476190Y241292580D02*
X-365571428Y241149723D01*
X-365571428Y241149723D02*
X-365666666Y241054485D01*
X-365666666Y241054485D02*
X-365761904Y241006866D01*
D11*
X-381476666Y213545180D02*
X-381809999Y214021371D01*
X-382048094Y213545180D02*
X-382048094Y214545180D01*
X-382048094Y214545180D02*
X-381667142Y214545180D01*
X-381667142Y214545180D02*
X-381571904Y214497561D01*
X-381571904Y214497561D02*
X-381524285Y214449942D01*
X-381524285Y214449942D02*
X-381476666Y214354704D01*
X-381476666Y214354704D02*
X-381476666Y214211847D01*
X-381476666Y214211847D02*
X-381524285Y214116609D01*
X-381524285Y214116609D02*
X-381571904Y214068990D01*
X-381571904Y214068990D02*
X-381667142Y214021371D01*
X-381667142Y214021371D02*
X-382048094Y214021371D01*
X-380524285Y213545180D02*
X-381095713Y213545180D01*
X-380809999Y213545180D02*
X-380809999Y214545180D01*
X-380809999Y214545180D02*
X-380905237Y214402323D01*
X-380905237Y214402323D02*
X-381000475Y214307085D01*
X-381000475Y214307085D02*
X-381095713Y214259466D01*
%TO.C,SW2*%
D10*
X-369050000Y215050000D02*
X-363250000Y215050000D01*
X-363250000Y204550000D01*
X-369050000Y204550000D01*
X-369050000Y215050000D01*
%TO.C,J1*%
X-393500000Y242000000D02*
X-398500000Y242000000D01*
X-398500000Y239500000D01*
X-393500000Y239500000D01*
X-393500000Y242000000D01*
%TO.C,U3*%
X-399000000Y202750000D02*
X-393000000Y202750000D01*
X-393000000Y194250000D01*
X-399000000Y194250000D01*
X-399000000Y202750000D01*
X-398000000Y207000000D02*
X-370000000Y207000000D01*
X-370000000Y189800000D01*
X-398000000Y189800000D01*
X-398000000Y207000000D01*
D12*
%TO.C,D1*%
X-374870000Y213404000D02*
X-374870000Y212596000D01*
X-375110000Y213000000D02*
G75*
G02*
X-369790000Y213000000I2660000J-699999D01*
G01*
X-369790000Y213000000D02*
G75*
G02*
X-375110000Y213000000I-2660000J699999D01*
G01*
%TO.C,R2*%
X-384580000Y211870000D02*
X-384580000Y211540000D01*
X-384580000Y209130000D02*
X-384580000Y209460000D01*
X-378040000Y211870000D02*
X-384580000Y211870000D01*
X-378040000Y211540000D02*
X-378040000Y211870000D01*
X-378040000Y209460000D02*
X-378040000Y209130000D01*
X-378040000Y209130000D02*
X-384580000Y209130000D01*
%TO.C,J2*%
D10*
X-368500000Y199750000D02*
X-363500000Y199750000D01*
X-363500000Y202250000D01*
X-368500000Y202250000D01*
X-368500000Y199750000D01*
%TO.C,U2*%
X-382500000Y218750000D02*
X-398500000Y218750000D01*
X-398500000Y238750000D01*
X-382500000Y238750000D01*
X-382500000Y218750000D01*
%TO.C,SW1*%
X-392000000Y209500000D02*
X-398500000Y209500000D01*
X-398500000Y218000000D01*
X-392000000Y218000000D01*
X-392000000Y209500000D01*
%TO.C,U1*%
X-381505000Y238565000D02*
X-363505000Y238565000D01*
X-363505000Y216025000D01*
X-381505000Y216025000D01*
X-381505000Y238565000D01*
X-376385000Y241025000D02*
X-367885000Y241025000D01*
X-367885000Y235025000D01*
X-376385000Y235025000D01*
X-376385000Y241025000D01*
D12*
%TO.C,R1*%
X-384580000Y215370000D02*
X-378040000Y215370000D01*
X-384580000Y215040000D02*
X-384580000Y215370000D01*
X-384580000Y212960000D02*
X-384580000Y212630000D01*
X-384580000Y212630000D02*
X-378040000Y212630000D01*
X-378040000Y215370000D02*
X-378040000Y215040000D01*
X-378040000Y212630000D02*
X-378040000Y212960000D01*
%TD*%
M02*
