%TF.GenerationSoftware,KiCad,Pcbnew,9.0.7+1*%
%TF.CreationDate,2026-04-07T16:13:12+02:00*%
%TF.ProjectId,PCB,5043422e-6b69-4636-9164-5f7063625858,rev?*%
%TF.SameCoordinates,Original*%
%TF.FileFunction,Copper,L1,Top*%
%TF.FilePolarity,Positive*%
%FSLAX46Y46*%
G04 Gerber Fmt 4.6, Leading zero omitted, Abs format (unit mm)*
G04 Created by KiCad (PCBNEW 9.0.7+1) date 2026-04-07 16:13:12*
%MOMM*%
%LPD*%
G01*
G04 APERTURE LIST*
%TA.AperFunction,ComponentPad*%
%ADD10C,1.400000*%
%TD*%
%TA.AperFunction,ComponentPad*%
%ADD11C,1.800000*%
%TD*%
%TA.AperFunction,ComponentPad*%
%ADD12R,1.800000X1.800000*%
%TD*%
%TA.AperFunction,ComponentPad*%
%ADD13C,1.600000*%
%TD*%
%TA.AperFunction,Conductor*%
%ADD14C,0.300000*%
%TD*%
%TA.AperFunction,Conductor*%
%ADD15C,0.600000*%
%TD*%
G04 APERTURE END LIST*
D10*
%TO.P,SW2,1,A*%
%TO.N,VCC*%
X-366150000Y212800000D03*
%TO.P,SW2,2,B*%
%TO.N,Net-(SW2A-B)*%
X-366150000Y209800000D03*
%TO.P,SW2,3,C*%
%TO.N,unconnected-(SW2A-C-Pad3)*%
X-366150000Y206800000D03*
%TD*%
D11*
%TO.P,J1,1,Pin_1*%
%TO.N,GND*%
X-397290000Y240750000D03*
%TO.P,J1,2,Pin_2*%
%TO.N,Net-(J1-Pin_2)*%
X-394750000Y240750000D03*
%TD*%
%TO.P,U3,1,IN+*%
%TO.N,unconnected-(U3-IN+-Pad1)*%
X-396000000Y205500000D03*
%TO.P,U3,2,IN-*%
%TO.N,unconnected-(U3-IN--Pad2)*%
X-396000000Y191500000D03*
%TO.P,U3,3,OUT+*%
%TO.N,Net-(SW2A-B)*%
X-373000000Y205500000D03*
%TO.P,U3,4,OUT-*%
%TO.N,GND*%
X-373000000Y191500000D03*
%TO.P,U3,5,B+*%
%TO.N,Net-(J2-Pin_2)*%
X-373000000Y202960000D03*
%TO.P,U3,6,B-*%
%TO.N,Net-(J2-Pin_1)*%
X-373000000Y194040000D03*
%TD*%
D12*
%TO.P,D1,1,K*%
%TO.N,GND*%
X-373720000Y213000000D03*
D11*
%TO.P,D1,2,A*%
%TO.N,Net-(D1-A)*%
X-371180000Y213000000D03*
%TD*%
D13*
%TO.P,R2,1*%
%TO.N,Net-(R1-Pad2)*%
X-377500000Y210500000D03*
%TO.P,R2,2*%
%TO.N,GND*%
X-385120000Y210500000D03*
%TD*%
D11*
%TO.P,J2,1,Pin_1*%
%TO.N,Net-(J2-Pin_1)*%
X-364710000Y201000000D03*
%TO.P,J2,2,Pin_2*%
%TO.N,Net-(J2-Pin_2)*%
X-367250000Y201000000D03*
%TD*%
%TO.P,U2,1,VCC*%
%TO.N,VCC*%
X-383500000Y219750000D03*
%TO.P,U2,2,GND*%
%TO.N,GND*%
X-383500000Y222290000D03*
%TO.P,U2,3,SCL*%
%TO.N,Net-(U1-SCL)*%
X-383500000Y224830000D03*
%TO.P,U2,4,SDA*%
%TO.N,Net-(U1-SDA)*%
X-383500000Y227370000D03*
%TO.P,U2,5,XDA*%
%TO.N,unconnected-(U2-XDA-Pad5)*%
X-383500000Y229910000D03*
%TO.P,U2,6,XCL*%
%TO.N,unconnected-(U2-XCL-Pad6)*%
X-383500000Y232450000D03*
%TO.P,U2,7,ADO*%
%TO.N,unconnected-(U2-ADO-Pad7)*%
X-383500000Y234990000D03*
%TO.P,U2,8,INT*%
%TO.N,Net-(U2-INT)*%
X-383500000Y237530000D03*
%TD*%
%TO.P,SW1,1,1*%
%TO.N,Net-(SW1-Pad1)*%
X-393000000Y210500000D03*
%TO.P,SW1,2,2*%
%TO.N,unconnected-(SW1-Pad2)*%
X-393000000Y217000000D03*
%TO.P,SW1,3,K*%
%TO.N,unconnected-(SW1-K-Pad3)*%
X-397500000Y217000000D03*
%TO.P,SW1,4,A*%
%TO.N,GND*%
X-397500000Y210500000D03*
%TD*%
%TO.P,U1,0*%
%TO.N,Net-(J1-Pin_2)*%
X-364885000Y219245000D03*
%TO.P,U1,1*%
%TO.N,Net-(D1-A)*%
X-364885000Y221785000D03*
%TO.P,U1,2*%
%TO.N,unconnected-(U1-Pad2)*%
X-364885000Y224325000D03*
%TO.P,U1,3*%
%TO.N,unconnected-(U1-Pad3)*%
X-364885000Y226865000D03*
%TO.P,U1,3V3,3V3*%
%TO.N,unconnected-(U1-Pad3V3)*%
X-364885000Y231945000D03*
%TO.P,U1,4*%
%TO.N,unconnected-(U1-Pad4)*%
X-364885000Y229405000D03*
%TO.P,U1,5*%
%TO.N,Net-(R1-Pad2)*%
X-380125000Y237025000D03*
%TO.P,U1,5V,5V*%
%TO.N,VCC*%
X-364885000Y237025000D03*
%TO.P,U1,6*%
%TO.N,Net-(R1-Pad1)*%
X-380125000Y234485000D03*
%TO.P,U1,7*%
%TO.N,Net-(U2-INT)*%
X-380125000Y231945000D03*
%TO.P,U1,8,SDA*%
%TO.N,Net-(U1-SDA)*%
X-380125000Y229405000D03*
%TO.P,U1,9,SCL*%
%TO.N,Net-(U1-SCL)*%
X-380125000Y226865000D03*
%TO.P,U1,10*%
%TO.N,unconnected-(U1-Pad10)*%
X-380125000Y224325000D03*
%TO.P,U1,20*%
%TO.N,unconnected-(U1-Pad20)*%
X-380125000Y221785000D03*
%TO.P,U1,21*%
%TO.N,Net-(SW1-Pad1)*%
X-380125000Y219245000D03*
%TO.P,U1,GND,GND*%
%TO.N,GND*%
X-364885000Y234485000D03*
%TD*%
D13*
%TO.P,R1,1*%
%TO.N,Net-(R1-Pad1)*%
X-385120000Y214000000D03*
%TO.P,R1,2*%
%TO.N,Net-(R1-Pad2)*%
X-377500000Y214000000D03*
%TD*%
D14*
%TO.N,Net-(D1-A)*%
X-364885000Y221785000D02*
X-366750000Y219920000D01*
X-366750000Y217430000D02*
X-371180000Y213000000D01*
X-366750000Y219920000D02*
X-366750000Y217430000D01*
D15*
%TO.N,VCC*%
X-363250000Y215700000D02*
X-363250000Y235390000D01*
X-366150000Y212800000D02*
X-363250000Y215700000D01*
X-384250000Y239500000D02*
X-365750000Y239500000D01*
X-364885000Y238635000D02*
X-364885000Y237025000D01*
X-385500000Y221750000D02*
X-385500000Y238250000D01*
X-363250000Y235390000D02*
X-364885000Y237025000D01*
X-383500000Y219750000D02*
X-385500000Y221750000D01*
X-385500000Y238250000D02*
X-384250000Y239500000D01*
X-365750000Y239500000D02*
X-364885000Y238635000D01*
D14*
%TO.N,Net-(J1-Pin_2)*%
X-394750000Y208750000D02*
X-394000000Y208000000D01*
X-394000000Y208000000D02*
X-374000000Y208000000D01*
X-394750000Y240750000D02*
X-394750000Y208750000D01*
X-374000000Y208000000D02*
X-364885000Y217115000D01*
X-364885000Y217115000D02*
X-364885000Y219245000D01*
%TO.N,Net-(J2-Pin_2)*%
X-367250000Y201000000D02*
X-369210000Y202960000D01*
X-369210000Y202960000D02*
X-373000000Y202960000D01*
%TO.N,Net-(SW1-Pad1)*%
X-380125000Y219245000D02*
X-382370000Y217000000D01*
X-393000000Y210500000D02*
X-386500000Y217000000D01*
X-386500000Y217000000D02*
X-382370000Y217000000D01*
%TO.N,Net-(J2-Pin_1)*%
X-371670000Y194040000D02*
X-364710000Y201000000D01*
X-373000000Y194040000D02*
X-371670000Y194040000D01*
%TO.N,Net-(R1-Pad2)*%
X-377500000Y214000000D02*
X-377500000Y210500000D01*
X-380125000Y237025000D02*
X-378525000Y237025000D01*
X-378525000Y237025000D02*
X-377500000Y236000000D01*
X-377500000Y236000000D02*
X-377500000Y214000000D01*
%TO.N,Net-(R1-Pad1)*%
X-378500000Y232860000D02*
X-378500000Y218000000D01*
X-382500000Y214000000D02*
X-385120000Y214000000D01*
X-380125000Y234485000D02*
X-378500000Y232860000D01*
X-378500000Y218000000D02*
X-382500000Y214000000D01*
%TO.N,Net-(SW2A-B)*%
X-373000000Y205500000D02*
X-368700000Y209800000D01*
X-368700000Y209800000D02*
X-366150000Y209800000D01*
%TO.N,Net-(U2-INT)*%
X-381376000Y233196000D02*
X-380125000Y231945000D01*
X-383500000Y237530000D02*
X-381376000Y235406000D01*
X-381376000Y235406000D02*
X-381376000Y233196000D01*
%TO.N,Net-(U1-SDA)*%
X-382160000Y227370000D02*
X-380125000Y229405000D01*
X-383500000Y227370000D02*
X-382160000Y227370000D01*
%TO.N,Net-(U1-SCL)*%
X-383500000Y224830000D02*
X-382160000Y224830000D01*
X-382160000Y224830000D02*
X-380125000Y226865000D01*
%TD*%
M02*
