%TF.GenerationSoftware,KiCad,Pcbnew,9.0.5+1*%
%TF.CreationDate,2025-11-07T16:33:50+01:00*%
%TF.ProjectId,PCB,5043422e-6b69-4636-9164-5f7063625858,rev?*%
%TF.SameCoordinates,Original*%
%TF.FileFunction,Copper,L2,Bot*%
%TF.FilePolarity,Positive*%
%FSLAX46Y46*%
G04 Gerber Fmt 4.6, Leading zero omitted, Abs format (unit mm)*
G04 Created by KiCad (PCBNEW 9.0.5+1) date 2025-11-07 16:33:50*
%MOMM*%
%LPD*%
G01*
G04 APERTURE LIST*
%TA.AperFunction,ComponentPad*%
%ADD10C,1.800000*%
%TD*%
%TA.AperFunction,ComponentPad*%
%ADD11C,1.400000*%
%TD*%
%TA.AperFunction,ComponentPad*%
%ADD12R,1.800000X1.800000*%
%TD*%
G04 APERTURE END LIST*
D10*
%TO.P,J1,1,Pin_1*%
%TO.N,GND*%
X-209540000Y12500000D03*
%TO.P,J1,2,Pin_2*%
%TO.N,Net-(J1-Pin_2)*%
X-207000000Y12500000D03*
%TD*%
%TO.P,J2,1,Pin_1*%
%TO.N,GND*%
X-187540000Y-27000000D03*
%TO.P,J2,2,Pin_2*%
%TO.N,Net-(J2-Pin_2)*%
X-185000000Y-27000000D03*
%TD*%
%TO.P,U1,0*%
%TO.N,Net-(J1-Pin_2)*%
X-176385000Y-10755000D03*
%TO.P,U1,1*%
%TO.N,Net-(D1-A)*%
X-176385000Y-8215000D03*
%TO.P,U1,2*%
%TO.N,unconnected-(U1-Pad2)*%
X-176385000Y-5675000D03*
%TO.P,U1,3*%
%TO.N,unconnected-(U1-Pad3)*%
X-176385000Y-3135000D03*
%TO.P,U1,3V3,3V3*%
%TO.N,unconnected-(U1-Pad3V3)*%
X-176385000Y1945000D03*
%TO.P,U1,4*%
%TO.N,unconnected-(U1-Pad4)*%
X-176385000Y-595000D03*
%TO.P,U1,5*%
%TO.N,unconnected-(U1-Pad5)*%
X-191625000Y7025000D03*
%TO.P,U1,5V,5V*%
%TO.N,VCC*%
X-176385000Y7025000D03*
%TO.P,U1,6*%
%TO.N,unconnected-(U1-Pad6)*%
X-191625000Y4485000D03*
%TO.P,U1,7*%
%TO.N,Net-(U2-INT)*%
X-191625000Y1945000D03*
%TO.P,U1,8,SDA*%
%TO.N,Net-(U1-SDA)*%
X-191625000Y-595000D03*
%TO.P,U1,9,SCL*%
%TO.N,Net-(U1-SCL)*%
X-191625000Y-3135000D03*
%TO.P,U1,10*%
%TO.N,Net-(SW1-Pad1)*%
X-191625000Y-5675000D03*
%TO.P,U1,20*%
%TO.N,Net-(SW2-Pad1)*%
X-191625000Y-8215000D03*
%TO.P,U1,21*%
%TO.N,Net-(SW3-Pad1)*%
X-191625000Y-10755000D03*
%TO.P,U1,GND,GND*%
%TO.N,GND*%
X-176385000Y4485000D03*
%TD*%
D11*
%TO.P,SW4,1,A*%
%TO.N,VCC*%
X-178000000Y-19500000D03*
%TO.P,SW4,2,B*%
%TO.N,Net-(J2-Pin_2)*%
X-178000000Y-22500000D03*
%TO.P,SW4,3,C*%
%TO.N,unconnected-(SW4A-C-Pad3)*%
X-178000000Y-25500000D03*
%TD*%
D10*
%TO.P,SW2,1,1*%
%TO.N,Net-(SW2-Pad1)*%
X-203500000Y-22900000D03*
%TO.P,SW2,2,2*%
%TO.N,unconnected-(SW2-Pad2)*%
X-210000000Y-22900000D03*
%TO.P,SW2,3,K*%
%TO.N,unconnected-(SW2-K-Pad3)*%
X-210000000Y-27400000D03*
%TO.P,SW2,4,A*%
%TO.N,GND*%
X-203500000Y-27400000D03*
%TD*%
%TO.P,U2,1,VCC*%
%TO.N,VCC*%
X-196000000Y-10500000D03*
%TO.P,U2,2,GND*%
%TO.N,GND*%
X-196000000Y-7960000D03*
%TO.P,U2,3,SCL*%
%TO.N,Net-(U1-SCL)*%
X-196000000Y-5420000D03*
%TO.P,U2,4,SDA*%
%TO.N,Net-(U1-SDA)*%
X-196000000Y-2880000D03*
%TO.P,U2,5,XDA*%
%TO.N,unconnected-(U2-XDA-Pad5)*%
X-196000000Y-340000D03*
%TO.P,U2,6,XCL*%
%TO.N,unconnected-(U2-XCL-Pad6)*%
X-196000000Y2200000D03*
%TO.P,U2,7,ADO*%
%TO.N,unconnected-(U2-ADO-Pad7)*%
X-196000000Y4740000D03*
%TO.P,U2,8,INT*%
%TO.N,Net-(U2-INT)*%
X-196000000Y7280000D03*
%TD*%
%TO.P,SW3,1,1*%
%TO.N,Net-(SW3-Pad1)*%
X-192500000Y-23000000D03*
%TO.P,SW3,2,2*%
%TO.N,unconnected-(SW3-Pad2)*%
X-199000000Y-23000000D03*
%TO.P,SW3,3,K*%
%TO.N,unconnected-(SW3-K-Pad3)*%
X-199000000Y-27500000D03*
%TO.P,SW3,4,A*%
%TO.N,GND*%
X-192500000Y-27500000D03*
%TD*%
D12*
%TO.P,D1,1,K*%
%TO.N,GND*%
X-198270000Y-16000000D03*
D10*
%TO.P,D1,2,A*%
%TO.N,Net-(D1-A)*%
X-195730000Y-16000000D03*
%TD*%
D12*
%TO.P,D2,1,K*%
%TO.N,GND*%
X-187500000Y-18230000D03*
D10*
%TO.P,D2,2,A*%
%TO.N,VCC*%
X-187500000Y-20770000D03*
%TD*%
%TO.P,SW1,1,1*%
%TO.N,Net-(SW1-Pad1)*%
X-203500000Y-14800000D03*
%TO.P,SW1,2,2*%
%TO.N,unconnected-(SW1-Pad2)*%
X-210000000Y-14800000D03*
%TO.P,SW1,3,K*%
%TO.N,unconnected-(SW1-K-Pad3)*%
X-210000000Y-19300000D03*
%TO.P,SW1,4,A*%
%TO.N,GND*%
X-203500000Y-19300000D03*
%TD*%
%TA.AperFunction,Conductor*%
%TO.N,GND*%
G36*
X-210130289Y13979815D02*
G01*
X-210084534Y13927011D01*
X-210074590Y13857853D01*
X-210103615Y13794297D01*
X-210141033Y13765015D01*
X-210273760Y13697386D01*
X-210337513Y13651066D01*
X-210337514Y13651066D01*
X-209628585Y12942138D01*
X-209713694Y12919333D01*
X-209816306Y12860090D01*
X-209900090Y12776306D01*
X-209959333Y12673694D01*
X-209982138Y12588585D01*
X-210691066Y13297514D01*
X-210691066Y13297513D01*
X-210737386Y13233760D01*
X-210837432Y13037410D01*
X-210905526Y12827835D01*
X-210940000Y12610181D01*
X-210940000Y12389818D01*
X-210905526Y12172164D01*
X-210837432Y11962589D01*
X-210737388Y11766243D01*
X-210691066Y11702485D01*
X-210691065Y11702485D01*
X-209982137Y12411413D01*
X-209959333Y12326306D01*
X-209900090Y12223694D01*
X-209816306Y12139910D01*
X-209713694Y12080667D01*
X-209628584Y12057861D01*
X-210337513Y11348932D01*
X-210273756Y11302611D01*
X-210077410Y11202567D01*
X-209867835Y11134473D01*
X-209650181Y11100000D01*
X-209429819Y11100000D01*
X-209212164Y11134473D01*
X-209002589Y11202567D01*
X-208806233Y11302616D01*
X-208742485Y11348931D01*
X-208742485Y11348932D01*
X-209451415Y12057861D01*
X-209366306Y12080667D01*
X-209263694Y12139910D01*
X-209179910Y12223694D01*
X-209120667Y12326306D01*
X-209097861Y12411414D01*
X-208388932Y11702485D01*
X-208388930Y11702485D01*
X-208370626Y11727679D01*
X-208315296Y11770345D01*
X-208245683Y11776324D01*
X-208183888Y11743718D01*
X-208169990Y11727679D01*
X-208068247Y11587640D01*
X-207912363Y11431756D01*
X-207912358Y11431752D01*
X-207734025Y11302187D01*
X-207734022Y11302185D01*
X-207671096Y11270122D01*
X-207537606Y11202104D01*
X-207537603Y11202103D01*
X-207327952Y11133985D01*
X-207219086Y11116742D01*
X-207110222Y11099500D01*
X-207110221Y11099500D01*
X-206889779Y11099500D01*
X-206889778Y11099500D01*
X-206817201Y11110995D01*
X-206672047Y11133985D01*
X-206462396Y11202103D01*
X-206462393Y11202104D01*
X-206265974Y11302187D01*
X-206087641Y11431752D01*
X-206087636Y11431756D01*
X-205931756Y11587636D01*
X-205931752Y11587641D01*
X-205802187Y11765974D01*
X-205702104Y11962393D01*
X-205702103Y11962396D01*
X-205633985Y12172047D01*
X-205599500Y12389778D01*
X-205599500Y12610221D01*
X-205633985Y12827952D01*
X-205702103Y13037603D01*
X-205702104Y13037606D01*
X-205770122Y13171096D01*
X-205802185Y13234022D01*
X-205802187Y13234025D01*
X-205931752Y13412358D01*
X-205931756Y13412363D01*
X-206087636Y13568243D01*
X-206087641Y13568247D01*
X-206265974Y13697812D01*
X-206265978Y13697815D01*
X-206397864Y13765015D01*
X-206448660Y13812990D01*
X-206465455Y13880811D01*
X-206442917Y13946946D01*
X-206388202Y13990397D01*
X-206341569Y13999500D01*
X-173624500Y13999500D01*
X-173557461Y13979815D01*
X-173511706Y13927011D01*
X-173500500Y13875500D01*
X-173500500Y-30875500D01*
X-173520185Y-30942539D01*
X-173572989Y-30988294D01*
X-173624500Y-30999500D01*
X-211375500Y-30999500D01*
X-211442539Y-30979815D01*
X-211488294Y-30927011D01*
X-211499500Y-30875500D01*
X-211499500Y-28058431D01*
X-211479815Y-27991392D01*
X-211427011Y-27945637D01*
X-211357853Y-27935693D01*
X-211294297Y-27964718D01*
X-211265014Y-28002136D01*
X-211197815Y-28134022D01*
X-211068242Y-28312365D01*
X-210912365Y-28468242D01*
X-210734022Y-28597815D01*
X-210537606Y-28697895D01*
X-210327951Y-28766015D01*
X-210110222Y-28800500D01*
X-210110221Y-28800500D01*
X-209889779Y-28800500D01*
X-209889778Y-28800500D01*
X-209672049Y-28766015D01*
X-209567221Y-28731955D01*
X-209462396Y-28697896D01*
X-209462393Y-28697895D01*
X-209370486Y-28651065D01*
X-209265978Y-28597815D01*
X-209201632Y-28551065D01*
X-209087641Y-28468247D01*
X-209087636Y-28468243D01*
X-208931756Y-28312363D01*
X-208931752Y-28312358D01*
X-208802187Y-28134025D01*
X-208802049Y-28133756D01*
X-208753058Y-28037606D01*
X-208702104Y-27937606D01*
X-208702103Y-27937603D01*
X-208633985Y-27727952D01*
X-208616742Y-27619086D01*
X-208599500Y-27510222D01*
X-208599500Y-27289818D01*
X-204900000Y-27289818D01*
X-204900000Y-27510181D01*
X-204865526Y-27727835D01*
X-204797432Y-27937410D01*
X-204697386Y-28133760D01*
X-204651066Y-28197513D01*
X-204651066Y-28197514D01*
X-203942137Y-27488585D01*
X-203919333Y-27573694D01*
X-203860090Y-27676306D01*
X-203776306Y-27760090D01*
X-203673694Y-27819333D01*
X-203588585Y-27842138D01*
X-204297514Y-28551066D01*
X-204233760Y-28597386D01*
X-204037410Y-28697432D01*
X-203827835Y-28765526D01*
X-203610181Y-28800000D01*
X-203389819Y-28800000D01*
X-203172164Y-28765526D01*
X-202962589Y-28697432D01*
X-202766243Y-28597388D01*
X-202702485Y-28551066D01*
X-202702485Y-28551065D01*
X-203411414Y-27842137D01*
X-203326306Y-27819333D01*
X-203223694Y-27760090D01*
X-203139910Y-27676306D01*
X-203080667Y-27573694D01*
X-203057861Y-27488584D01*
X-202348932Y-28197513D01*
X-202302611Y-28133756D01*
X-202202567Y-27937410D01*
X-202134473Y-27727835D01*
X-202100000Y-27510181D01*
X-202100000Y-27389778D01*
X-200400500Y-27389778D01*
X-200400500Y-27610222D01*
X-200366015Y-27827951D01*
X-200297895Y-28037606D01*
X-200197815Y-28234022D01*
X-200068242Y-28412365D01*
X-199912365Y-28568242D01*
X-199734022Y-28697815D01*
X-199537606Y-28797895D01*
X-199327951Y-28866015D01*
X-199110222Y-28900500D01*
X-199110221Y-28900500D01*
X-198889779Y-28900500D01*
X-198889778Y-28900500D01*
X-198672049Y-28866015D01*
X-198567221Y-28831955D01*
X-198462396Y-28797896D01*
X-198462393Y-28797895D01*
X-198394375Y-28763237D01*
X-198265978Y-28697815D01*
X-198201632Y-28651065D01*
X-198087641Y-28568247D01*
X-198087636Y-28568243D01*
X-197931756Y-28412363D01*
X-197931752Y-28412358D01*
X-197802187Y-28234025D01*
X-197802049Y-28233756D01*
X-197751096Y-28133756D01*
X-197702104Y-28037606D01*
X-197702103Y-28037603D01*
X-197633985Y-27827952D01*
X-197599500Y-27610221D01*
X-197599500Y-27389818D01*
X-193900000Y-27389818D01*
X-193900000Y-27610181D01*
X-193865526Y-27827835D01*
X-193797432Y-28037410D01*
X-193697386Y-28233760D01*
X-193651066Y-28297513D01*
X-193651066Y-28297514D01*
X-192942137Y-27588585D01*
X-192919333Y-27673694D01*
X-192860090Y-27776306D01*
X-192776306Y-27860090D01*
X-192673694Y-27919333D01*
X-192588585Y-27942138D01*
X-193297514Y-28651066D01*
X-193233760Y-28697386D01*
X-193037410Y-28797432D01*
X-192827835Y-28865526D01*
X-192610181Y-28900000D01*
X-192389819Y-28900000D01*
X-192172164Y-28865526D01*
X-191962589Y-28797432D01*
X-191766243Y-28697388D01*
X-191702485Y-28651066D01*
X-191702485Y-28651065D01*
X-192411414Y-27942137D01*
X-192326306Y-27919333D01*
X-192223694Y-27860090D01*
X-192139910Y-27776306D01*
X-192080667Y-27673694D01*
X-192057861Y-27588584D01*
X-191348932Y-28297513D01*
X-191302611Y-28233756D01*
X-191207715Y-28047512D01*
X-191207713Y-28047510D01*
X-191207713Y-28047509D01*
X-191202568Y-28037412D01*
X-191134473Y-27827835D01*
X-191100000Y-27610181D01*
X-191100000Y-27389818D01*
X-191134473Y-27172164D01*
X-191202568Y-26962586D01*
X-191213443Y-26941242D01*
X-191213445Y-26941241D01*
X-191239646Y-26889818D01*
X-188940000Y-26889818D01*
X-188940000Y-27110181D01*
X-188905526Y-27327835D01*
X-188837432Y-27537410D01*
X-188737386Y-27733760D01*
X-188691066Y-27797513D01*
X-188691066Y-27797514D01*
X-187982137Y-27088585D01*
X-187959333Y-27173694D01*
X-187900090Y-27276306D01*
X-187816306Y-27360090D01*
X-187713694Y-27419333D01*
X-187628585Y-27442138D01*
X-188337514Y-28151066D01*
X-188273760Y-28197386D01*
X-188077410Y-28297432D01*
X-187867835Y-28365526D01*
X-187650181Y-28400000D01*
X-187429819Y-28400000D01*
X-187212164Y-28365526D01*
X-187002589Y-28297432D01*
X-186806243Y-28197388D01*
X-186742485Y-28151066D01*
X-186742485Y-28151065D01*
X-187451414Y-27442137D01*
X-187366306Y-27419333D01*
X-187263694Y-27360090D01*
X-187179910Y-27276306D01*
X-187120667Y-27173694D01*
X-187097861Y-27088584D01*
X-186388932Y-27797513D01*
X-186370628Y-27772319D01*
X-186315298Y-27729653D01*
X-186245685Y-27723674D01*
X-186183889Y-27756279D01*
X-186169994Y-27772313D01*
X-186068242Y-27912365D01*
X-185912365Y-28068242D01*
X-185734022Y-28197815D01*
X-185537606Y-28297895D01*
X-185327951Y-28366015D01*
X-185110222Y-28400500D01*
X-185110221Y-28400500D01*
X-184889779Y-28400500D01*
X-184889778Y-28400500D01*
X-184672049Y-28366015D01*
X-184567221Y-28331955D01*
X-184462396Y-28297896D01*
X-184462393Y-28297895D01*
X-184394375Y-28263237D01*
X-184265978Y-28197815D01*
X-184177813Y-28133760D01*
X-184087641Y-28068247D01*
X-184087636Y-28068243D01*
X-183931756Y-27912363D01*
X-183931752Y-27912358D01*
X-183802187Y-27734025D01*
X-183799092Y-27727952D01*
X-183739105Y-27610222D01*
X-183702104Y-27537606D01*
X-183702103Y-27537603D01*
X-183633985Y-27327952D01*
X-183609311Y-27172164D01*
X-183599500Y-27110222D01*
X-183599500Y-26889778D01*
X-183619066Y-26766243D01*
X-183633985Y-26672047D01*
X-183702103Y-26462396D01*
X-183702104Y-26462393D01*
X-183802187Y-26265974D01*
X-183931752Y-26087641D01*
X-183931756Y-26087636D01*
X-184087636Y-25931756D01*
X-184087641Y-25931752D01*
X-184265974Y-25802187D01*
X-184462393Y-25702104D01*
X-184462396Y-25702103D01*
X-184672047Y-25633985D01*
X-184817201Y-25610995D01*
X-184889778Y-25599500D01*
X-185110222Y-25599500D01*
X-185219086Y-25616742D01*
X-185327952Y-25633985D01*
X-185537603Y-25702103D01*
X-185537606Y-25702104D01*
X-185671096Y-25770122D01*
X-185734022Y-25802185D01*
X-185734024Y-25802186D01*
X-185734025Y-25802187D01*
X-185912358Y-25931752D01*
X-185912363Y-25931756D01*
X-186068247Y-26087640D01*
X-186169990Y-26227679D01*
X-186225319Y-26270345D01*
X-186294933Y-26276324D01*
X-186356728Y-26243719D01*
X-186370626Y-26227679D01*
X-186388930Y-26202485D01*
X-186388932Y-26202485D01*
X-187097861Y-26911414D01*
X-187120667Y-26826306D01*
X-187179910Y-26723694D01*
X-187263694Y-26639910D01*
X-187366306Y-26580667D01*
X-187451414Y-26557861D01*
X-186742485Y-25848932D01*
X-186742485Y-25848931D01*
X-186806233Y-25802616D01*
X-187002589Y-25702567D01*
X-187212164Y-25634473D01*
X-187429819Y-25600000D01*
X-187650181Y-25600000D01*
X-187867835Y-25634473D01*
X-188077410Y-25702567D01*
X-188273756Y-25802611D01*
X-188337513Y-25848932D01*
X-187628583Y-26557861D01*
X-187713694Y-26580667D01*
X-187816306Y-26639910D01*
X-187900090Y-26723694D01*
X-187959333Y-26826306D01*
X-187982137Y-26911414D01*
X-188691066Y-26202485D01*
X-188737388Y-26266243D01*
X-188837432Y-26462589D01*
X-188905526Y-26672164D01*
X-188940000Y-26889818D01*
X-191239646Y-26889818D01*
X-191302616Y-26766233D01*
X-191348931Y-26702485D01*
X-191348932Y-26702485D01*
X-192057861Y-27411414D01*
X-192080667Y-27326306D01*
X-192139910Y-27223694D01*
X-192223694Y-27139910D01*
X-192326306Y-27080667D01*
X-192411414Y-27057861D01*
X-191702485Y-26348932D01*
X-191702485Y-26348931D01*
X-191766233Y-26302616D01*
X-191962589Y-26202567D01*
X-192172164Y-26134473D01*
X-192389819Y-26100000D01*
X-192610181Y-26100000D01*
X-192827835Y-26134473D01*
X-193037410Y-26202567D01*
X-193233756Y-26302611D01*
X-193297513Y-26348932D01*
X-192588583Y-27057861D01*
X-192673694Y-27080667D01*
X-192776306Y-27139910D01*
X-192860090Y-27223694D01*
X-192919333Y-27326306D01*
X-192942137Y-27411413D01*
X-193651065Y-26702485D01*
X-193651066Y-26702485D01*
X-193697388Y-26766243D01*
X-193797432Y-26962589D01*
X-193865526Y-27172164D01*
X-193900000Y-27389818D01*
X-197599500Y-27389818D01*
X-197599500Y-27389778D01*
X-197633985Y-27172047D01*
X-197702103Y-26962396D01*
X-197702104Y-26962393D01*
X-197802187Y-26765974D01*
X-197931752Y-26587641D01*
X-197931756Y-26587636D01*
X-198035521Y-26483872D01*
X-198087636Y-26431756D01*
X-198087641Y-26431752D01*
X-198265974Y-26302187D01*
X-198462393Y-26202104D01*
X-198462396Y-26202103D01*
X-198672047Y-26133985D01*
X-198817201Y-26110995D01*
X-198889778Y-26099500D01*
X-199110222Y-26099500D01*
X-199219086Y-26116742D01*
X-199327952Y-26133985D01*
X-199537603Y-26202103D01*
X-199537606Y-26202104D01*
X-199662955Y-26265974D01*
X-199734022Y-26302185D01*
X-199734024Y-26302186D01*
X-199734025Y-26302187D01*
X-199912358Y-26431752D01*
X-199912363Y-26431756D01*
X-200068243Y-26587636D01*
X-200068247Y-26587641D01*
X-200129571Y-26672047D01*
X-200197815Y-26765978D01*
X-200246941Y-26862393D01*
X-200297895Y-26962393D01*
X-200297896Y-26962396D01*
X-200329363Y-27059244D01*
X-200366015Y-27172049D01*
X-200400500Y-27389778D01*
X-202100000Y-27389778D01*
X-202100000Y-27289818D01*
X-202134473Y-27072164D01*
X-202202567Y-26862589D01*
X-202302616Y-26666233D01*
X-202348931Y-26602485D01*
X-202348932Y-26602485D01*
X-203057861Y-27311414D01*
X-203080667Y-27226306D01*
X-203139910Y-27123694D01*
X-203223694Y-27039910D01*
X-203326306Y-26980667D01*
X-203411414Y-26957861D01*
X-202702485Y-26248932D01*
X-202702485Y-26248931D01*
X-202766233Y-26202616D01*
X-202962589Y-26102567D01*
X-203172164Y-26034473D01*
X-203271979Y-26018664D01*
X-203389819Y-26000000D01*
X-203610181Y-26000000D01*
X-203827835Y-26034473D01*
X-204037410Y-26102567D01*
X-204233756Y-26202611D01*
X-204297513Y-26248932D01*
X-203588583Y-26957861D01*
X-203673694Y-26980667D01*
X-203776306Y-27039910D01*
X-203860090Y-27123694D01*
X-203919333Y-27226306D01*
X-203942137Y-27311413D01*
X-204651065Y-26602485D01*
X-204651066Y-26602485D01*
X-204697388Y-26666243D01*
X-204797432Y-26862589D01*
X-204865526Y-27072164D01*
X-204900000Y-27289818D01*
X-208599500Y-27289818D01*
X-208599500Y-27289778D01*
X-208618128Y-27172164D01*
X-208633985Y-27072047D01*
X-208702103Y-26862396D01*
X-208702104Y-26862393D01*
X-208802187Y-26665974D01*
X-208931752Y-26487641D01*
X-208931756Y-26487636D01*
X-209035521Y-26383872D01*
X-209087636Y-26331756D01*
X-209087641Y-26331752D01*
X-209265974Y-26202187D01*
X-209462393Y-26102104D01*
X-209462396Y-26102103D01*
X-209672047Y-26033985D01*
X-209817201Y-26010995D01*
X-209889778Y-25999500D01*
X-210110222Y-25999500D01*
X-210219086Y-26016742D01*
X-210327952Y-26033985D01*
X-210537603Y-26102103D01*
X-210537606Y-26102104D01*
X-210671096Y-26170122D01*
X-210734022Y-26202185D01*
X-210734024Y-26202186D01*
X-210734025Y-26202187D01*
X-210912358Y-26331752D01*
X-210912363Y-26331756D01*
X-211068243Y-26487636D01*
X-211068247Y-26487641D01*
X-211197814Y-26665976D01*
X-211265016Y-26797864D01*
X-211312990Y-26848659D01*
X-211380812Y-26865454D01*
X-211446946Y-26842916D01*
X-211490397Y-26788201D01*
X-211499500Y-26741568D01*
X-211499500Y-25405513D01*
X-179200500Y-25405513D01*
X-179200500Y-25594486D01*
X-179183381Y-25702567D01*
X-179170940Y-25781118D01*
X-179112547Y-25960832D01*
X-179026760Y-26129199D01*
X-178915690Y-26282073D01*
X-178782073Y-26415690D01*
X-178629199Y-26526760D01*
X-178460832Y-26612547D01*
X-178295574Y-26666243D01*
X-178281118Y-26670940D01*
X-178094486Y-26700500D01*
X-178094481Y-26700500D01*
X-177905514Y-26700500D01*
X-177718881Y-26670940D01*
X-177623382Y-26639910D01*
X-177539168Y-26612547D01*
X-177539165Y-26612545D01*
X-177539163Y-26612545D01*
X-177450347Y-26567290D01*
X-177370801Y-26526760D01*
X-177217927Y-26415690D01*
X-177084310Y-26282073D01*
X-176973240Y-26129199D01*
X-176958362Y-26100000D01*
X-176887454Y-25960836D01*
X-176829059Y-25781118D01*
X-176799500Y-25594486D01*
X-176799500Y-25405513D01*
X-176829059Y-25218881D01*
X-176887454Y-25039163D01*
X-176973240Y-24870800D01*
X-177036610Y-24783579D01*
X-177084310Y-24717927D01*
X-177084312Y-24717925D01*
X-177084312Y-24717924D01*
X-177217924Y-24584312D01*
X-177370800Y-24473240D01*
X-177539163Y-24387454D01*
X-177718881Y-24329059D01*
X-177905514Y-24299500D01*
X-177905519Y-24299500D01*
X-178094481Y-24299500D01*
X-178094486Y-24299500D01*
X-178281118Y-24329059D01*
X-178460836Y-24387454D01*
X-178629199Y-24473240D01*
X-178782073Y-24584310D01*
X-178915690Y-24717927D01*
X-179026759Y-24870800D01*
X-179112545Y-25039163D01*
X-179170940Y-25218881D01*
X-179200500Y-25405513D01*
X-211499500Y-25405513D01*
X-211499500Y-23558431D01*
X-211479815Y-23491392D01*
X-211427011Y-23445637D01*
X-211357853Y-23435693D01*
X-211294297Y-23464718D01*
X-211265014Y-23502136D01*
X-211197815Y-23634022D01*
X-211068242Y-23812365D01*
X-210912365Y-23968242D01*
X-210734022Y-24097815D01*
X-210537606Y-24197895D01*
X-210327951Y-24266015D01*
X-210110222Y-24300500D01*
X-210110221Y-24300500D01*
X-209889779Y-24300500D01*
X-209889778Y-24300500D01*
X-209672049Y-24266015D01*
X-209567221Y-24231955D01*
X-209462396Y-24197896D01*
X-209462393Y-24197895D01*
X-209394375Y-24163237D01*
X-209265978Y-24097815D01*
X-209225274Y-24068242D01*
X-209087641Y-23968247D01*
X-209087636Y-23968243D01*
X-208931756Y-23812363D01*
X-208931752Y-23812358D01*
X-208802187Y-23634025D01*
X-208702104Y-23437606D01*
X-208702103Y-23437603D01*
X-208633985Y-23227952D01*
X-208616742Y-23119086D01*
X-208599500Y-23010222D01*
X-208599500Y-22789778D01*
X-204900500Y-22789778D01*
X-204900500Y-23010222D01*
X-204866015Y-23227951D01*
X-204797895Y-23437606D01*
X-204697815Y-23634022D01*
X-204568242Y-23812365D01*
X-204412365Y-23968242D01*
X-204234022Y-24097815D01*
X-204037606Y-24197895D01*
X-203827951Y-24266015D01*
X-203610222Y-24300500D01*
X-203610221Y-24300500D01*
X-203389779Y-24300500D01*
X-203389778Y-24300500D01*
X-203172049Y-24266015D01*
X-203067221Y-24231955D01*
X-202962396Y-24197896D01*
X-202962393Y-24197895D01*
X-202894375Y-24163237D01*
X-202765978Y-24097815D01*
X-202725274Y-24068242D01*
X-202587641Y-23968247D01*
X-202587636Y-23968243D01*
X-202431756Y-23812363D01*
X-202431752Y-23812358D01*
X-202302187Y-23634025D01*
X-202202104Y-23437606D01*
X-202202103Y-23437603D01*
X-202133985Y-23227952D01*
X-202116742Y-23119086D01*
X-202099500Y-23010222D01*
X-202099500Y-22889778D01*
X-200400500Y-22889778D01*
X-200400500Y-23110222D01*
X-200366015Y-23327951D01*
X-200297895Y-23537606D01*
X-200197815Y-23734022D01*
X-200068242Y-23912365D01*
X-199912365Y-24068242D01*
X-199734022Y-24197815D01*
X-199537606Y-24297895D01*
X-199327951Y-24366015D01*
X-199110222Y-24400500D01*
X-199110221Y-24400500D01*
X-198889779Y-24400500D01*
X-198889778Y-24400500D01*
X-198672049Y-24366015D01*
X-198558308Y-24329059D01*
X-198462396Y-24297896D01*
X-198462393Y-24297895D01*
X-198394375Y-24263237D01*
X-198265978Y-24197815D01*
X-198243192Y-24181260D01*
X-198087641Y-24068247D01*
X-198087636Y-24068243D01*
X-197931756Y-23912363D01*
X-197931752Y-23912358D01*
X-197802187Y-23734025D01*
X-197702104Y-23537606D01*
X-197702103Y-23537603D01*
X-197633985Y-23327952D01*
X-197599500Y-23110221D01*
X-197599500Y-22889778D01*
X-193900500Y-22889778D01*
X-193900500Y-23110222D01*
X-193866015Y-23327951D01*
X-193797895Y-23537606D01*
X-193697815Y-23734022D01*
X-193568242Y-23912365D01*
X-193412365Y-24068242D01*
X-193234022Y-24197815D01*
X-193037606Y-24297895D01*
X-192827951Y-24366015D01*
X-192610222Y-24400500D01*
X-192610221Y-24400500D01*
X-192389779Y-24400500D01*
X-192389778Y-24400500D01*
X-192172049Y-24366015D01*
X-192058308Y-24329059D01*
X-191962396Y-24297896D01*
X-191962393Y-24297895D01*
X-191894375Y-24263237D01*
X-191765978Y-24197815D01*
X-191743192Y-24181260D01*
X-191587641Y-24068247D01*
X-191587636Y-24068243D01*
X-191431756Y-23912363D01*
X-191431752Y-23912358D01*
X-191302187Y-23734025D01*
X-191202104Y-23537606D01*
X-191202103Y-23537603D01*
X-191133985Y-23327952D01*
X-191099500Y-23110221D01*
X-191099500Y-22889778D01*
X-191133985Y-22672047D01*
X-191202103Y-22462396D01*
X-191202104Y-22462394D01*
X-191204882Y-22456944D01*
X-191204882Y-22456942D01*
X-191204883Y-22456942D01*
X-191231088Y-22405513D01*
X-179200500Y-22405513D01*
X-179200500Y-22594486D01*
X-179188215Y-22672047D01*
X-179170940Y-22781118D01*
X-179112547Y-22960832D01*
X-179026760Y-23129199D01*
X-178915690Y-23282073D01*
X-178782073Y-23415690D01*
X-178629199Y-23526760D01*
X-178460832Y-23612547D01*
X-178281118Y-23670940D01*
X-178094486Y-23700500D01*
X-178094481Y-23700500D01*
X-177905514Y-23700500D01*
X-177718881Y-23670940D01*
X-177605261Y-23634022D01*
X-177539168Y-23612547D01*
X-177539165Y-23612545D01*
X-177539163Y-23612545D01*
X-177392082Y-23537603D01*
X-177370801Y-23526760D01*
X-177217927Y-23415690D01*
X-177084310Y-23282073D01*
X-176973240Y-23129199D01*
X-176912618Y-23010222D01*
X-176887454Y-22960836D01*
X-176829059Y-22781118D01*
X-176799500Y-22594486D01*
X-176799500Y-22405513D01*
X-176829059Y-22218881D01*
X-176887454Y-22039163D01*
X-176973240Y-21870800D01*
X-177036610Y-21783579D01*
X-177084310Y-21717927D01*
X-177084312Y-21717925D01*
X-177084312Y-21717924D01*
X-177217924Y-21584312D01*
X-177370800Y-21473240D01*
X-177539163Y-21387454D01*
X-177718881Y-21329059D01*
X-177905514Y-21299500D01*
X-177905519Y-21299500D01*
X-178094481Y-21299500D01*
X-178094486Y-21299500D01*
X-178281118Y-21329059D01*
X-178460836Y-21387454D01*
X-178629199Y-21473240D01*
X-178782073Y-21584310D01*
X-178915690Y-21717927D01*
X-179026759Y-21870800D01*
X-179112545Y-22039163D01*
X-179170940Y-22218881D01*
X-179200500Y-22405513D01*
X-191231088Y-22405513D01*
X-191302187Y-22265974D01*
X-191431752Y-22087641D01*
X-191431756Y-22087636D01*
X-191587636Y-21931756D01*
X-191587641Y-21931752D01*
X-191765974Y-21802187D01*
X-191962393Y-21702104D01*
X-191962396Y-21702103D01*
X-192172047Y-21633985D01*
X-192317201Y-21610995D01*
X-192389778Y-21599500D01*
X-192610222Y-21599500D01*
X-192719086Y-21616742D01*
X-192827952Y-21633985D01*
X-193037603Y-21702103D01*
X-193037606Y-21702104D01*
X-193171096Y-21770122D01*
X-193234022Y-21802185D01*
X-193234024Y-21802186D01*
X-193234025Y-21802187D01*
X-193412358Y-21931752D01*
X-193412363Y-21931756D01*
X-193568243Y-22087636D01*
X-193568247Y-22087641D01*
X-193625160Y-22165976D01*
X-193697815Y-22265978D01*
X-193746941Y-22362393D01*
X-193797895Y-22462393D01*
X-193797895Y-22462394D01*
X-193866015Y-22672049D01*
X-193900500Y-22889778D01*
X-197599500Y-22889778D01*
X-197633985Y-22672047D01*
X-197702103Y-22462396D01*
X-197702104Y-22462393D01*
X-197802187Y-22265974D01*
X-197931752Y-22087641D01*
X-197931756Y-22087636D01*
X-198087636Y-21931756D01*
X-198087641Y-21931752D01*
X-198265974Y-21802187D01*
X-198462393Y-21702104D01*
X-198462396Y-21702103D01*
X-198672047Y-21633985D01*
X-198817201Y-21610995D01*
X-198889778Y-21599500D01*
X-199110222Y-21599500D01*
X-199219086Y-21616742D01*
X-199327952Y-21633985D01*
X-199537603Y-21702103D01*
X-199537606Y-21702104D01*
X-199671096Y-21770122D01*
X-199734022Y-21802185D01*
X-199734024Y-21802186D01*
X-199734025Y-21802187D01*
X-199912358Y-21931752D01*
X-199912363Y-21931756D01*
X-200068243Y-22087636D01*
X-200068247Y-22087641D01*
X-200125160Y-22165976D01*
X-200197815Y-22265978D01*
X-200246941Y-22362393D01*
X-200297895Y-22462393D01*
X-200297895Y-22462394D01*
X-200366015Y-22672049D01*
X-200400500Y-22889778D01*
X-202099500Y-22889778D01*
X-202099500Y-22789778D01*
X-202100872Y-22781118D01*
X-202133985Y-22572047D01*
X-202202103Y-22362396D01*
X-202202104Y-22362393D01*
X-202302187Y-22165974D01*
X-202431752Y-21987641D01*
X-202431756Y-21987636D01*
X-202587636Y-21831756D01*
X-202587641Y-21831752D01*
X-202765974Y-21702187D01*
X-202962393Y-21602104D01*
X-202962396Y-21602103D01*
X-203172047Y-21533985D01*
X-203317201Y-21510995D01*
X-203389778Y-21499500D01*
X-203610222Y-21499500D01*
X-203719086Y-21516742D01*
X-203827952Y-21533985D01*
X-204037603Y-21602103D01*
X-204037606Y-21602104D01*
X-204171096Y-21670122D01*
X-204234022Y-21702185D01*
X-204234024Y-21702186D01*
X-204234025Y-21702187D01*
X-204412358Y-21831752D01*
X-204412363Y-21831756D01*
X-204568243Y-21987636D01*
X-204568247Y-21987641D01*
X-204605679Y-22039163D01*
X-204697815Y-22165978D01*
X-204724771Y-22218882D01*
X-204797895Y-22362393D01*
X-204797896Y-22362396D01*
X-204811905Y-22405513D01*
X-204866015Y-22572049D01*
X-204900500Y-22789778D01*
X-208599500Y-22789778D01*
X-208600872Y-22781118D01*
X-208633985Y-22572047D01*
X-208702103Y-22362396D01*
X-208702104Y-22362393D01*
X-208802187Y-22165974D01*
X-208931752Y-21987641D01*
X-208931756Y-21987636D01*
X-209087636Y-21831756D01*
X-209087641Y-21831752D01*
X-209265974Y-21702187D01*
X-209462393Y-21602104D01*
X-209462396Y-21602103D01*
X-209672047Y-21533985D01*
X-209817201Y-21510995D01*
X-209889778Y-21499500D01*
X-210110222Y-21499500D01*
X-210219086Y-21516742D01*
X-210327952Y-21533985D01*
X-210537603Y-21602103D01*
X-210537606Y-21602104D01*
X-210671096Y-21670122D01*
X-210734022Y-21702185D01*
X-210734024Y-21702186D01*
X-210734025Y-21702187D01*
X-210912358Y-21831752D01*
X-210912363Y-21831756D01*
X-211068243Y-21987636D01*
X-211068247Y-21987641D01*
X-211197814Y-22165976D01*
X-211265016Y-22297864D01*
X-211312990Y-22348659D01*
X-211380812Y-22365454D01*
X-211446946Y-22342916D01*
X-211490397Y-22288201D01*
X-211499500Y-22241568D01*
X-211499500Y-19958431D01*
X-211479815Y-19891392D01*
X-211427011Y-19845637D01*
X-211357853Y-19835693D01*
X-211294297Y-19864718D01*
X-211265014Y-19902136D01*
X-211197815Y-20034022D01*
X-211068242Y-20212365D01*
X-210912365Y-20368242D01*
X-210734022Y-20497815D01*
X-210537606Y-20597895D01*
X-210327951Y-20666015D01*
X-210110222Y-20700500D01*
X-210110221Y-20700500D01*
X-209889779Y-20700500D01*
X-209889778Y-20700500D01*
X-209672049Y-20666015D01*
X-209567221Y-20631955D01*
X-209462396Y-20597896D01*
X-209462393Y-20597895D01*
X-209394375Y-20563237D01*
X-209265978Y-20497815D01*
X-209189219Y-20442047D01*
X-209087641Y-20368247D01*
X-209087636Y-20368243D01*
X-208931756Y-20212363D01*
X-208931752Y-20212358D01*
X-208802187Y-20034025D01*
X-208802049Y-20033756D01*
X-208734985Y-19902136D01*
X-208702104Y-19837606D01*
X-208702103Y-19837603D01*
X-208633985Y-19627952D01*
X-208599500Y-19410221D01*
X-208599500Y-19189818D01*
X-204900000Y-19189818D01*
X-204900000Y-19410181D01*
X-204865526Y-19627835D01*
X-204797432Y-19837410D01*
X-204697386Y-20033760D01*
X-204651066Y-20097513D01*
X-204651066Y-20097514D01*
X-203942137Y-19388585D01*
X-203919333Y-19473694D01*
X-203860090Y-19576306D01*
X-203776306Y-19660090D01*
X-203673694Y-19719333D01*
X-203588585Y-19742138D01*
X-204297514Y-20451066D01*
X-204233760Y-20497386D01*
X-204037410Y-20597432D01*
X-203827835Y-20665526D01*
X-203610181Y-20700000D01*
X-203389819Y-20700000D01*
X-203172164Y-20665526D01*
X-203154473Y-20659778D01*
X-188900500Y-20659778D01*
X-188900500Y-20880222D01*
X-188866015Y-21097951D01*
X-188797895Y-21307606D01*
X-188697815Y-21504022D01*
X-188568242Y-21682365D01*
X-188412365Y-21838242D01*
X-188234022Y-21967815D01*
X-188037606Y-22067895D01*
X-187827951Y-22136015D01*
X-187610222Y-22170500D01*
X-187610221Y-22170500D01*
X-187389779Y-22170500D01*
X-187389778Y-22170500D01*
X-187172049Y-22136015D01*
X-187067221Y-22101955D01*
X-186962396Y-22067896D01*
X-186962393Y-22067895D01*
X-186894375Y-22033237D01*
X-186765978Y-21967815D01*
X-186743192Y-21951260D01*
X-186587641Y-21838247D01*
X-186587636Y-21838243D01*
X-186431756Y-21682363D01*
X-186431752Y-21682358D01*
X-186302187Y-21504025D01*
X-186202104Y-21307606D01*
X-186202103Y-21307603D01*
X-186133985Y-21097952D01*
X-186099500Y-20880221D01*
X-186099500Y-20659778D01*
X-186133985Y-20442047D01*
X-186202103Y-20232396D01*
X-186202104Y-20232393D01*
X-186302187Y-20035974D01*
X-186431752Y-19857641D01*
X-186431756Y-19857636D01*
X-186482317Y-19807075D01*
X-186515801Y-19745752D01*
X-186510816Y-19676060D01*
X-186468945Y-19620127D01*
X-186437968Y-19603213D01*
X-186357913Y-19573354D01*
X-186357906Y-19573350D01*
X-186242812Y-19487190D01*
X-186242809Y-19487187D01*
X-186181667Y-19405513D01*
X-179200500Y-19405513D01*
X-179200500Y-19594486D01*
X-179182117Y-19710548D01*
X-179170940Y-19781118D01*
X-179112547Y-19960832D01*
X-179026760Y-20129199D01*
X-178915690Y-20282073D01*
X-178782073Y-20415690D01*
X-178629199Y-20526760D01*
X-178460832Y-20612547D01*
X-178296275Y-20666015D01*
X-178281118Y-20670940D01*
X-178094486Y-20700500D01*
X-178094481Y-20700500D01*
X-177905514Y-20700500D01*
X-177718881Y-20670940D01*
X-177635497Y-20643846D01*
X-177539168Y-20612547D01*
X-177539165Y-20612545D01*
X-177539163Y-20612545D01*
X-177405463Y-20544421D01*
X-177370801Y-20526760D01*
X-177217927Y-20415690D01*
X-177084310Y-20282073D01*
X-176973240Y-20129199D01*
X-176957095Y-20097513D01*
X-176887454Y-19960836D01*
X-176829059Y-19781118D01*
X-176799500Y-19594486D01*
X-176799500Y-19405513D01*
X-176829059Y-19218881D01*
X-176887454Y-19039163D01*
X-176973240Y-18870800D01*
X-177036610Y-18783579D01*
X-177084310Y-18717927D01*
X-177084312Y-18717925D01*
X-177084312Y-18717924D01*
X-177217924Y-18584312D01*
X-177370800Y-18473240D01*
X-177539163Y-18387454D01*
X-177718881Y-18329059D01*
X-177905514Y-18299500D01*
X-177905519Y-18299500D01*
X-178094481Y-18299500D01*
X-178094486Y-18299500D01*
X-178281118Y-18329059D01*
X-178460836Y-18387454D01*
X-178629199Y-18473240D01*
X-178782073Y-18584310D01*
X-178915690Y-18717927D01*
X-179011647Y-18850000D01*
X-179026759Y-18870800D01*
X-179112545Y-19039163D01*
X-179170940Y-19218881D01*
X-179200500Y-19405513D01*
X-186181667Y-19405513D01*
X-186156649Y-19372093D01*
X-186156644Y-19372084D01*
X-186151136Y-19357315D01*
X-186151136Y-19357314D01*
X-186106403Y-19237379D01*
X-186106401Y-19237372D01*
X-186100000Y-19177844D01*
X-186100000Y-18480000D01*
X-187124722Y-18480000D01*
X-187080667Y-18403694D01*
X-187050000Y-18289244D01*
X-187050000Y-18170756D01*
X-187080667Y-18056306D01*
X-187124722Y-17980000D01*
X-186100000Y-17980000D01*
X-186100000Y-17282155D01*
X-186106401Y-17222627D01*
X-186106403Y-17222620D01*
X-186156645Y-17087913D01*
X-186156649Y-17087906D01*
X-186242809Y-16972812D01*
X-186242812Y-16972809D01*
X-186357906Y-16886649D01*
X-186357913Y-16886645D01*
X-186492620Y-16836403D01*
X-186492627Y-16836401D01*
X-186552155Y-16830000D01*
X-187250000Y-16830000D01*
X-187250000Y-17854722D01*
X-187326306Y-17810667D01*
X-187440756Y-17780000D01*
X-187559244Y-17780000D01*
X-187673694Y-17810667D01*
X-187750000Y-17854722D01*
X-187750000Y-16830000D01*
X-188447844Y-16830000D01*
X-188507372Y-16836401D01*
X-188507379Y-16836403D01*
X-188642086Y-16886645D01*
X-188642093Y-16886649D01*
X-188757187Y-16972809D01*
X-188757190Y-16972812D01*
X-188843350Y-17087906D01*
X-188843354Y-17087913D01*
X-188893596Y-17222620D01*
X-188893598Y-17222627D01*
X-188899999Y-17282155D01*
X-188900000Y-17282172D01*
X-188900000Y-17980000D01*
X-187875278Y-17980000D01*
X-187919333Y-18056306D01*
X-187950000Y-18170756D01*
X-187950000Y-18289244D01*
X-187919333Y-18403694D01*
X-187875278Y-18480000D01*
X-188900000Y-18480000D01*
X-188900000Y-19177827D01*
X-188899999Y-19177844D01*
X-188893598Y-19237372D01*
X-188893596Y-19237379D01*
X-188843354Y-19372086D01*
X-188843350Y-19372093D01*
X-188757190Y-19487187D01*
X-188757187Y-19487190D01*
X-188642093Y-19573350D01*
X-188642086Y-19573354D01*
X-188562031Y-19603213D01*
X-188506097Y-19645084D01*
X-188481680Y-19710548D01*
X-188496531Y-19778821D01*
X-188517683Y-19807076D01*
X-188568243Y-19857636D01*
X-188568247Y-19857641D01*
X-188681260Y-20013192D01*
X-188697815Y-20035978D01*
X-188729169Y-20097514D01*
X-188797895Y-20232393D01*
X-188797896Y-20232396D01*
X-188814037Y-20282074D01*
X-188866015Y-20442049D01*
X-188900500Y-20659778D01*
X-203154473Y-20659778D01*
X-202962589Y-20597432D01*
X-202858549Y-20544421D01*
X-202766243Y-20497388D01*
X-202702485Y-20451066D01*
X-202702485Y-20451065D01*
X-203411414Y-19742137D01*
X-203326306Y-19719333D01*
X-203223694Y-19660090D01*
X-203139910Y-19576306D01*
X-203080667Y-19473694D01*
X-203057861Y-19388584D01*
X-202348932Y-20097513D01*
X-202302611Y-20033756D01*
X-202202567Y-19837410D01*
X-202134473Y-19627835D01*
X-202100000Y-19410181D01*
X-202100000Y-19189818D01*
X-202134473Y-18972164D01*
X-202202567Y-18762589D01*
X-202302616Y-18566233D01*
X-202348931Y-18502485D01*
X-202348932Y-18502485D01*
X-203057861Y-19211414D01*
X-203080667Y-19126306D01*
X-203139910Y-19023694D01*
X-203223694Y-18939910D01*
X-203326306Y-18880667D01*
X-203411414Y-18857861D01*
X-202702485Y-18148932D01*
X-202702485Y-18148931D01*
X-202766233Y-18102616D01*
X-202962589Y-18002567D01*
X-203172164Y-17934473D01*
X-203389819Y-17900000D01*
X-203610181Y-17900000D01*
X-203827835Y-17934473D01*
X-204037410Y-18002567D01*
X-204233756Y-18102611D01*
X-204297513Y-18148932D01*
X-203588583Y-18857861D01*
X-203673694Y-18880667D01*
X-203776306Y-18939910D01*
X-203860090Y-19023694D01*
X-203919333Y-19126306D01*
X-203942137Y-19211413D01*
X-204651065Y-18502485D01*
X-204651066Y-18502485D01*
X-204697388Y-18566243D01*
X-204797432Y-18762589D01*
X-204865526Y-18972164D01*
X-204900000Y-19189818D01*
X-208599500Y-19189818D01*
X-208599500Y-19189778D01*
X-208633985Y-18972047D01*
X-208702103Y-18762396D01*
X-208702104Y-18762393D01*
X-208802187Y-18565974D01*
X-208931752Y-18387641D01*
X-208931756Y-18387636D01*
X-209035521Y-18283872D01*
X-209087636Y-18231756D01*
X-209087641Y-18231752D01*
X-209265974Y-18102187D01*
X-209462393Y-18002104D01*
X-209462396Y-18002103D01*
X-209672047Y-17933985D01*
X-209817201Y-17910995D01*
X-209889778Y-17899500D01*
X-210110222Y-17899500D01*
X-210219086Y-17916742D01*
X-210327952Y-17933985D01*
X-210537603Y-18002103D01*
X-210537606Y-18002104D01*
X-210671096Y-18070122D01*
X-210734022Y-18102185D01*
X-210734024Y-18102186D01*
X-210734025Y-18102187D01*
X-210912358Y-18231752D01*
X-210912363Y-18231756D01*
X-211068243Y-18387636D01*
X-211068247Y-18387641D01*
X-211197814Y-18565976D01*
X-211265016Y-18697864D01*
X-211312990Y-18748659D01*
X-211380812Y-18765454D01*
X-211446946Y-18742916D01*
X-211490397Y-18688201D01*
X-211499500Y-18641568D01*
X-211499500Y-15458431D01*
X-211479815Y-15391392D01*
X-211427011Y-15345637D01*
X-211357853Y-15335693D01*
X-211294297Y-15364718D01*
X-211265014Y-15402136D01*
X-211197815Y-15534022D01*
X-211068242Y-15712365D01*
X-210912365Y-15868242D01*
X-210734022Y-15997815D01*
X-210537606Y-16097895D01*
X-210327951Y-16166015D01*
X-210110222Y-16200500D01*
X-210110221Y-16200500D01*
X-209889779Y-16200500D01*
X-209889778Y-16200500D01*
X-209672049Y-16166015D01*
X-209567221Y-16131955D01*
X-209462396Y-16097896D01*
X-209462393Y-16097895D01*
X-209386538Y-16059244D01*
X-209265978Y-15997815D01*
X-209243192Y-15981260D01*
X-209087641Y-15868247D01*
X-209087636Y-15868243D01*
X-208931756Y-15712363D01*
X-208931752Y-15712358D01*
X-208802187Y-15534025D01*
X-208702104Y-15337606D01*
X-208702103Y-15337603D01*
X-208633985Y-15127952D01*
X-208599500Y-14910221D01*
X-208599500Y-14689778D01*
X-204900500Y-14689778D01*
X-204900500Y-14910222D01*
X-204866015Y-15127951D01*
X-204797895Y-15337606D01*
X-204697815Y-15534022D01*
X-204568242Y-15712365D01*
X-204412365Y-15868242D01*
X-204234022Y-15997815D01*
X-204037606Y-16097895D01*
X-203827951Y-16166015D01*
X-203610222Y-16200500D01*
X-203610221Y-16200500D01*
X-203389779Y-16200500D01*
X-203389778Y-16200500D01*
X-203172049Y-16166015D01*
X-203067221Y-16131955D01*
X-202962396Y-16097896D01*
X-202962393Y-16097895D01*
X-202943274Y-16088153D01*
X-202943270Y-16088152D01*
X-202765979Y-15997816D01*
X-202765978Y-15997815D01*
X-202587641Y-15868247D01*
X-202587636Y-15868243D01*
X-202431756Y-15712363D01*
X-202431752Y-15712358D01*
X-202302187Y-15534025D01*
X-202202104Y-15337606D01*
X-202202103Y-15337603D01*
X-202133985Y-15127952D01*
X-202121982Y-15052172D01*
X-199670000Y-15052172D01*
X-199670000Y-15750000D01*
X-198645278Y-15750000D01*
X-198689333Y-15826306D01*
X-198720000Y-15940756D01*
X-198720000Y-16059244D01*
X-198689333Y-16173694D01*
X-198645278Y-16250000D01*
X-199670000Y-16250000D01*
X-199670000Y-16947827D01*
X-199669999Y-16947844D01*
X-199663598Y-17007372D01*
X-199663596Y-17007379D01*
X-199613354Y-17142086D01*
X-199613350Y-17142093D01*
X-199527190Y-17257187D01*
X-199527187Y-17257190D01*
X-199412093Y-17343350D01*
X-199412086Y-17343354D01*
X-199277379Y-17393596D01*
X-199277372Y-17393598D01*
X-199217844Y-17399999D01*
X-199217828Y-17400000D01*
X-198520000Y-17400000D01*
X-198520000Y-16375277D01*
X-198443694Y-16419333D01*
X-198329244Y-16450000D01*
X-198210756Y-16450000D01*
X-198096306Y-16419333D01*
X-198020000Y-16375277D01*
X-198020000Y-17400000D01*
X-197322172Y-17400000D01*
X-197322155Y-17399999D01*
X-197262627Y-17393598D01*
X-197262620Y-17393596D01*
X-197127913Y-17343354D01*
X-197127906Y-17343350D01*
X-197012812Y-17257190D01*
X-197012809Y-17257187D01*
X-196926649Y-17142093D01*
X-196926646Y-17142087D01*
X-196896786Y-17062030D01*
X-196854914Y-17006097D01*
X-196789450Y-16981680D01*
X-196721177Y-16996532D01*
X-196692925Y-17017681D01*
X-196642365Y-17068242D01*
X-196464022Y-17197815D01*
X-196267606Y-17297895D01*
X-196057951Y-17366015D01*
X-195840222Y-17400500D01*
X-195840221Y-17400500D01*
X-195619779Y-17400500D01*
X-195619778Y-17400500D01*
X-195402049Y-17366015D01*
X-195297221Y-17331955D01*
X-195192396Y-17297896D01*
X-195192393Y-17297895D01*
X-195044660Y-17222620D01*
X-194995978Y-17197815D01*
X-194995974Y-17197812D01*
X-194969436Y-17178532D01*
X-194969435Y-17178531D01*
X-194817641Y-17068247D01*
X-194817636Y-17068243D01*
X-194661756Y-16912363D01*
X-194661752Y-16912358D01*
X-194532187Y-16734025D01*
X-194432104Y-16537606D01*
X-194432103Y-16537603D01*
X-194363985Y-16327952D01*
X-194329500Y-16110221D01*
X-194329500Y-15889778D01*
X-194363985Y-15672047D01*
X-194432103Y-15462396D01*
X-194432104Y-15462393D01*
X-194532187Y-15265974D01*
X-194661752Y-15087641D01*
X-194661756Y-15087636D01*
X-194817636Y-14931756D01*
X-194817641Y-14931752D01*
X-194995974Y-14802187D01*
X-195192393Y-14702104D01*
X-195192396Y-14702103D01*
X-195402047Y-14633985D01*
X-195547201Y-14610995D01*
X-195619778Y-14599500D01*
X-195840222Y-14599500D01*
X-195949086Y-14616742D01*
X-196057952Y-14633985D01*
X-196267603Y-14702103D01*
X-196267606Y-14702104D01*
X-196401096Y-14770122D01*
X-196464022Y-14802185D01*
X-196464024Y-14802186D01*
X-196464025Y-14802187D01*
X-196642358Y-14931752D01*
X-196642363Y-14931756D01*
X-196692923Y-14982316D01*
X-196754246Y-15015801D01*
X-196823938Y-15010817D01*
X-196879871Y-14968945D01*
X-196896785Y-14937969D01*
X-196926643Y-14857918D01*
X-196926649Y-14857906D01*
X-197012809Y-14742812D01*
X-197012812Y-14742809D01*
X-197127906Y-14656649D01*
X-197127913Y-14656645D01*
X-197262620Y-14606403D01*
X-197262627Y-14606401D01*
X-197322155Y-14600000D01*
X-198020000Y-14600000D01*
X-198020000Y-15624722D01*
X-198096306Y-15580667D01*
X-198210756Y-15550000D01*
X-198329244Y-15550000D01*
X-198443694Y-15580667D01*
X-198520000Y-15624722D01*
X-198520000Y-14600000D01*
X-199217844Y-14600000D01*
X-199277372Y-14606401D01*
X-199277379Y-14606403D01*
X-199412086Y-14656645D01*
X-199412093Y-14656649D01*
X-199527187Y-14742809D01*
X-199527190Y-14742812D01*
X-199613350Y-14857906D01*
X-199613354Y-14857913D01*
X-199663596Y-14992620D01*
X-199663598Y-14992627D01*
X-199669999Y-15052155D01*
X-199670000Y-15052172D01*
X-202121982Y-15052172D01*
X-202118384Y-15029453D01*
X-202118383Y-15029452D01*
X-202099500Y-14910222D01*
X-202099500Y-14689778D01*
X-202133985Y-14472047D01*
X-202202103Y-14262396D01*
X-202202104Y-14262393D01*
X-202302187Y-14065974D01*
X-202431752Y-13887641D01*
X-202431756Y-13887636D01*
X-202587636Y-13731756D01*
X-202587641Y-13731752D01*
X-202765974Y-13602187D01*
X-202962393Y-13502104D01*
X-202962396Y-13502103D01*
X-203172047Y-13433985D01*
X-203317201Y-13410995D01*
X-203389778Y-13399500D01*
X-203610222Y-13399500D01*
X-203719086Y-13416742D01*
X-203827952Y-13433985D01*
X-204037603Y-13502103D01*
X-204037606Y-13502104D01*
X-204171096Y-13570122D01*
X-204234022Y-13602185D01*
X-204234024Y-13602186D01*
X-204234025Y-13602187D01*
X-204412358Y-13731752D01*
X-204412363Y-13731756D01*
X-204568243Y-13887636D01*
X-204568247Y-13887641D01*
X-204681260Y-14043192D01*
X-204697815Y-14065978D01*
X-204736330Y-14141568D01*
X-204797895Y-14262393D01*
X-204797896Y-14262396D01*
X-204831955Y-14367221D01*
X-204866015Y-14472049D01*
X-204900500Y-14689778D01*
X-208599500Y-14689778D01*
X-208633985Y-14472047D01*
X-208702103Y-14262396D01*
X-208702104Y-14262393D01*
X-208802187Y-14065974D01*
X-208931752Y-13887641D01*
X-208931756Y-13887636D01*
X-209087636Y-13731756D01*
X-209087641Y-13731752D01*
X-209265974Y-13602187D01*
X-209462393Y-13502104D01*
X-209462396Y-13502103D01*
X-209672047Y-13433985D01*
X-209817201Y-13410995D01*
X-209889778Y-13399500D01*
X-210110222Y-13399500D01*
X-210219086Y-13416742D01*
X-210327952Y-13433985D01*
X-210537603Y-13502103D01*
X-210537606Y-13502104D01*
X-210671096Y-13570122D01*
X-210734022Y-13602185D01*
X-210734024Y-13602186D01*
X-210734025Y-13602187D01*
X-210912358Y-13731752D01*
X-210912363Y-13731756D01*
X-211068243Y-13887636D01*
X-211068247Y-13887641D01*
X-211197814Y-14065976D01*
X-211265016Y-14197864D01*
X-211312990Y-14248659D01*
X-211380812Y-14265454D01*
X-211446946Y-14242916D01*
X-211490397Y-14188201D01*
X-211499500Y-14141568D01*
X-211499500Y7390222D01*
X-197400500Y7390222D01*
X-197400500Y7169778D01*
X-197366015Y6952049D01*
X-197366014Y6952047D01*
X-197297896Y6742396D01*
X-197297895Y6742393D01*
X-197274790Y6697049D01*
X-197197815Y6545978D01*
X-197197812Y6545974D01*
X-197068247Y6367641D01*
X-197068243Y6367636D01*
X-196912363Y6211756D01*
X-196912358Y6211752D01*
X-196772745Y6110318D01*
X-196730079Y6054989D01*
X-196724100Y5985375D01*
X-196756705Y5923580D01*
X-196772745Y5909682D01*
X-196847570Y5855318D01*
X-196912365Y5808242D01*
X-197068242Y5652365D01*
X-197197815Y5474022D01*
X-197297895Y5277606D01*
X-197366015Y5067951D01*
X-197400500Y4850222D01*
X-197400500Y4629778D01*
X-197366015Y4412049D01*
X-197366014Y4412047D01*
X-197297896Y4202396D01*
X-197297895Y4202393D01*
X-197274849Y4157164D01*
X-197197815Y4005978D01*
X-197197812Y4005974D01*
X-197068247Y3827641D01*
X-197068243Y3827636D01*
X-196912363Y3671756D01*
X-196912358Y3671752D01*
X-196772745Y3570318D01*
X-196730079Y3514989D01*
X-196724100Y3445375D01*
X-196756705Y3383580D01*
X-196772745Y3369682D01*
X-196847570Y3315318D01*
X-196912365Y3268242D01*
X-197068242Y3112365D01*
X-197197815Y2934022D01*
X-197297895Y2737606D01*
X-197366015Y2527951D01*
X-197400500Y2310222D01*
X-197400500Y2089778D01*
X-197366015Y1872049D01*
X-197366014Y1872047D01*
X-197297896Y1662396D01*
X-197297895Y1662393D01*
X-197274790Y1617049D01*
X-197197815Y1465978D01*
X-197197812Y1465974D01*
X-197068247Y1287641D01*
X-197068243Y1287636D01*
X-196912363Y1131756D01*
X-196912358Y1131752D01*
X-196772745Y1030318D01*
X-196730079Y974989D01*
X-196724100Y905375D01*
X-196756705Y843580D01*
X-196772745Y829682D01*
X-196847570Y775318D01*
X-196912365Y728242D01*
X-197068242Y572365D01*
X-197197815Y394022D01*
X-197297895Y197606D01*
X-197366015Y-12049D01*
X-197400500Y-229778D01*
X-197400500Y-450222D01*
X-197366015Y-667951D01*
X-197297895Y-877606D01*
X-197197815Y-1074022D01*
X-197068242Y-1252365D01*
X-196912365Y-1408242D01*
X-196912358Y-1408247D01*
X-196772745Y-1509682D01*
X-196730079Y-1565011D01*
X-196724100Y-1634625D01*
X-196756705Y-1696420D01*
X-196772745Y-1710318D01*
X-196912358Y-1811752D01*
X-196912363Y-1811756D01*
X-197068243Y-1967636D01*
X-197068247Y-1967641D01*
X-197140257Y-2066756D01*
X-197197815Y-2145978D01*
X-197236877Y-2222641D01*
X-197297895Y-2342393D01*
X-197297895Y-2342394D01*
X-197366015Y-2552049D01*
X-197400500Y-2769778D01*
X-197400500Y-2990222D01*
X-197366015Y-3207951D01*
X-197297895Y-3417606D01*
X-197197815Y-3614022D01*
X-197068242Y-3792365D01*
X-196912365Y-3948242D01*
X-196912358Y-3948247D01*
X-196772745Y-4049682D01*
X-196730079Y-4105011D01*
X-196724100Y-4174625D01*
X-196756705Y-4236420D01*
X-196772745Y-4250318D01*
X-196912358Y-4351752D01*
X-196912363Y-4351756D01*
X-197068243Y-4507636D01*
X-197068247Y-4507641D01*
X-197140257Y-4606756D01*
X-197197815Y-4685978D01*
X-197236877Y-4762641D01*
X-197297895Y-4882393D01*
X-197297895Y-4882394D01*
X-197366015Y-5092049D01*
X-197400500Y-5309778D01*
X-197400500Y-5530222D01*
X-197366015Y-5747951D01*
X-197297895Y-5957606D01*
X-197197815Y-6154022D01*
X-197068242Y-6332365D01*
X-196912365Y-6488242D01*
X-196772317Y-6589991D01*
X-196729653Y-6645320D01*
X-196723674Y-6714933D01*
X-196756279Y-6776729D01*
X-196772319Y-6790628D01*
X-196797513Y-6808932D01*
X-196088583Y-7517861D01*
X-196173694Y-7540667D01*
X-196276306Y-7599910D01*
X-196360090Y-7683694D01*
X-196419333Y-7786306D01*
X-196442137Y-7871413D01*
X-197151065Y-7162485D01*
X-197151066Y-7162485D01*
X-197197388Y-7226243D01*
X-197297432Y-7422589D01*
X-197365526Y-7632164D01*
X-197400000Y-7849818D01*
X-197400000Y-8070181D01*
X-197365526Y-8287835D01*
X-197297432Y-8497410D01*
X-197197386Y-8693760D01*
X-197151066Y-8757513D01*
X-197151066Y-8757514D01*
X-196442137Y-8048585D01*
X-196419333Y-8133694D01*
X-196360090Y-8236306D01*
X-196276306Y-8320090D01*
X-196173694Y-8379333D01*
X-196088585Y-8402138D01*
X-196797514Y-9111066D01*
X-196772319Y-9129372D01*
X-196729653Y-9184701D01*
X-196723674Y-9254315D01*
X-196756279Y-9316110D01*
X-196772319Y-9330008D01*
X-196912358Y-9431752D01*
X-196912363Y-9431756D01*
X-197068243Y-9587636D01*
X-197068247Y-9587641D01*
X-197140257Y-9686756D01*
X-197197815Y-9765978D01*
X-197236877Y-9842641D01*
X-197297895Y-9962393D01*
X-197297895Y-9962394D01*
X-197366015Y-10172049D01*
X-197400500Y-10389778D01*
X-197400500Y-10610222D01*
X-197366015Y-10827951D01*
X-197297895Y-11037606D01*
X-197197815Y-11234022D01*
X-197068242Y-11412365D01*
X-196912365Y-11568242D01*
X-196734022Y-11697815D01*
X-196537606Y-11797895D01*
X-196327951Y-11866015D01*
X-196110222Y-11900500D01*
X-196110221Y-11900500D01*
X-195889779Y-11900500D01*
X-195889778Y-11900500D01*
X-195672049Y-11866015D01*
X-195567221Y-11831955D01*
X-195462396Y-11797896D01*
X-195462393Y-11797895D01*
X-195394375Y-11763237D01*
X-195265978Y-11697815D01*
X-195224057Y-11667358D01*
X-195087641Y-11568247D01*
X-195087636Y-11568243D01*
X-194931756Y-11412363D01*
X-194931752Y-11412358D01*
X-194802187Y-11234025D01*
X-194702104Y-11037606D01*
X-194702103Y-11037603D01*
X-194633985Y-10827952D01*
X-194599500Y-10610221D01*
X-194599500Y-10389778D01*
X-194633985Y-10172047D01*
X-194702103Y-9962396D01*
X-194702104Y-9962393D01*
X-194802187Y-9765974D01*
X-194931752Y-9587641D01*
X-194931756Y-9587636D01*
X-195087636Y-9431756D01*
X-195227681Y-9330008D01*
X-195270346Y-9274678D01*
X-195276325Y-9205065D01*
X-195243719Y-9143270D01*
X-195227680Y-9129371D01*
X-195202485Y-9111066D01*
X-195202485Y-9111065D01*
X-195911414Y-8402137D01*
X-195826306Y-8379333D01*
X-195723694Y-8320090D01*
X-195639910Y-8236306D01*
X-195580667Y-8133694D01*
X-195557861Y-8048584D01*
X-194848932Y-8757513D01*
X-194802611Y-8693756D01*
X-194702567Y-8497410D01*
X-194634473Y-8287835D01*
X-194600000Y-8070181D01*
X-194600000Y-7849818D01*
X-194634473Y-7632164D01*
X-194702567Y-7422589D01*
X-194802616Y-7226233D01*
X-194848931Y-7162485D01*
X-194848932Y-7162485D01*
X-195557861Y-7871414D01*
X-195580667Y-7786306D01*
X-195639910Y-7683694D01*
X-195723694Y-7599910D01*
X-195826306Y-7540667D01*
X-195911414Y-7517861D01*
X-195202485Y-6808932D01*
X-195202485Y-6808930D01*
X-195227679Y-6790626D01*
X-195270345Y-6735296D01*
X-195276324Y-6665683D01*
X-195243718Y-6603888D01*
X-195227679Y-6589990D01*
X-195087640Y-6488247D01*
X-194931756Y-6332363D01*
X-194931752Y-6332358D01*
X-194802187Y-6154025D01*
X-194702104Y-5957606D01*
X-194702103Y-5957603D01*
X-194633985Y-5747952D01*
X-194599500Y-5530221D01*
X-194599500Y-5309778D01*
X-194633985Y-5092047D01*
X-194702103Y-4882396D01*
X-194702104Y-4882393D01*
X-194802187Y-4685974D01*
X-194931752Y-4507641D01*
X-194931756Y-4507636D01*
X-195087636Y-4351756D01*
X-195087641Y-4351752D01*
X-195227254Y-4250318D01*
X-195269920Y-4194988D01*
X-195275899Y-4125375D01*
X-195243293Y-4063580D01*
X-195227254Y-4049682D01*
X-195087641Y-3948247D01*
X-195087636Y-3948243D01*
X-194931756Y-3792363D01*
X-194931752Y-3792358D01*
X-194802187Y-3614025D01*
X-194702104Y-3417606D01*
X-194702103Y-3417603D01*
X-194633985Y-3207952D01*
X-194599500Y-2990221D01*
X-194599500Y-2769778D01*
X-194633985Y-2552047D01*
X-194702103Y-2342396D01*
X-194702104Y-2342393D01*
X-194802187Y-2145974D01*
X-194931752Y-1967641D01*
X-194931756Y-1967636D01*
X-195087636Y-1811756D01*
X-195087641Y-1811752D01*
X-195227254Y-1710318D01*
X-195269920Y-1654988D01*
X-195275899Y-1585375D01*
X-195243293Y-1523580D01*
X-195227254Y-1509682D01*
X-195087641Y-1408247D01*
X-195087636Y-1408243D01*
X-194931756Y-1252363D01*
X-194931752Y-1252358D01*
X-194802187Y-1074025D01*
X-194702104Y-877606D01*
X-194702103Y-877603D01*
X-194633985Y-667952D01*
X-194599500Y-450221D01*
X-194599500Y-229778D01*
X-194633985Y-12047D01*
X-194702103Y197603D01*
X-194702104Y197606D01*
X-194802187Y394025D01*
X-194931752Y572358D01*
X-194931756Y572363D01*
X-195087636Y728243D01*
X-195087641Y728247D01*
X-195227254Y829682D01*
X-195269920Y885012D01*
X-195275899Y954625D01*
X-195243293Y1016420D01*
X-195227254Y1030318D01*
X-195087641Y1131752D01*
X-195087636Y1131756D01*
X-194931756Y1287636D01*
X-194931752Y1287641D01*
X-194802187Y1465974D01*
X-194702104Y1662393D01*
X-194702103Y1662396D01*
X-194633985Y1872047D01*
X-194599500Y2089778D01*
X-194599500Y2310221D01*
X-194633985Y2527952D01*
X-194702103Y2737603D01*
X-194702104Y2737606D01*
X-194802187Y2934025D01*
X-194931752Y3112358D01*
X-194931756Y3112363D01*
X-195087636Y3268243D01*
X-195087641Y3268247D01*
X-195227254Y3369682D01*
X-195269920Y3425012D01*
X-195275899Y3494625D01*
X-195243293Y3556420D01*
X-195227254Y3570318D01*
X-195087641Y3671752D01*
X-195087636Y3671756D01*
X-194931756Y3827636D01*
X-194931752Y3827641D01*
X-194802187Y4005974D01*
X-194702104Y4202393D01*
X-194702103Y4202396D01*
X-194633985Y4412047D01*
X-194599500Y4629778D01*
X-194599500Y4850221D01*
X-194633985Y5067952D01*
X-194702103Y5277603D01*
X-194702104Y5277606D01*
X-194802187Y5474025D01*
X-194931752Y5652358D01*
X-194931756Y5652363D01*
X-195087636Y5808243D01*
X-195087641Y5808247D01*
X-195227254Y5909682D01*
X-195269920Y5965012D01*
X-195275899Y6034625D01*
X-195243293Y6096420D01*
X-195227254Y6110318D01*
X-195087641Y6211752D01*
X-195087636Y6211756D01*
X-194931756Y6367636D01*
X-194931752Y6367641D01*
X-194802187Y6545974D01*
X-194702104Y6742393D01*
X-194702103Y6742396D01*
X-194633985Y6952047D01*
X-194604972Y7135222D01*
X-193025500Y7135222D01*
X-193025500Y6914778D01*
X-192991015Y6697049D01*
X-192991014Y6697047D01*
X-192922896Y6487396D01*
X-192922895Y6487393D01*
X-192888237Y6419375D01*
X-192822815Y6290978D01*
X-192822812Y6290974D01*
X-192693247Y6112641D01*
X-192693243Y6112636D01*
X-192537363Y5956756D01*
X-192537358Y5956752D01*
X-192397745Y5855318D01*
X-192355079Y5799989D01*
X-192349100Y5730375D01*
X-192381705Y5668580D01*
X-192397745Y5654682D01*
X-192522826Y5563804D01*
X-192537365Y5553242D01*
X-192693242Y5397365D01*
X-192822815Y5219022D01*
X-192922895Y5022606D01*
X-192991015Y4812951D01*
X-193025500Y4595222D01*
X-193025500Y4374778D01*
X-192991015Y4157049D01*
X-192961324Y4065667D01*
X-192922896Y3947396D01*
X-192922895Y3947393D01*
X-192888237Y3879375D01*
X-192822815Y3750978D01*
X-192822812Y3750974D01*
X-192693247Y3572641D01*
X-192693243Y3572636D01*
X-192537363Y3416756D01*
X-192537358Y3416752D01*
X-192397745Y3315318D01*
X-192355079Y3259989D01*
X-192349100Y3190375D01*
X-192381705Y3128580D01*
X-192397745Y3114682D01*
X-192522826Y3023804D01*
X-192537365Y3013242D01*
X-192693242Y2857365D01*
X-192822815Y2679022D01*
X-192922895Y2482606D01*
X-192991015Y2272951D01*
X-193025500Y2055222D01*
X-193025500Y1834778D01*
X-192991015Y1617049D01*
X-192991014Y1617047D01*
X-192922896Y1407396D01*
X-192922895Y1407393D01*
X-192888237Y1339375D01*
X-192822815Y1210978D01*
X-192822812Y1210974D01*
X-192693247Y1032641D01*
X-192693243Y1032636D01*
X-192537363Y876756D01*
X-192537358Y876752D01*
X-192397745Y775318D01*
X-192355079Y719989D01*
X-192349100Y650375D01*
X-192381705Y588580D01*
X-192397745Y574682D01*
X-192522826Y483804D01*
X-192537365Y473242D01*
X-192693242Y317365D01*
X-192822815Y139022D01*
X-192897151Y-6870D01*
X-192922895Y-57393D01*
X-192922895Y-57394D01*
X-192991015Y-267049D01*
X-193025500Y-484778D01*
X-193025500Y-705222D01*
X-192991015Y-922951D01*
X-192922895Y-1132606D01*
X-192822815Y-1329022D01*
X-192693242Y-1507365D01*
X-192537365Y-1663242D01*
X-192537358Y-1663247D01*
X-192397745Y-1764682D01*
X-192355079Y-1820011D01*
X-192349100Y-1889625D01*
X-192381705Y-1951420D01*
X-192397745Y-1965318D01*
X-192537358Y-2066752D01*
X-192537363Y-2066756D01*
X-192693243Y-2222636D01*
X-192693247Y-2222641D01*
X-192780253Y-2342396D01*
X-192822815Y-2400978D01*
X-192888237Y-2529375D01*
X-192922895Y-2597393D01*
X-192922895Y-2597394D01*
X-192991015Y-2807049D01*
X-193025500Y-3024778D01*
X-193025500Y-3245222D01*
X-192991015Y-3462951D01*
X-192922895Y-3672606D01*
X-192822815Y-3869022D01*
X-192693242Y-4047365D01*
X-192537365Y-4203242D01*
X-192537358Y-4203247D01*
X-192397745Y-4304682D01*
X-192355079Y-4360011D01*
X-192349100Y-4429625D01*
X-192381705Y-4491420D01*
X-192397745Y-4505318D01*
X-192537358Y-4606752D01*
X-192537363Y-4606756D01*
X-192693243Y-4762636D01*
X-192693247Y-4762641D01*
X-192780253Y-4882396D01*
X-192822815Y-4940978D01*
X-192888237Y-5069375D01*
X-192922895Y-5137393D01*
X-192922895Y-5137394D01*
X-192991015Y-5347049D01*
X-193025500Y-5564778D01*
X-193025500Y-5785222D01*
X-192991015Y-6002951D01*
X-192922895Y-6212606D01*
X-192822815Y-6409022D01*
X-192693242Y-6587365D01*
X-192537365Y-6743242D01*
X-192537358Y-6743247D01*
X-192397745Y-6844682D01*
X-192355079Y-6900011D01*
X-192349100Y-6969625D01*
X-192381705Y-7031420D01*
X-192397745Y-7045318D01*
X-192537358Y-7146752D01*
X-192537363Y-7146756D01*
X-192693243Y-7302636D01*
X-192693247Y-7302641D01*
X-192780393Y-7422589D01*
X-192822815Y-7480978D01*
X-192886745Y-7606446D01*
X-192922895Y-7677393D01*
X-192922895Y-7677394D01*
X-192991015Y-7887049D01*
X-193025500Y-8104778D01*
X-193025500Y-8325222D01*
X-192991015Y-8542951D01*
X-192922895Y-8752606D01*
X-192822815Y-8949022D01*
X-192693242Y-9127365D01*
X-192537365Y-9283242D01*
X-192537358Y-9283247D01*
X-192397745Y-9384682D01*
X-192355079Y-9440011D01*
X-192349100Y-9509625D01*
X-192381705Y-9571420D01*
X-192397745Y-9585318D01*
X-192537358Y-9686752D01*
X-192537363Y-9686756D01*
X-192693243Y-9842636D01*
X-192693247Y-9842641D01*
X-192780253Y-9962396D01*
X-192822815Y-10020978D01*
X-192888237Y-10149375D01*
X-192922895Y-10217393D01*
X-192922895Y-10217394D01*
X-192991015Y-10427049D01*
X-193025500Y-10644778D01*
X-193025500Y-10865222D01*
X-192991015Y-11082951D01*
X-192922895Y-11292606D01*
X-192822815Y-11489022D01*
X-192693242Y-11667365D01*
X-192537365Y-11823242D01*
X-192359022Y-11952815D01*
X-192162606Y-12052895D01*
X-191952951Y-12121015D01*
X-191735222Y-12155500D01*
X-191735221Y-12155500D01*
X-191514779Y-12155500D01*
X-191514778Y-12155500D01*
X-191297049Y-12121015D01*
X-191192221Y-12086955D01*
X-191087396Y-12052896D01*
X-191087393Y-12052895D01*
X-191019375Y-12018237D01*
X-190890978Y-11952815D01*
X-190771507Y-11866015D01*
X-190712641Y-11823247D01*
X-190712636Y-11823243D01*
X-190556756Y-11667363D01*
X-190556752Y-11667358D01*
X-190427187Y-11489025D01*
X-190327104Y-11292606D01*
X-190327103Y-11292603D01*
X-190258985Y-11082952D01*
X-190224500Y-10865221D01*
X-190224500Y-10644778D01*
X-190258985Y-10427047D01*
X-190327103Y-10217396D01*
X-190327104Y-10217393D01*
X-190427187Y-10020974D01*
X-190556752Y-9842641D01*
X-190556756Y-9842636D01*
X-190712636Y-9686756D01*
X-190712641Y-9686752D01*
X-190852254Y-9585318D01*
X-190894920Y-9529988D01*
X-190900899Y-9460375D01*
X-190868293Y-9398580D01*
X-190852254Y-9384682D01*
X-190712641Y-9283247D01*
X-190712636Y-9283243D01*
X-190556756Y-9127363D01*
X-190556752Y-9127358D01*
X-190427187Y-8949025D01*
X-190327104Y-8752606D01*
X-190327103Y-8752603D01*
X-190258985Y-8542952D01*
X-190224500Y-8325221D01*
X-190224500Y-8104778D01*
X-190258985Y-7887047D01*
X-190327103Y-7677396D01*
X-190327104Y-7677393D01*
X-190427187Y-7480974D01*
X-190556752Y-7302641D01*
X-190556756Y-7302636D01*
X-190712636Y-7146756D01*
X-190712641Y-7146752D01*
X-190852254Y-7045318D01*
X-190894920Y-6989988D01*
X-190900899Y-6920375D01*
X-190868293Y-6858580D01*
X-190852254Y-6844682D01*
X-190712641Y-6743247D01*
X-190712636Y-6743243D01*
X-190556756Y-6587363D01*
X-190556752Y-6587358D01*
X-190427187Y-6409025D01*
X-190327104Y-6212606D01*
X-190327103Y-6212603D01*
X-190258985Y-6002952D01*
X-190224500Y-5785221D01*
X-190224500Y-5564778D01*
X-190258985Y-5347047D01*
X-190327103Y-5137396D01*
X-190327104Y-5137393D01*
X-190427187Y-4940974D01*
X-190556752Y-4762641D01*
X-190556756Y-4762636D01*
X-190712636Y-4606756D01*
X-190712641Y-4606752D01*
X-190852254Y-4505318D01*
X-190894920Y-4449988D01*
X-190900899Y-4380375D01*
X-190868293Y-4318580D01*
X-190852254Y-4304682D01*
X-190712641Y-4203247D01*
X-190712636Y-4203243D01*
X-190556756Y-4047363D01*
X-190556752Y-4047358D01*
X-190427187Y-3869025D01*
X-190327104Y-3672606D01*
X-190327103Y-3672603D01*
X-190258985Y-3462952D01*
X-190224500Y-3245221D01*
X-190224500Y-3024778D01*
X-190258985Y-2807047D01*
X-190327103Y-2597396D01*
X-190327104Y-2597393D01*
X-190427187Y-2400974D01*
X-190556752Y-2222641D01*
X-190556756Y-2222636D01*
X-190712636Y-2066756D01*
X-190712641Y-2066752D01*
X-190852254Y-1965318D01*
X-190894920Y-1909988D01*
X-190900899Y-1840375D01*
X-190868293Y-1778580D01*
X-190852254Y-1764682D01*
X-190712641Y-1663247D01*
X-190712636Y-1663243D01*
X-190556756Y-1507363D01*
X-190556752Y-1507358D01*
X-190427187Y-1329025D01*
X-190327104Y-1132606D01*
X-190327103Y-1132603D01*
X-190258985Y-922952D01*
X-190224500Y-705221D01*
X-190224500Y-484778D01*
X-190258985Y-267047D01*
X-190327103Y-57396D01*
X-190327104Y-57393D01*
X-190427187Y139025D01*
X-190556752Y317358D01*
X-190556756Y317363D01*
X-190712636Y473243D01*
X-190712641Y473247D01*
X-190852254Y574682D01*
X-190894920Y630012D01*
X-190900899Y699625D01*
X-190868293Y761420D01*
X-190852254Y775318D01*
X-190712641Y876752D01*
X-190712636Y876756D01*
X-190556756Y1032636D01*
X-190556752Y1032641D01*
X-190427187Y1210974D01*
X-190327104Y1407393D01*
X-190327103Y1407396D01*
X-190258985Y1617047D01*
X-190224500Y1834778D01*
X-190224500Y2055221D01*
X-190258985Y2272952D01*
X-190327103Y2482603D01*
X-190327104Y2482606D01*
X-190427187Y2679025D01*
X-190556752Y2857358D01*
X-190556756Y2857363D01*
X-190712636Y3013243D01*
X-190712641Y3013247D01*
X-190852254Y3114682D01*
X-190894920Y3170012D01*
X-190900899Y3239625D01*
X-190868293Y3301420D01*
X-190852254Y3315318D01*
X-190712641Y3416752D01*
X-190712636Y3416756D01*
X-190556756Y3572636D01*
X-190556752Y3572641D01*
X-190427187Y3750974D01*
X-190327104Y3947393D01*
X-190327103Y3947396D01*
X-190258985Y4157047D01*
X-190224500Y4374778D01*
X-190224500Y4595221D01*
X-190258985Y4812952D01*
X-190327103Y5022603D01*
X-190327104Y5022606D01*
X-190395122Y5156096D01*
X-190427185Y5219022D01*
X-190469746Y5277603D01*
X-190556752Y5397358D01*
X-190556756Y5397363D01*
X-190712636Y5553243D01*
X-190712641Y5553247D01*
X-190852254Y5654682D01*
X-190894920Y5710012D01*
X-190900899Y5779625D01*
X-190868293Y5841420D01*
X-190852254Y5855318D01*
X-190712641Y5956752D01*
X-190712636Y5956756D01*
X-190556756Y6112636D01*
X-190556752Y6112641D01*
X-190427187Y6290974D01*
X-190327104Y6487393D01*
X-190327103Y6487396D01*
X-190258985Y6697047D01*
X-190224500Y6914778D01*
X-190224500Y7135221D01*
X-190224500Y7135222D01*
X-177785500Y7135222D01*
X-177785500Y6914778D01*
X-177751015Y6697049D01*
X-177751014Y6697047D01*
X-177682896Y6487396D01*
X-177682895Y6487393D01*
X-177648237Y6419375D01*
X-177582815Y6290978D01*
X-177582812Y6290974D01*
X-177453247Y6112641D01*
X-177453243Y6112636D01*
X-177297363Y5956756D01*
X-177297358Y5956752D01*
X-177157319Y5855008D01*
X-177114653Y5799678D01*
X-177108674Y5730065D01*
X-177141279Y5668270D01*
X-177157319Y5654372D01*
X-177182513Y5636066D01*
X-177182514Y5636066D01*
X-176473585Y4927138D01*
X-176558694Y4904333D01*
X-176661306Y4845090D01*
X-176745090Y4761306D01*
X-176804333Y4658694D01*
X-176827137Y4573585D01*
X-177536066Y5282514D01*
X-177536066Y5282513D01*
X-177582386Y5218760D01*
X-177682432Y5022410D01*
X-177750526Y4812835D01*
X-177785000Y4595181D01*
X-177785000Y4374818D01*
X-177750526Y4157164D01*
X-177682432Y3947589D01*
X-177582388Y3751243D01*
X-177536066Y3687485D01*
X-177536065Y3687485D01*
X-176827137Y4396413D01*
X-176804333Y4311306D01*
X-176745090Y4208694D01*
X-176661306Y4124910D01*
X-176558694Y4065667D01*
X-176473584Y4042861D01*
X-177182513Y3333932D01*
X-177157319Y3315628D01*
X-177114653Y3260298D01*
X-177108674Y3190685D01*
X-177141279Y3128889D01*
X-177157313Y3114994D01*
X-177297365Y3013242D01*
X-177453242Y2857365D01*
X-177582815Y2679022D01*
X-177682895Y2482606D01*
X-177751015Y2272951D01*
X-177785500Y2055222D01*
X-177785500Y1834778D01*
X-177751015Y1617049D01*
X-177751014Y1617047D01*
X-177682896Y1407396D01*
X-177682895Y1407393D01*
X-177648237Y1339375D01*
X-177582815Y1210978D01*
X-177582812Y1210974D01*
X-177453247Y1032641D01*
X-177453243Y1032636D01*
X-177297363Y876756D01*
X-177297358Y876752D01*
X-177157745Y775318D01*
X-177115079Y719989D01*
X-177109100Y650375D01*
X-177141705Y588580D01*
X-177157745Y574682D01*
X-177282826Y483804D01*
X-177297365Y473242D01*
X-177453242Y317365D01*
X-177582815Y139022D01*
X-177657151Y-6870D01*
X-177682895Y-57393D01*
X-177682895Y-57394D01*
X-177751015Y-267049D01*
X-177785500Y-484778D01*
X-177785500Y-705222D01*
X-177751015Y-922951D01*
X-177682895Y-1132606D01*
X-177582815Y-1329022D01*
X-177453242Y-1507365D01*
X-177297365Y-1663242D01*
X-177297358Y-1663247D01*
X-177157745Y-1764682D01*
X-177115079Y-1820011D01*
X-177109100Y-1889625D01*
X-177141705Y-1951420D01*
X-177157745Y-1965318D01*
X-177297358Y-2066752D01*
X-177297363Y-2066756D01*
X-177453243Y-2222636D01*
X-177453247Y-2222641D01*
X-177540253Y-2342396D01*
X-177582815Y-2400978D01*
X-177648237Y-2529375D01*
X-177682895Y-2597393D01*
X-177682895Y-2597394D01*
X-177751015Y-2807049D01*
X-177785500Y-3024778D01*
X-177785500Y-3245222D01*
X-177751015Y-3462951D01*
X-177682895Y-3672606D01*
X-177582815Y-3869022D01*
X-177453242Y-4047365D01*
X-177297365Y-4203242D01*
X-177297358Y-4203247D01*
X-177157745Y-4304682D01*
X-177115079Y-4360011D01*
X-177109100Y-4429625D01*
X-177141705Y-4491420D01*
X-177157745Y-4505318D01*
X-177297358Y-4606752D01*
X-177297363Y-4606756D01*
X-177453243Y-4762636D01*
X-177453247Y-4762641D01*
X-177540253Y-4882396D01*
X-177582815Y-4940978D01*
X-177648237Y-5069375D01*
X-177682895Y-5137393D01*
X-177682895Y-5137394D01*
X-177751015Y-5347049D01*
X-177785500Y-5564778D01*
X-177785500Y-5785222D01*
X-177751015Y-6002951D01*
X-177682895Y-6212606D01*
X-177582815Y-6409022D01*
X-177453242Y-6587365D01*
X-177297365Y-6743242D01*
X-177297358Y-6743247D01*
X-177157745Y-6844682D01*
X-177115079Y-6900011D01*
X-177109100Y-6969625D01*
X-177141705Y-7031420D01*
X-177157745Y-7045318D01*
X-177297358Y-7146752D01*
X-177297363Y-7146756D01*
X-177453243Y-7302636D01*
X-177453247Y-7302641D01*
X-177540393Y-7422589D01*
X-177582815Y-7480978D01*
X-177646745Y-7606446D01*
X-177682895Y-7677393D01*
X-177682895Y-7677394D01*
X-177751015Y-7887049D01*
X-177785500Y-8104778D01*
X-177785500Y-8325222D01*
X-177751015Y-8542951D01*
X-177682895Y-8752606D01*
X-177582815Y-8949022D01*
X-177453242Y-9127365D01*
X-177297365Y-9283242D01*
X-177297358Y-9283247D01*
X-177157745Y-9384682D01*
X-177115079Y-9440011D01*
X-177109100Y-9509625D01*
X-177141705Y-9571420D01*
X-177157745Y-9585318D01*
X-177297358Y-9686752D01*
X-177297363Y-9686756D01*
X-177453243Y-9842636D01*
X-177453247Y-9842641D01*
X-177540253Y-9962396D01*
X-177582815Y-10020978D01*
X-177648237Y-10149375D01*
X-177682895Y-10217393D01*
X-177682895Y-10217394D01*
X-177751015Y-10427049D01*
X-177785500Y-10644778D01*
X-177785500Y-10865222D01*
X-177751015Y-11082951D01*
X-177682895Y-11292606D01*
X-177582815Y-11489022D01*
X-177453242Y-11667365D01*
X-177297365Y-11823242D01*
X-177119022Y-11952815D01*
X-176922606Y-12052895D01*
X-176712951Y-12121015D01*
X-176495222Y-12155500D01*
X-176495221Y-12155500D01*
X-176274779Y-12155500D01*
X-176274778Y-12155500D01*
X-176057049Y-12121015D01*
X-175952221Y-12086955D01*
X-175847396Y-12052896D01*
X-175847393Y-12052895D01*
X-175779375Y-12018237D01*
X-175650978Y-11952815D01*
X-175531507Y-11866015D01*
X-175472641Y-11823247D01*
X-175472636Y-11823243D01*
X-175316756Y-11667363D01*
X-175316752Y-11667358D01*
X-175187187Y-11489025D01*
X-175087104Y-11292606D01*
X-175087103Y-11292603D01*
X-175018985Y-11082952D01*
X-174984500Y-10865221D01*
X-174984500Y-10644778D01*
X-175018985Y-10427047D01*
X-175087103Y-10217396D01*
X-175087104Y-10217393D01*
X-175187187Y-10020974D01*
X-175316752Y-9842641D01*
X-175316756Y-9842636D01*
X-175472636Y-9686756D01*
X-175472641Y-9686752D01*
X-175612254Y-9585318D01*
X-175654920Y-9529988D01*
X-175660899Y-9460375D01*
X-175628293Y-9398580D01*
X-175612254Y-9384682D01*
X-175472641Y-9283247D01*
X-175472636Y-9283243D01*
X-175316756Y-9127363D01*
X-175316752Y-9127358D01*
X-175187187Y-8949025D01*
X-175087104Y-8752606D01*
X-175087103Y-8752603D01*
X-175018985Y-8542952D01*
X-174984500Y-8325221D01*
X-174984500Y-8104778D01*
X-175018985Y-7887047D01*
X-175087103Y-7677396D01*
X-175087104Y-7677393D01*
X-175187187Y-7480974D01*
X-175316752Y-7302641D01*
X-175316756Y-7302636D01*
X-175472636Y-7146756D01*
X-175472641Y-7146752D01*
X-175612254Y-7045318D01*
X-175654920Y-6989988D01*
X-175660899Y-6920375D01*
X-175628293Y-6858580D01*
X-175612254Y-6844682D01*
X-175472641Y-6743247D01*
X-175472636Y-6743243D01*
X-175316756Y-6587363D01*
X-175316752Y-6587358D01*
X-175187187Y-6409025D01*
X-175087104Y-6212606D01*
X-175087103Y-6212603D01*
X-175018985Y-6002952D01*
X-174984500Y-5785221D01*
X-174984500Y-5564778D01*
X-175018985Y-5347047D01*
X-175087103Y-5137396D01*
X-175087104Y-5137393D01*
X-175187187Y-4940974D01*
X-175316752Y-4762641D01*
X-175316756Y-4762636D01*
X-175472636Y-4606756D01*
X-175472641Y-4606752D01*
X-175612254Y-4505318D01*
X-175654920Y-4449988D01*
X-175660899Y-4380375D01*
X-175628293Y-4318580D01*
X-175612254Y-4304682D01*
X-175472641Y-4203247D01*
X-175472636Y-4203243D01*
X-175316756Y-4047363D01*
X-175316752Y-4047358D01*
X-175187187Y-3869025D01*
X-175087104Y-3672606D01*
X-175087103Y-3672603D01*
X-175018985Y-3462952D01*
X-174984500Y-3245221D01*
X-174984500Y-3024778D01*
X-175018985Y-2807047D01*
X-175087103Y-2597396D01*
X-175087104Y-2597393D01*
X-175187187Y-2400974D01*
X-175316752Y-2222641D01*
X-175316756Y-2222636D01*
X-175472636Y-2066756D01*
X-175472641Y-2066752D01*
X-175612254Y-1965318D01*
X-175654920Y-1909988D01*
X-175660899Y-1840375D01*
X-175628293Y-1778580D01*
X-175612254Y-1764682D01*
X-175472641Y-1663247D01*
X-175472636Y-1663243D01*
X-175316756Y-1507363D01*
X-175316752Y-1507358D01*
X-175187187Y-1329025D01*
X-175087104Y-1132606D01*
X-175087103Y-1132603D01*
X-175018985Y-922952D01*
X-174984500Y-705221D01*
X-174984500Y-484778D01*
X-175018985Y-267047D01*
X-175087103Y-57396D01*
X-175087104Y-57393D01*
X-175187187Y139025D01*
X-175316752Y317358D01*
X-175316756Y317363D01*
X-175472636Y473243D01*
X-175472641Y473247D01*
X-175612254Y574682D01*
X-175654920Y630012D01*
X-175660899Y699625D01*
X-175628293Y761420D01*
X-175612254Y775318D01*
X-175472641Y876752D01*
X-175472636Y876756D01*
X-175316756Y1032636D01*
X-175316752Y1032641D01*
X-175187187Y1210974D01*
X-175087104Y1407393D01*
X-175087103Y1407396D01*
X-175018985Y1617047D01*
X-174984500Y1834778D01*
X-174984500Y2055221D01*
X-175018985Y2272952D01*
X-175087103Y2482603D01*
X-175087104Y2482606D01*
X-175187187Y2679025D01*
X-175316752Y2857358D01*
X-175316756Y2857363D01*
X-175472640Y3013247D01*
X-175612679Y3114990D01*
X-175655345Y3170319D01*
X-175661324Y3239933D01*
X-175628719Y3301728D01*
X-175612679Y3315626D01*
X-175587485Y3333930D01*
X-175587485Y3333932D01*
X-176296415Y4042861D01*
X-176211306Y4065667D01*
X-176108694Y4124910D01*
X-176024910Y4208694D01*
X-175965667Y4311306D01*
X-175942861Y4396414D01*
X-175233932Y3687485D01*
X-175233931Y3687485D01*
X-175187616Y3751233D01*
X-175087567Y3947589D01*
X-175019473Y4157164D01*
X-174985000Y4374818D01*
X-174985000Y4595181D01*
X-175019473Y4812835D01*
X-175087567Y5022410D01*
X-175187611Y5218756D01*
X-175233932Y5282513D01*
X-175942861Y4573584D01*
X-175965667Y4658694D01*
X-176024910Y4761306D01*
X-176108694Y4845090D01*
X-176211306Y4904333D01*
X-176296414Y4927137D01*
X-175587485Y5636065D01*
X-175587485Y5636066D01*
X-175612680Y5654371D01*
X-175655346Y5709701D01*
X-175661325Y5779314D01*
X-175628720Y5841110D01*
X-175612681Y5855008D01*
X-175472636Y5956756D01*
X-175316756Y6112636D01*
X-175316752Y6112641D01*
X-175187187Y6290974D01*
X-175087104Y6487393D01*
X-175087103Y6487396D01*
X-175018985Y6697047D01*
X-174984500Y6914778D01*
X-174984500Y7135221D01*
X-175018985Y7352952D01*
X-175087103Y7562603D01*
X-175087104Y7562606D01*
X-175187187Y7759025D01*
X-175316752Y7937358D01*
X-175316756Y7937363D01*
X-175472636Y8093243D01*
X-175472641Y8093247D01*
X-175650974Y8222812D01*
X-175650978Y8222815D01*
X-175779375Y8288237D01*
X-175847393Y8322895D01*
X-175847396Y8322896D01*
X-175952221Y8356955D01*
X-176057049Y8391015D01*
X-176274778Y8425500D01*
X-176495222Y8425500D01*
X-176712951Y8391015D01*
X-176922606Y8322895D01*
X-177119022Y8222815D01*
X-177297365Y8093242D01*
X-177453242Y7937365D01*
X-177582815Y7759022D01*
X-177682895Y7562606D01*
X-177751015Y7352951D01*
X-177785500Y7135222D01*
X-190224500Y7135222D01*
X-190258985Y7352952D01*
X-190327103Y7562603D01*
X-190327104Y7562606D01*
X-190427187Y7759025D01*
X-190556752Y7937358D01*
X-190556756Y7937363D01*
X-190712636Y8093243D01*
X-190712641Y8093247D01*
X-190890974Y8222812D01*
X-190890978Y8222815D01*
X-191019375Y8288237D01*
X-191087393Y8322895D01*
X-191087396Y8322896D01*
X-191192221Y8356955D01*
X-191297049Y8391015D01*
X-191514778Y8425500D01*
X-191735222Y8425500D01*
X-191952951Y8391015D01*
X-192162606Y8322895D01*
X-192359022Y8222815D01*
X-192537365Y8093242D01*
X-192693242Y7937365D01*
X-192822815Y7759022D01*
X-192922895Y7562606D01*
X-192991015Y7352951D01*
X-193025500Y7135222D01*
X-194604972Y7135222D01*
X-194601143Y7159398D01*
X-194601134Y7159458D01*
X-194599500Y7169778D01*
X-194599500Y7390222D01*
X-194616742Y7499086D01*
X-194633985Y7607952D01*
X-194702103Y7817603D01*
X-194702104Y7817606D01*
X-194802187Y8014025D01*
X-194931752Y8192358D01*
X-194931756Y8192363D01*
X-195087636Y8348243D01*
X-195087641Y8348247D01*
X-195265974Y8477812D01*
X-195265978Y8477815D01*
X-195394375Y8543237D01*
X-195462393Y8577895D01*
X-195462396Y8577896D01*
X-195567221Y8611955D01*
X-195672049Y8646015D01*
X-195889778Y8680500D01*
X-196110222Y8680500D01*
X-196327951Y8646015D01*
X-196537606Y8577895D01*
X-196734022Y8477815D01*
X-196912365Y8348242D01*
X-197068242Y8192365D01*
X-197197815Y8014022D01*
X-197297895Y7817606D01*
X-197366015Y7607951D01*
X-197400500Y7390222D01*
X-211499500Y7390222D01*
X-211499500Y13875500D01*
X-211479815Y13942539D01*
X-211427011Y13988294D01*
X-211375500Y13999500D01*
X-210197328Y13999500D01*
X-210130289Y13979815D01*
G37*
%TD.AperFunction*%
%TA.AperFunction,Conductor*%
G36*
X-207591392Y13979815D02*
G01*
X-207545637Y13927011D01*
X-207535693Y13857853D01*
X-207564718Y13794297D01*
X-207602136Y13765015D01*
X-207734022Y13697815D01*
X-207912365Y13568242D01*
X-208068242Y13412365D01*
X-208169991Y13272317D01*
X-208225320Y13229653D01*
X-208294933Y13223674D01*
X-208356729Y13256279D01*
X-208370628Y13272319D01*
X-208388932Y13297513D01*
X-209097861Y12588584D01*
X-209120667Y12673694D01*
X-209179910Y12776306D01*
X-209263694Y12860090D01*
X-209366306Y12919333D01*
X-209451414Y12942137D01*
X-208742485Y13651065D01*
X-208742485Y13651066D01*
X-208806243Y13697388D01*
X-208938967Y13765015D01*
X-208989763Y13812990D01*
X-209006558Y13880811D01*
X-208984020Y13946946D01*
X-208929305Y13990397D01*
X-208882672Y13999500D01*
X-207658431Y13999500D01*
X-207591392Y13979815D01*
G37*
%TD.AperFunction*%
%TD*%
M02*
