%TF.GenerationSoftware,KiCad,Pcbnew,9.0.4+1*%
%TF.CreationDate,2025-09-23T18:14:48+02:00*%
%TF.ProjectId,PCB,5043422e-6b69-4636-9164-5f7063625858,rev?*%
%TF.SameCoordinates,Original*%
%TF.FileFunction,Legend,Top*%
%TF.FilePolarity,Positive*%
%FSLAX46Y46*%
G04 Gerber Fmt 4.6, Leading zero omitted, Abs format (unit mm)*
G04 Created by KiCad (PCBNEW 9.0.4+1) date 2025-09-23 18:14:48*
%MOMM*%
%LPD*%
G01*
G04 APERTURE LIST*
%ADD10C,0.100000*%
%ADD11C,0.150000*%
%ADD12C,0.120000*%
G04 APERTURE END LIST*
D10*
X-202243734Y11345200D02*
X-202100877Y11249961D01*
X-202100877Y11249961D02*
X-201862782Y11249961D01*
X-201862782Y11249961D02*
X-201767544Y11345200D01*
X-201767544Y11345200D02*
X-201719925Y11440438D01*
X-201719925Y11440438D02*
X-201672306Y11630914D01*
X-201672306Y11630914D02*
X-201672306Y11821390D01*
X-201672306Y11821390D02*
X-201719925Y12011866D01*
X-201719925Y12011866D02*
X-201767544Y12107104D01*
X-201767544Y12107104D02*
X-201862782Y12202342D01*
X-201862782Y12202342D02*
X-202053258Y12297580D01*
X-202053258Y12297580D02*
X-202148496Y12392819D01*
X-202148496Y12392819D02*
X-202196115Y12488057D01*
X-202196115Y12488057D02*
X-202243734Y12678533D01*
X-202243734Y12678533D02*
X-202243734Y12869009D01*
X-202243734Y12869009D02*
X-202196115Y13059485D01*
X-202196115Y13059485D02*
X-202148496Y13154723D01*
X-202148496Y13154723D02*
X-202053258Y13249961D01*
X-202053258Y13249961D02*
X-201815163Y13249961D01*
X-201815163Y13249961D02*
X-201672306Y13154723D01*
X-201243734Y12583295D02*
X-201243734Y11249961D01*
X-201243734Y12392819D02*
X-201196115Y12488057D01*
X-201196115Y12488057D02*
X-201100877Y12583295D01*
X-201100877Y12583295D02*
X-200958020Y12583295D01*
X-200958020Y12583295D02*
X-200862782Y12488057D01*
X-200862782Y12488057D02*
X-200815163Y12297580D01*
X-200815163Y12297580D02*
X-200815163Y11249961D01*
X-200338972Y11249961D02*
X-200338972Y12583295D01*
X-200243734Y13345200D02*
X-200386591Y13059485D01*
X-199862782Y11249961D02*
X-199862782Y12583295D01*
X-199862782Y12392819D02*
X-199815163Y12488057D01*
X-199815163Y12488057D02*
X-199719925Y12583295D01*
X-199719925Y12583295D02*
X-199577068Y12583295D01*
X-199577068Y12583295D02*
X-199481830Y12488057D01*
X-199481830Y12488057D02*
X-199434211Y12297580D01*
X-199434211Y12297580D02*
X-199434211Y11249961D01*
X-199434211Y12297580D02*
X-199386592Y12488057D01*
X-199386592Y12488057D02*
X-199291354Y12583295D01*
X-199291354Y12583295D02*
X-199148497Y12583295D01*
X-199148497Y12583295D02*
X-199053258Y12488057D01*
X-199053258Y12488057D02*
X-199005639Y12297580D01*
X-199005639Y12297580D02*
X-199005639Y11249961D01*
X-198100878Y11249961D02*
X-198100878Y12297580D01*
X-198100878Y12297580D02*
X-198148497Y12488057D01*
X-198148497Y12488057D02*
X-198243735Y12583295D01*
X-198243735Y12583295D02*
X-198434211Y12583295D01*
X-198434211Y12583295D02*
X-198529449Y12488057D01*
X-198100878Y11345200D02*
X-198196116Y11249961D01*
X-198196116Y11249961D02*
X-198434211Y11249961D01*
X-198434211Y11249961D02*
X-198529449Y11345200D01*
X-198529449Y11345200D02*
X-198577068Y11535676D01*
X-198577068Y11535676D02*
X-198577068Y11726152D01*
X-198577068Y11726152D02*
X-198529449Y11916628D01*
X-198529449Y11916628D02*
X-198434211Y12011866D01*
X-198434211Y12011866D02*
X-198196116Y12011866D01*
X-198196116Y12011866D02*
X-198100878Y12107104D01*
X-197196116Y11345200D02*
X-197291354Y11249961D01*
X-197291354Y11249961D02*
X-197481830Y11249961D01*
X-197481830Y11249961D02*
X-197577068Y11345200D01*
X-197577068Y11345200D02*
X-197624687Y11440438D01*
X-197624687Y11440438D02*
X-197672306Y11630914D01*
X-197672306Y11630914D02*
X-197672306Y12202342D01*
X-197672306Y12202342D02*
X-197624687Y12392819D01*
X-197624687Y12392819D02*
X-197577068Y12488057D01*
X-197577068Y12488057D02*
X-197481830Y12583295D01*
X-197481830Y12583295D02*
X-197291354Y12583295D01*
X-197291354Y12583295D02*
X-197196116Y12488057D01*
X-197577068Y13345200D02*
X-197386592Y13059485D01*
X-197386592Y13059485D02*
X-197196116Y13345200D01*
X-195577068Y12583295D02*
X-195577068Y10964247D01*
X-195577068Y10964247D02*
X-195624687Y10773771D01*
X-195624687Y10773771D02*
X-195672306Y10678533D01*
X-195672306Y10678533D02*
X-195767544Y10583295D01*
X-195767544Y10583295D02*
X-195910401Y10583295D01*
X-195910401Y10583295D02*
X-196005639Y10678533D01*
X-195577068Y11345200D02*
X-195672306Y11249961D01*
X-195672306Y11249961D02*
X-195862782Y11249961D01*
X-195862782Y11249961D02*
X-195958020Y11345200D01*
X-195958020Y11345200D02*
X-196005639Y11440438D01*
X-196005639Y11440438D02*
X-196053258Y11630914D01*
X-196053258Y11630914D02*
X-196053258Y12202342D01*
X-196053258Y12202342D02*
X-196005639Y12392819D01*
X-196005639Y12392819D02*
X-195958020Y12488057D01*
X-195958020Y12488057D02*
X-195862782Y12583295D01*
X-195862782Y12583295D02*
X-195672306Y12583295D01*
X-195672306Y12583295D02*
X-195577068Y12488057D01*
X-194719925Y11345200D02*
X-194815163Y11249961D01*
X-194815163Y11249961D02*
X-195005639Y11249961D01*
X-195005639Y11249961D02*
X-195100877Y11345200D01*
X-195100877Y11345200D02*
X-195148496Y11535676D01*
X-195148496Y11535676D02*
X-195148496Y12297580D01*
X-195148496Y12297580D02*
X-195100877Y12488057D01*
X-195100877Y12488057D02*
X-195005639Y12583295D01*
X-195005639Y12583295D02*
X-194815163Y12583295D01*
X-194815163Y12583295D02*
X-194719925Y12488057D01*
X-194719925Y12488057D02*
X-194672306Y12297580D01*
X-194672306Y12297580D02*
X-194672306Y12107104D01*
X-194672306Y12107104D02*
X-195148496Y11916628D01*
X-194291353Y11345200D02*
X-194196115Y11249961D01*
X-194196115Y11249961D02*
X-194005639Y11249961D01*
X-194005639Y11249961D02*
X-193910401Y11345200D01*
X-193910401Y11345200D02*
X-193862782Y11535676D01*
X-193862782Y11535676D02*
X-193862782Y11630914D01*
X-193862782Y11630914D02*
X-193910401Y11821390D01*
X-193910401Y11821390D02*
X-194005639Y11916628D01*
X-194005639Y11916628D02*
X-194148496Y11916628D01*
X-194148496Y11916628D02*
X-194243734Y12011866D01*
X-194243734Y12011866D02*
X-194291353Y12202342D01*
X-194291353Y12202342D02*
X-194291353Y12297580D01*
X-194291353Y12297580D02*
X-194243734Y12488057D01*
X-194243734Y12488057D02*
X-194148496Y12583295D01*
X-194148496Y12583295D02*
X-194005639Y12583295D01*
X-194005639Y12583295D02*
X-193910401Y12488057D01*
X-193577067Y12583295D02*
X-193196115Y12583295D01*
X-193434210Y13249961D02*
X-193434210Y11535676D01*
X-193434210Y11535676D02*
X-193386591Y11345200D01*
X-193386591Y11345200D02*
X-193291353Y11249961D01*
X-193291353Y11249961D02*
X-193196115Y11249961D01*
X-192100876Y11249961D02*
X-192100876Y13249961D01*
X-192100876Y13249961D02*
X-191767543Y11821390D01*
X-191767543Y11821390D02*
X-191434210Y13249961D01*
X-191434210Y13249961D02*
X-191434210Y11249961D01*
X-190434210Y11249961D02*
X-191005638Y11249961D01*
X-190719924Y11249961D02*
X-190719924Y13249961D01*
X-190719924Y13249961D02*
X-190815162Y12964247D01*
X-190815162Y12964247D02*
X-190910400Y12773771D01*
X-190910400Y12773771D02*
X-191005638Y12678533D01*
X-190005638Y11249961D02*
X-190005638Y13249961D01*
X-189005639Y11249961D02*
X-189577067Y11249961D01*
X-189291353Y11249961D02*
X-189291353Y13249961D01*
X-189291353Y13249961D02*
X-189386591Y12964247D01*
X-189386591Y12964247D02*
X-189481829Y12773771D01*
X-189481829Y12773771D02*
X-189577067Y12678533D01*
X-204207419Y12833333D02*
X-204921704Y12833333D01*
X-204921704Y12833333D02*
X-205064561Y12880952D01*
X-205064561Y12880952D02*
X-205159800Y12976190D01*
X-205159800Y12976190D02*
X-205207419Y13119047D01*
X-205207419Y13119047D02*
X-205207419Y13214285D01*
X-205207419Y11833333D02*
X-205207419Y12404761D01*
X-205207419Y12119047D02*
X-204207419Y12119047D01*
X-204207419Y12119047D02*
X-204350276Y12214285D01*
X-204350276Y12214285D02*
X-204445514Y12309523D01*
X-204445514Y12309523D02*
X-204493133Y12404761D01*
X-182207419Y-26666666D02*
X-182921704Y-26666666D01*
X-182921704Y-26666666D02*
X-183064561Y-26619047D01*
X-183064561Y-26619047D02*
X-183159800Y-26523809D01*
X-183159800Y-26523809D02*
X-183207419Y-26380952D01*
X-183207419Y-26380952D02*
X-183207419Y-26285714D01*
X-182302657Y-27095238D02*
X-182255038Y-27142857D01*
X-182255038Y-27142857D02*
X-182207419Y-27238095D01*
X-182207419Y-27238095D02*
X-182207419Y-27476190D01*
X-182207419Y-27476190D02*
X-182255038Y-27571428D01*
X-182255038Y-27571428D02*
X-182302657Y-27619047D01*
X-182302657Y-27619047D02*
X-182397895Y-27666666D01*
X-182397895Y-27666666D02*
X-182493133Y-27666666D01*
X-182493133Y-27666666D02*
X-182635990Y-27619047D01*
X-182635990Y-27619047D02*
X-183207419Y-27047619D01*
X-183207419Y-27047619D02*
X-183207419Y-27666666D01*
X-184146904Y12567580D02*
X-184146904Y11758057D01*
X-184146904Y11758057D02*
X-184099285Y11662819D01*
X-184099285Y11662819D02*
X-184051666Y11615200D01*
X-184051666Y11615200D02*
X-183956428Y11567580D01*
X-183956428Y11567580D02*
X-183765952Y11567580D01*
X-183765952Y11567580D02*
X-183670714Y11615200D01*
X-183670714Y11615200D02*
X-183623095Y11662819D01*
X-183623095Y11662819D02*
X-183575476Y11758057D01*
X-183575476Y11758057D02*
X-183575476Y12567580D01*
X-182575476Y11567580D02*
X-183146904Y11567580D01*
X-182861190Y11567580D02*
X-182861190Y12567580D01*
X-182861190Y12567580D02*
X-182956428Y12424723D01*
X-182956428Y12424723D02*
X-183051666Y12329485D01*
X-183051666Y12329485D02*
X-183146904Y12281866D01*
X-179333332Y-16709800D02*
X-179190475Y-16757419D01*
X-179190475Y-16757419D02*
X-178952380Y-16757419D01*
X-178952380Y-16757419D02*
X-178857142Y-16709800D01*
X-178857142Y-16709800D02*
X-178809523Y-16662180D01*
X-178809523Y-16662180D02*
X-178761904Y-16566942D01*
X-178761904Y-16566942D02*
X-178761904Y-16471704D01*
X-178761904Y-16471704D02*
X-178809523Y-16376466D01*
X-178809523Y-16376466D02*
X-178857142Y-16328847D01*
X-178857142Y-16328847D02*
X-178952380Y-16281228D01*
X-178952380Y-16281228D02*
X-179142856Y-16233609D01*
X-179142856Y-16233609D02*
X-179238094Y-16185990D01*
X-179238094Y-16185990D02*
X-179285713Y-16138371D01*
X-179285713Y-16138371D02*
X-179333332Y-16043133D01*
X-179333332Y-16043133D02*
X-179333332Y-15947895D01*
X-179333332Y-15947895D02*
X-179285713Y-15852657D01*
X-179285713Y-15852657D02*
X-179238094Y-15805038D01*
X-179238094Y-15805038D02*
X-179142856Y-15757419D01*
X-179142856Y-15757419D02*
X-178904761Y-15757419D01*
X-178904761Y-15757419D02*
X-178761904Y-15805038D01*
X-178428570Y-15757419D02*
X-178190475Y-16757419D01*
X-178190475Y-16757419D02*
X-177999999Y-16043133D01*
X-177999999Y-16043133D02*
X-177809523Y-16757419D01*
X-177809523Y-16757419D02*
X-177571428Y-15757419D01*
X-176761904Y-16090752D02*
X-176761904Y-16757419D01*
X-176999999Y-15709800D02*
X-177238094Y-16424085D01*
X-177238094Y-16424085D02*
X-176619047Y-16424085D01*
X-201909800Y-23816667D02*
X-201957419Y-23959524D01*
X-201957419Y-23959524D02*
X-201957419Y-24197619D01*
X-201957419Y-24197619D02*
X-201909800Y-24292857D01*
X-201909800Y-24292857D02*
X-201862180Y-24340476D01*
X-201862180Y-24340476D02*
X-201766942Y-24388095D01*
X-201766942Y-24388095D02*
X-201671704Y-24388095D01*
X-201671704Y-24388095D02*
X-201576466Y-24340476D01*
X-201576466Y-24340476D02*
X-201528847Y-24292857D01*
X-201528847Y-24292857D02*
X-201481228Y-24197619D01*
X-201481228Y-24197619D02*
X-201433609Y-24007143D01*
X-201433609Y-24007143D02*
X-201385990Y-23911905D01*
X-201385990Y-23911905D02*
X-201338371Y-23864286D01*
X-201338371Y-23864286D02*
X-201243133Y-23816667D01*
X-201243133Y-23816667D02*
X-201147895Y-23816667D01*
X-201147895Y-23816667D02*
X-201052657Y-23864286D01*
X-201052657Y-23864286D02*
X-201005038Y-23911905D01*
X-201005038Y-23911905D02*
X-200957419Y-24007143D01*
X-200957419Y-24007143D02*
X-200957419Y-24245238D01*
X-200957419Y-24245238D02*
X-201005038Y-24388095D01*
X-200957419Y-24721429D02*
X-201957419Y-24959524D01*
X-201957419Y-24959524D02*
X-201243133Y-25150000D01*
X-201243133Y-25150000D02*
X-201957419Y-25340476D01*
X-201957419Y-25340476D02*
X-200957419Y-25578572D01*
X-201052657Y-25911905D02*
X-201005038Y-25959524D01*
X-201005038Y-25959524D02*
X-200957419Y-26054762D01*
X-200957419Y-26054762D02*
X-200957419Y-26292857D01*
X-200957419Y-26292857D02*
X-201005038Y-26388095D01*
X-201005038Y-26388095D02*
X-201052657Y-26435714D01*
X-201052657Y-26435714D02*
X-201147895Y-26483333D01*
X-201147895Y-26483333D02*
X-201243133Y-26483333D01*
X-201243133Y-26483333D02*
X-201385990Y-26435714D01*
X-201385990Y-26435714D02*
X-201957419Y-25864286D01*
X-201957419Y-25864286D02*
X-201957419Y-26483333D01*
X-202988095Y-12792580D02*
X-202988095Y-11983057D01*
X-202988095Y-11983057D02*
X-203035714Y-11887819D01*
X-203035714Y-11887819D02*
X-203083333Y-11840200D01*
X-203083333Y-11840200D02*
X-203178571Y-11792580D01*
X-203178571Y-11792580D02*
X-203369047Y-11792580D01*
X-203369047Y-11792580D02*
X-203464285Y-11840200D01*
X-203464285Y-11840200D02*
X-203511904Y-11887819D01*
X-203511904Y-11887819D02*
X-203559523Y-11983057D01*
X-203559523Y-11983057D02*
X-203559523Y-12792580D01*
X-203988095Y-12697342D02*
X-204035714Y-12744961D01*
X-204035714Y-12744961D02*
X-204130952Y-12792580D01*
X-204130952Y-12792580D02*
X-204369047Y-12792580D01*
X-204369047Y-12792580D02*
X-204464285Y-12744961D01*
X-204464285Y-12744961D02*
X-204511904Y-12697342D01*
X-204511904Y-12697342D02*
X-204559523Y-12602104D01*
X-204559523Y-12602104D02*
X-204559523Y-12506866D01*
X-204559523Y-12506866D02*
X-204511904Y-12364009D01*
X-204511904Y-12364009D02*
X-203940476Y-11792580D01*
X-203940476Y-11792580D02*
X-204559523Y-11792580D01*
X-190909800Y-23916667D02*
X-190957419Y-24059524D01*
X-190957419Y-24059524D02*
X-190957419Y-24297619D01*
X-190957419Y-24297619D02*
X-190909800Y-24392857D01*
X-190909800Y-24392857D02*
X-190862180Y-24440476D01*
X-190862180Y-24440476D02*
X-190766942Y-24488095D01*
X-190766942Y-24488095D02*
X-190671704Y-24488095D01*
X-190671704Y-24488095D02*
X-190576466Y-24440476D01*
X-190576466Y-24440476D02*
X-190528847Y-24392857D01*
X-190528847Y-24392857D02*
X-190481228Y-24297619D01*
X-190481228Y-24297619D02*
X-190433609Y-24107143D01*
X-190433609Y-24107143D02*
X-190385990Y-24011905D01*
X-190385990Y-24011905D02*
X-190338371Y-23964286D01*
X-190338371Y-23964286D02*
X-190243133Y-23916667D01*
X-190243133Y-23916667D02*
X-190147895Y-23916667D01*
X-190147895Y-23916667D02*
X-190052657Y-23964286D01*
X-190052657Y-23964286D02*
X-190005038Y-24011905D01*
X-190005038Y-24011905D02*
X-189957419Y-24107143D01*
X-189957419Y-24107143D02*
X-189957419Y-24345238D01*
X-189957419Y-24345238D02*
X-190005038Y-24488095D01*
X-189957419Y-24821429D02*
X-190957419Y-25059524D01*
X-190957419Y-25059524D02*
X-190243133Y-25250000D01*
X-190243133Y-25250000D02*
X-190957419Y-25440476D01*
X-190957419Y-25440476D02*
X-189957419Y-25678572D01*
X-189957419Y-25964286D02*
X-189957419Y-26583333D01*
X-189957419Y-26583333D02*
X-190338371Y-26250000D01*
X-190338371Y-26250000D02*
X-190338371Y-26392857D01*
X-190338371Y-26392857D02*
X-190385990Y-26488095D01*
X-190385990Y-26488095D02*
X-190433609Y-26535714D01*
X-190433609Y-26535714D02*
X-190528847Y-26583333D01*
X-190528847Y-26583333D02*
X-190766942Y-26583333D01*
X-190766942Y-26583333D02*
X-190862180Y-26535714D01*
X-190862180Y-26535714D02*
X-190909800Y-26488095D01*
X-190909800Y-26488095D02*
X-190957419Y-26392857D01*
X-190957419Y-26392857D02*
X-190957419Y-26107143D01*
X-190957419Y-26107143D02*
X-190909800Y-26011905D01*
X-190909800Y-26011905D02*
X-190862180Y-25964286D01*
D11*
X-197738094Y-13494819D02*
X-197738094Y-12494819D01*
X-197738094Y-12494819D02*
X-197499999Y-12494819D01*
X-197499999Y-12494819D02*
X-197357142Y-12542438D01*
X-197357142Y-12542438D02*
X-197261904Y-12637676D01*
X-197261904Y-12637676D02*
X-197214285Y-12732914D01*
X-197214285Y-12732914D02*
X-197166666Y-12923390D01*
X-197166666Y-12923390D02*
X-197166666Y-13066247D01*
X-197166666Y-13066247D02*
X-197214285Y-13256723D01*
X-197214285Y-13256723D02*
X-197261904Y-13351961D01*
X-197261904Y-13351961D02*
X-197357142Y-13447200D01*
X-197357142Y-13447200D02*
X-197499999Y-13494819D01*
X-197499999Y-13494819D02*
X-197738094Y-13494819D01*
X-196214285Y-13494819D02*
X-196785713Y-13494819D01*
X-196499999Y-13494819D02*
X-196499999Y-12494819D01*
X-196499999Y-12494819D02*
X-196595237Y-12637676D01*
X-196595237Y-12637676D02*
X-196690475Y-12732914D01*
X-196690475Y-12732914D02*
X-196785713Y-12780533D01*
X-184085180Y-20238094D02*
X-185085180Y-20238094D01*
X-185085180Y-20238094D02*
X-185085180Y-19999999D01*
X-185085180Y-19999999D02*
X-185037561Y-19857142D01*
X-185037561Y-19857142D02*
X-184942323Y-19761904D01*
X-184942323Y-19761904D02*
X-184847085Y-19714285D01*
X-184847085Y-19714285D02*
X-184656609Y-19666666D01*
X-184656609Y-19666666D02*
X-184513752Y-19666666D01*
X-184513752Y-19666666D02*
X-184323276Y-19714285D01*
X-184323276Y-19714285D02*
X-184228038Y-19761904D01*
X-184228038Y-19761904D02*
X-184132800Y-19857142D01*
X-184132800Y-19857142D02*
X-184085180Y-19999999D01*
X-184085180Y-19999999D02*
X-184085180Y-20238094D01*
X-184989942Y-19285713D02*
X-185037561Y-19238094D01*
X-185037561Y-19238094D02*
X-185085180Y-19142856D01*
X-185085180Y-19142856D02*
X-185085180Y-18904761D01*
X-185085180Y-18904761D02*
X-185037561Y-18809523D01*
X-185037561Y-18809523D02*
X-184989942Y-18761904D01*
X-184989942Y-18761904D02*
X-184894704Y-18714285D01*
X-184894704Y-18714285D02*
X-184799466Y-18714285D01*
X-184799466Y-18714285D02*
X-184656609Y-18761904D01*
X-184656609Y-18761904D02*
X-184085180Y-19333332D01*
X-184085180Y-19333332D02*
X-184085180Y-18714285D01*
D10*
X-201909800Y-15716667D02*
X-201957419Y-15859524D01*
X-201957419Y-15859524D02*
X-201957419Y-16097619D01*
X-201957419Y-16097619D02*
X-201909800Y-16192857D01*
X-201909800Y-16192857D02*
X-201862180Y-16240476D01*
X-201862180Y-16240476D02*
X-201766942Y-16288095D01*
X-201766942Y-16288095D02*
X-201671704Y-16288095D01*
X-201671704Y-16288095D02*
X-201576466Y-16240476D01*
X-201576466Y-16240476D02*
X-201528847Y-16192857D01*
X-201528847Y-16192857D02*
X-201481228Y-16097619D01*
X-201481228Y-16097619D02*
X-201433609Y-15907143D01*
X-201433609Y-15907143D02*
X-201385990Y-15811905D01*
X-201385990Y-15811905D02*
X-201338371Y-15764286D01*
X-201338371Y-15764286D02*
X-201243133Y-15716667D01*
X-201243133Y-15716667D02*
X-201147895Y-15716667D01*
X-201147895Y-15716667D02*
X-201052657Y-15764286D01*
X-201052657Y-15764286D02*
X-201005038Y-15811905D01*
X-201005038Y-15811905D02*
X-200957419Y-15907143D01*
X-200957419Y-15907143D02*
X-200957419Y-16145238D01*
X-200957419Y-16145238D02*
X-201005038Y-16288095D01*
X-200957419Y-16621429D02*
X-201957419Y-16859524D01*
X-201957419Y-16859524D02*
X-201243133Y-17050000D01*
X-201243133Y-17050000D02*
X-201957419Y-17240476D01*
X-201957419Y-17240476D02*
X-200957419Y-17478572D01*
X-201957419Y-18383333D02*
X-201957419Y-17811905D01*
X-201957419Y-18097619D02*
X-200957419Y-18097619D01*
X-200957419Y-18097619D02*
X-201100276Y-18002381D01*
X-201100276Y-18002381D02*
X-201195514Y-17907143D01*
X-201195514Y-17907143D02*
X-201243133Y-17811905D01*
%TO.C,J1*%
X-205750000Y13750000D02*
X-210750000Y13750000D01*
X-210750000Y11250000D01*
X-205750000Y11250000D01*
X-205750000Y13750000D01*
%TO.C,J2*%
X-183750000Y-25750000D02*
X-188750000Y-25750000D01*
X-188750000Y-28250000D01*
X-183750000Y-28250000D01*
X-183750000Y-25750000D01*
%TO.C,U1*%
X-193005000Y8565000D02*
X-175005000Y8565000D01*
X-175005000Y-13975000D01*
X-193005000Y-13975000D01*
X-193005000Y8565000D01*
X-187885000Y11025000D02*
X-179385000Y11025000D01*
X-179385000Y5025000D01*
X-187885000Y5025000D01*
X-187885000Y11025000D01*
%TO.C,SW4*%
X-180900000Y-17250000D02*
X-175100000Y-17250000D01*
X-175100000Y-27750000D01*
X-180900000Y-27750000D01*
X-180900000Y-17250000D01*
%TO.C,SW2*%
X-202500000Y-21900000D02*
X-211000000Y-21900000D01*
X-211000000Y-28400000D01*
X-202500000Y-28400000D01*
X-202500000Y-21900000D01*
%TO.C,U2*%
X-195000000Y-11500000D02*
X-211000000Y-11500000D01*
X-211000000Y8500000D01*
X-195000000Y8500000D01*
X-195000000Y-11500000D01*
%TO.C,SW3*%
X-191500000Y-22000000D02*
X-200000000Y-22000000D01*
X-200000000Y-28500000D01*
X-191500000Y-28500000D01*
X-191500000Y-22000000D01*
D12*
%TO.C,D1*%
X-199420000Y-15596000D02*
X-199420000Y-16404000D01*
X-199660000Y-16000000D02*
G75*
G02*
X-194340000Y-16000000I2660000J-699999D01*
G01*
X-194340000Y-16000000D02*
G75*
G02*
X-199660000Y-16000000I-2660000J699999D01*
G01*
%TO.C,D2*%
X-187096000Y-17080000D02*
X-187904000Y-17080000D01*
X-187500000Y-16840000D02*
G75*
G02*
X-187500000Y-22160000I-699999J-2660000D01*
G01*
X-187500000Y-22160000D02*
G75*
G02*
X-187500000Y-16840000I699999J2660000D01*
G01*
%TO.C,SW1*%
D10*
X-202500000Y-13800000D02*
X-211000000Y-13800000D01*
X-211000000Y-20300000D01*
X-202500000Y-20300000D01*
X-202500000Y-13800000D01*
%TD*%
M02*
