%TF.GenerationSoftware,KiCad,Pcbnew,9.0.4+1*%
%TF.CreationDate,2025-09-23T18:14:48+02:00*%
%TF.ProjectId,PCB,5043422e-6b69-4636-9164-5f7063625858,rev?*%
%TF.SameCoordinates,Original*%
%TF.FileFunction,Copper,L1,Top*%
%TF.FilePolarity,Positive*%
%FSLAX46Y46*%
G04 Gerber Fmt 4.6, Leading zero omitted, Abs format (unit mm)*
G04 Created by KiCad (PCBNEW 9.0.4+1) date 2025-09-23 18:14:48*
%MOMM*%
%LPD*%
G01*
G04 APERTURE LIST*
%TA.AperFunction,ComponentPad*%
%ADD10C,1.800000*%
%TD*%
%TA.AperFunction,ComponentPad*%
%ADD11C,1.400000*%
%TD*%
%TA.AperFunction,ComponentPad*%
%ADD12R,1.800000X1.800000*%
%TD*%
%TA.AperFunction,Conductor*%
%ADD13C,0.300000*%
%TD*%
%TA.AperFunction,Conductor*%
%ADD14C,0.600000*%
%TD*%
G04 APERTURE END LIST*
D10*
%TO.P,J1,1,Pin_1*%
%TO.N,GND*%
X-209540000Y12500000D03*
%TO.P,J1,2,Pin_2*%
%TO.N,Net-(J1-Pin_2)*%
X-207000000Y12500000D03*
%TD*%
%TO.P,J2,1,Pin_1*%
%TO.N,GND*%
X-187540000Y-27000000D03*
%TO.P,J2,2,Pin_2*%
%TO.N,Net-(J2-Pin_2)*%
X-185000000Y-27000000D03*
%TD*%
D11*
%TO.P,U1,0*%
%TO.N,Net-(J1-Pin_2)*%
X-176385000Y-10755000D03*
%TO.P,U1,1*%
%TO.N,Net-(D1-A)*%
X-176385000Y-8215000D03*
%TO.P,U1,2*%
%TO.N,unconnected-(U1-Pad2)*%
X-176385000Y-5675000D03*
%TO.P,U1,3*%
%TO.N,unconnected-(U1-Pad3)*%
X-176385000Y-3135000D03*
%TO.P,U1,3V3,3V3*%
%TO.N,unconnected-(U1-Pad3V3)*%
X-176385000Y1945000D03*
%TO.P,U1,4*%
%TO.N,unconnected-(U1-Pad4)*%
X-176385000Y-595000D03*
%TO.P,U1,5*%
%TO.N,unconnected-(U1-Pad5)*%
X-191625000Y7025000D03*
%TO.P,U1,5V,5V*%
%TO.N,VCC*%
X-176385000Y7025000D03*
%TO.P,U1,6*%
%TO.N,unconnected-(U1-Pad6)*%
X-191625000Y4485000D03*
%TO.P,U1,7*%
%TO.N,Net-(U2-INT)*%
X-191625000Y1945000D03*
%TO.P,U1,8,SDA*%
%TO.N,Net-(U1-SDA)*%
X-191625000Y-595000D03*
%TO.P,U1,9,SCL*%
%TO.N,Net-(U1-SCL)*%
X-191625000Y-3135000D03*
%TO.P,U1,10*%
%TO.N,Net-(SW1-Pad1)*%
X-191625000Y-5675000D03*
%TO.P,U1,20*%
%TO.N,Net-(SW2-Pad1)*%
X-191625000Y-8215000D03*
%TO.P,U1,21*%
%TO.N,Net-(SW3-Pad1)*%
X-191625000Y-10755000D03*
%TO.P,U1,GND,GND*%
%TO.N,GND*%
X-176385000Y4485000D03*
%TD*%
%TO.P,SW4,1,A*%
%TO.N,VCC*%
X-178000000Y-19500000D03*
%TO.P,SW4,2,B*%
%TO.N,Net-(J2-Pin_2)*%
X-178000000Y-22500000D03*
%TO.P,SW4,3,C*%
%TO.N,unconnected-(SW4A-C-Pad3)*%
X-178000000Y-25500000D03*
%TD*%
D10*
%TO.P,SW2,1,1*%
%TO.N,Net-(SW2-Pad1)*%
X-203500000Y-22900000D03*
%TO.P,SW2,2,2*%
%TO.N,unconnected-(SW2-Pad2)*%
X-210000000Y-22900000D03*
%TO.P,SW2,3,K*%
%TO.N,unconnected-(SW2-K-Pad3)*%
X-210000000Y-27400000D03*
%TO.P,SW2,4,A*%
%TO.N,GND*%
X-203500000Y-27400000D03*
%TD*%
D11*
%TO.P,U2,1,VCC*%
%TO.N,VCC*%
X-196000000Y-10500000D03*
%TO.P,U2,2,GND*%
%TO.N,GND*%
X-196000000Y-7960000D03*
%TO.P,U2,3,SCL*%
%TO.N,Net-(U1-SCL)*%
X-196000000Y-5420000D03*
%TO.P,U2,4,SDA*%
%TO.N,Net-(U1-SDA)*%
X-196000000Y-2880000D03*
%TO.P,U2,5,XDA*%
%TO.N,unconnected-(U2-XDA-Pad5)*%
X-196000000Y-340000D03*
%TO.P,U2,6,XCL*%
%TO.N,unconnected-(U2-XCL-Pad6)*%
X-196000000Y2200000D03*
%TO.P,U2,7,ADO*%
%TO.N,unconnected-(U2-ADO-Pad7)*%
X-196000000Y4740000D03*
%TO.P,U2,8,INT*%
%TO.N,Net-(U2-INT)*%
X-196000000Y7280000D03*
%TD*%
D10*
%TO.P,SW3,1,1*%
%TO.N,Net-(SW3-Pad1)*%
X-192500000Y-23000000D03*
%TO.P,SW3,2,2*%
%TO.N,unconnected-(SW3-Pad2)*%
X-199000000Y-23000000D03*
%TO.P,SW3,3,K*%
%TO.N,unconnected-(SW3-K-Pad3)*%
X-199000000Y-27500000D03*
%TO.P,SW3,4,A*%
%TO.N,GND*%
X-192500000Y-27500000D03*
%TD*%
D12*
%TO.P,D1,1,K*%
%TO.N,GND*%
X-198270000Y-16000000D03*
D10*
%TO.P,D1,2,A*%
%TO.N,Net-(D1-A)*%
X-195730000Y-16000000D03*
%TD*%
D12*
%TO.P,D2,1,K*%
%TO.N,GND*%
X-187500000Y-18230000D03*
D10*
%TO.P,D2,2,A*%
%TO.N,VCC*%
X-187500000Y-20770000D03*
%TD*%
%TO.P,SW1,1,1*%
%TO.N,Net-(SW1-Pad1)*%
X-203500000Y-14800000D03*
%TO.P,SW1,2,2*%
%TO.N,unconnected-(SW1-Pad2)*%
X-210000000Y-14800000D03*
%TO.P,SW1,3,K*%
%TO.N,unconnected-(SW1-K-Pad3)*%
X-210000000Y-19300000D03*
%TO.P,SW1,4,A*%
%TO.N,GND*%
X-203500000Y-19300000D03*
%TD*%
D13*
%TO.N,Net-(D1-A)*%
X-202750000Y-21000000D02*
X-201000000Y-19250000D01*
X-190250000Y-28500000D02*
X-191000000Y-29250000D01*
X-190250000Y-12000000D02*
X-190250000Y-28500000D01*
X-205000000Y-28500000D02*
X-205000000Y-21500000D01*
X-201000000Y-19250000D02*
X-198980000Y-19250000D01*
X-186465000Y-8215000D02*
X-190250000Y-12000000D01*
X-191000000Y-29250000D02*
X-204250000Y-29250000D01*
X-204500000Y-21000000D02*
X-202750000Y-21000000D01*
X-176385000Y-8215000D02*
X-186465000Y-8215000D01*
X-198980000Y-19250000D02*
X-195730000Y-16000000D01*
X-204250000Y-29250000D02*
X-205000000Y-28500000D01*
X-205000000Y-21500000D02*
X-204500000Y-21000000D01*
D14*
%TO.N,VCC*%
X-198500000Y7750000D02*
X-198500000Y-8000000D01*
X-196433978Y9816022D02*
X-198500000Y7750000D01*
X-179270000Y-20770000D02*
X-187500000Y-20770000D01*
X-174750000Y-16250000D02*
X-174750000Y5390000D01*
X-178000000Y-19500000D02*
X-179270000Y-20770000D01*
X-178000000Y-19500000D02*
X-174750000Y-16250000D01*
X-198500000Y-8000000D02*
X-196000000Y-10500000D01*
X-179176022Y9816022D02*
X-196433978Y9816022D01*
X-176385000Y7025000D02*
X-179176022Y9816022D01*
X-174750000Y5390000D02*
X-176385000Y7025000D01*
D13*
%TO.N,Net-(J1-Pin_2)*%
X-189500000Y-28750000D02*
X-190750000Y-30000000D01*
X-186505000Y-10755000D02*
X-189500000Y-13750000D01*
X-190750000Y-30000000D02*
X-205250000Y-30000000D01*
X-176385000Y-10755000D02*
X-186505000Y-10755000D01*
X-207000000Y-28250000D02*
X-207000000Y12500000D01*
X-205250000Y-30000000D02*
X-207000000Y-28250000D01*
X-189500000Y-13750000D02*
X-189500000Y-28750000D01*
D14*
%TO.N,Net-(J2-Pin_2)*%
X-180500000Y-22500000D02*
X-178000000Y-22500000D01*
X-185000000Y-27000000D02*
X-180500000Y-22500000D01*
D13*
%TO.N,Net-(SW1-Pad1)*%
X-194000000Y-8050000D02*
X-194000000Y-8750000D01*
X-203500000Y-14800000D02*
X-201950000Y-13250000D01*
X-191625000Y-5675000D02*
X-194000000Y-8050000D01*
X-194250000Y-13250000D02*
X-194000000Y-13000000D01*
X-194000000Y-13000000D02*
X-194000000Y-8750000D01*
X-201950000Y-13250000D02*
X-194250000Y-13250000D01*
%TO.N,Net-(SW2-Pad1)*%
X-193250000Y-20000000D02*
X-193250000Y-9840000D01*
X-200850000Y-20250000D02*
X-193500000Y-20250000D01*
X-193250000Y-9840000D02*
X-191625000Y-8215000D01*
X-203500000Y-22900000D02*
X-200850000Y-20250000D01*
X-193500000Y-20250000D02*
X-193250000Y-20000000D01*
%TO.N,Net-(SW3-Pad1)*%
X-192500000Y-11630000D02*
X-191625000Y-10755000D01*
X-192500000Y-23000000D02*
X-192500000Y-11630000D01*
%TO.N,Net-(U2-INT)*%
X-194000000Y5280000D02*
X-194000000Y4320000D01*
X-196000000Y7280000D02*
X-194000000Y5280000D01*
X-194000000Y4320000D02*
X-191625000Y1945000D01*
%TO.N,Net-(U1-SDA)*%
X-193715000Y-595000D02*
X-196000000Y-2880000D01*
X-191625000Y-595000D02*
X-193715000Y-595000D01*
%TO.N,Net-(U1-SCL)*%
X-193910000Y-5420000D02*
X-191625000Y-3135000D01*
X-196000000Y-5420000D02*
X-193910000Y-5420000D01*
%TD*%
M02*
