%TF.GenerationSoftware,KiCad,Pcbnew,9.0.4+1*%
%TF.CreationDate,2025-09-23T18:14:49+02:00*%
%TF.ProjectId,PCB,5043422e-6b69-4636-9164-5f7063625858,rev?*%
%TF.SameCoordinates,Original*%
%TF.FileFunction,Soldermask,Top*%
%TF.FilePolarity,Negative*%
%FSLAX46Y46*%
G04 Gerber Fmt 4.6, Leading zero omitted, Abs format (unit mm)*
G04 Created by KiCad (PCBNEW 9.0.4+1) date 2025-09-23 18:14:49*
%MOMM*%
%LPD*%
G01*
G04 APERTURE LIST*
%ADD10C,1.800000*%
%ADD11C,1.400000*%
%ADD12R,1.800000X1.800000*%
G04 APERTURE END LIST*
D10*
%TO.C,J1*%
X-209540000Y12500000D03*
X-207000000Y12500000D03*
%TD*%
%TO.C,J2*%
X-187540000Y-27000000D03*
X-185000000Y-27000000D03*
%TD*%
D11*
%TO.C,U1*%
X-176385000Y-10755000D03*
X-176385000Y-8215000D03*
X-176385000Y-5675000D03*
X-176385000Y-3135000D03*
X-176385000Y1945000D03*
X-176385000Y-595000D03*
X-191625000Y7025000D03*
X-176385000Y7025000D03*
X-191625000Y4485000D03*
X-191625000Y1945000D03*
X-191625000Y-595000D03*
X-191625000Y-3135000D03*
X-191625000Y-5675000D03*
X-191625000Y-8215000D03*
X-191625000Y-10755000D03*
X-176385000Y4485000D03*
%TD*%
%TO.C,SW4*%
X-178000000Y-19500000D03*
X-178000000Y-22500000D03*
X-178000000Y-25500000D03*
%TD*%
D10*
%TO.C,SW2*%
X-203500000Y-22900000D03*
X-210000000Y-22900000D03*
X-210000000Y-27400000D03*
X-203500000Y-27400000D03*
%TD*%
D11*
%TO.C,U2*%
X-196000000Y-10500000D03*
X-196000000Y-7960000D03*
X-196000000Y-5420000D03*
X-196000000Y-2880000D03*
X-196000000Y-340000D03*
X-196000000Y2200000D03*
X-196000000Y4740000D03*
X-196000000Y7280000D03*
%TD*%
D10*
%TO.C,SW3*%
X-192500000Y-23000000D03*
X-199000000Y-23000000D03*
X-199000000Y-27500000D03*
X-192500000Y-27500000D03*
%TD*%
D12*
%TO.C,D1*%
X-198270000Y-16000000D03*
D10*
X-195730000Y-16000000D03*
%TD*%
D12*
%TO.C,D2*%
X-187500000Y-18230000D03*
D10*
X-187500000Y-20770000D03*
%TD*%
%TO.C,SW1*%
X-203500000Y-14800000D03*
X-210000000Y-14800000D03*
X-210000000Y-19300000D03*
X-203500000Y-19300000D03*
%TD*%
M02*
